<?xml version="1.0" encoding="UTF-8"?>
<svg xmlns="http://www.w3.org/2000/svg" id="icon" viewBox="0 0 1000 1000">
  <defs>
    <style>.cls-1{fill:none;}</style>
  </defs>
  <path d="M915,500c0-77.07-21.01-149.22-57.61-211.06l135.51-95.27-34.51-49.08-135.21,95.06c-76.07-94.31-192.58-154.64-323.19-154.64s-246.53,60.03-322.62,153.94L43.17,144.58l-34.51,49.08,134.41,94.5c-36.88,62.01-58.07,134.45-58.07,211.84s22.16,153.11,60.6,216.04L8.66,812.32l34.51,49.08,137.33-96.55c76.12,91.73,190.99,150.15,319.51,150.15s243.96-58.71,320.08-150.84l138.31,97.24,34.51-49.08-138.03-97.05c38.16-62.76,60.13-136.45,60.13-215.27ZM845,500c0,63.83-17.36,123.6-47.58,174.88l-121.2-85.21,56.65-213.19,67.02-47.12c28.7,50.32,45.1,108.56,45.1,170.64ZM584.41,525.12l-9.87-37.31,80-56.25-28.65,123.73-41.49-30.17ZM374.32,556.23l-29.17-125.99,80.55,56.64-10.47,39.58-40.92,29.77ZM487.65,457.09l11.35-45.2h2l11.59,46.14-11.81,9.3-13.13-10.23ZM500,155c106.93,0,202.48,48.65,265.77,125.01l-207.58,145.94-25.9-97.96h-64.57l-25.66,97.03-207.24-145.71c63.28-75.97,158.58-124.32,265.18-124.32ZM155,500c0-62.4,16.57-120.93,45.54-171.43l66.22,46.56,57.25,215.46-120.99,85.06c-30.5-51.46-48.03-111.51-48.03-175.66ZM500,845c-104.84,0-198.74-46.77-262.01-120.57l102.45-73.03,17.43,66.6h64.25l37.52-149.42,41.13-28.92,39.24,27.59,37.86,150.75h64.25l17.68-67.53,102.79,73.27c-63.28,74.2-157.43,121.26-262.59,121.26Z"></path>
  <rect class="cls-1" width="1000" height="1000"></rect>
</svg>
