<?xml version="1.0" encoding="UTF-8"?>
<svg xmlns="http://www.w3.org/2000/svg" id="icon" viewBox="0 0 1000 1000">
  <defs>
    <style>.cls-1{fill:none;}</style>
  </defs>
  <path d="M915,500c0-77.07-21.01-149.22-57.61-211.06l135.51-95.27-34.51-49.08-135.21,95.06c-76.07-94.31-192.58-154.64-323.19-154.64s-246.53,60.03-322.62,153.94L43.17,144.58l-34.51,49.08,134.41,94.5c-36.88,62.01-58.07,134.45-58.07,211.84s22.16,153.11,60.6,216.04L8.66,812.32l34.51,49.08,137.33-96.55c76.12,91.73,190.99,150.15,319.5,150.15s243.96-58.71,320.08-150.84l138.31,97.24,34.51-49.08-138.03-97.05c38.16-62.76,60.13-136.45,60.13-215.27ZM845,500c0,63.83-17.36,123.6-47.58,174.88l-244.48-171.89,246.96-173.63c28.7,50.32,45.1,108.56,45.1,170.64ZM500,155c106.93,0,202.48,48.65,265.77,125.01l-264.99,186.31-265.96-186.99c63.28-75.97,158.58-124.32,265.18-124.32ZM155,500c0-62.4,16.57-120.93,45.54-171.43l248.08,174.42-245.59,172.67c-30.5-51.46-48.03-111.51-48.03-175.66ZM500,845c-104.84,0-198.74-46.77-262.01-120.57l262.79-184.76,261.81,184.08c-63.28,74.2-157.43,121.26-262.59,121.26Z"></path>
  <rect class="cls-1" width="1000" height="1000"></rect>
</svg>
