<?xml version="1.0" encoding="UTF-8"?>
<svg xmlns="http://www.w3.org/2000/svg" id="icon" viewBox="0 0 1000 1000">
  <defs>
    <style>.cls-1{fill:none;}</style>
  </defs>
  <rect x="180" y="900" width="640" height="60"></rect>
  <path d="M451.25,530.95h105.49c53.5,0,134.64-28.81,134.64-137.37s-81.15-137.37-134.64-137.37h-170.49v411.16h65v-136.42ZM451.25,317.79h105.49c30.88,0,69.64,12.21,69.64,75.79s-41.85,75.79-69.64,75.79h-105.49v-151.58Z"></path>
  <path d="M500,832.5c216.77,0,392.5-175.73,392.5-392.5S716.77,47.5,500,47.5,107.5,223.23,107.5,440s175.73,392.5,392.5,392.5ZM500,112.5c180.87,0,327.5,146.63,327.5,327.5s-146.63,327.5-327.5,327.5-327.5-146.63-327.5-327.5S319.13,112.5,500,112.5Z"></path>
  <rect class="cls-1" width="1000" height="1000"></rect>
</svg>
