<?xml version="1.0" encoding="UTF-8"?>
<!--Generator: Apple Native CoreSVG 341-->
<!DOCTYPE svg
PUBLIC "-//W3C//DTD SVG 1.1//EN"
       "http://www.w3.org/Graphics/SVG/1.1/DTD/svg11.dtd">
<svg version="1.1" xmlns="http://www.w3.org/2000/svg" xmlns:xlink="http://www.w3.org/1999/xlink" viewBox="0 0 3300 2200">
 <!--glyph: "", point size: 100.0, font version: "20.0d10e1", template writer version: "138.0.0"-->
 <style>.SFSymbolsPreviewWireframe {fill:none;opacity:1.0;stroke:black;stroke-width:0.5}
</style>
 <g id="Notes">
  <rect height="2200" id="artboard" style="fill:white;opacity:1" width="3300" x="0" y="0"/>
  <line style="fill:none;stroke:black;opacity:1;stroke-width:0.5;" x1="263" x2="3036" y1="292" y2="292"/>
  <text style="stroke:none;fill:black;font-family:sans-serif;font-size:13;font-weight:bold;" transform="matrix(1 0 0 1 263 322)">Weight/Scale Variations</text>
  <text style="stroke:none;fill:black;font-family:sans-serif;font-size:13;text-anchor:middle;" transform="matrix(1 0 0 1 559.711 322)">Ultralight</text>
  <text style="stroke:none;fill:black;font-family:sans-serif;font-size:13;text-anchor:middle;" transform="matrix(1 0 0 1 856.422 322)">Thin</text>
  <text style="stroke:none;fill:black;font-family:sans-serif;font-size:13;text-anchor:middle;" transform="matrix(1 0 0 1 1153.13 322)">Light</text>
  <text style="stroke:none;fill:black;font-family:sans-serif;font-size:13;text-anchor:middle;" transform="matrix(1 0 0 1 1449.84 322)">Regular</text>
  <text style="stroke:none;fill:black;font-family:sans-serif;font-size:13;text-anchor:middle;" transform="matrix(1 0 0 1 1746.56 322)">Medium</text>
  <text style="stroke:none;fill:black;font-family:sans-serif;font-size:13;text-anchor:middle;" transform="matrix(1 0 0 1 2043.27 322)">Semibold</text>
  <text style="stroke:none;fill:black;font-family:sans-serif;font-size:13;text-anchor:middle;" transform="matrix(1 0 0 1 2339.98 322)">Bold</text>
  <text style="stroke:none;fill:black;font-family:sans-serif;font-size:13;text-anchor:middle;" transform="matrix(1 0 0 1 2636.69 322)">Heavy</text>
  <text style="stroke:none;fill:black;font-family:sans-serif;font-size:13;text-anchor:middle;" transform="matrix(1 0 0 1 2933.4 322)">Black</text>
  <line style="fill:none;stroke:black;opacity:1;stroke-width:0.5;" x1="263" x2="3036" y1="1903" y2="1903"/>
  <g transform="matrix(0.2 0 0 0.2 263 1933)">
   <path d="m46.2402 4.15039c21.7773 0 39.4531-17.627 39.4531-39.4043s-17.6758-39.4043-39.4531-39.4043c-21.7285 0-39.4043 17.627-39.4043 39.4043s17.6758 39.4043 39.4043 39.4043Zm0-7.42188c-17.6758 0-31.9336-14.3066-31.9336-31.9824s14.2578-31.9824 31.9336-31.9824 31.9824 14.3066 31.9824 31.9824-14.3066 31.9824-31.9824 31.9824Zm-17.9688-31.9824c0 2.14844 1.51367 3.61328 3.75977 3.61328h10.498v10.5957c0 2.19727 1.46484 3.71094 3.61328 3.71094 2.24609 0 3.71094-1.51367 3.71094-3.71094v-10.5957h10.5957c2.19727 0 3.71094-1.46484 3.71094-3.61328 0-2.19727-1.51367-3.71094-3.71094-3.71094h-10.5957v-10.5469c0-2.24609-1.46484-3.75977-3.71094-3.75977-2.14844 0-3.61328 1.51367-3.61328 3.75977v10.5469h-10.498c-2.24609 0-3.75977 1.51367-3.75977 3.71094Z"/>
  </g>
  <g transform="matrix(0.2 0 0 0.2 281.506 1933)">
   <path d="m58.5449 14.5508c27.4902 0 49.8047-22.3145 49.8047-49.8047s-22.3145-49.8047-49.8047-49.8047-49.8047 22.3145-49.8047 49.8047 22.3145 49.8047 49.8047 49.8047Zm0-8.30078c-22.9492 0-41.5039-18.5547-41.5039-41.5039s18.5547-41.5039 41.5039-41.5039 41.5039 18.5547 41.5039 41.5039-18.5547 41.5039-41.5039 41.5039Zm-22.6562-41.5039c0 2.39258 1.66016 4.00391 4.15039 4.00391h14.3555v14.4043c0 2.44141 1.66016 4.15039 4.05273 4.15039 2.44141 0 4.15039-1.66016 4.15039-4.15039v-14.4043h14.4043c2.44141 0 4.15039-1.61133 4.15039-4.00391 0-2.44141-1.70898-4.15039-4.15039-4.15039h-14.4043v-14.3555c0-2.49023-1.70898-4.19922-4.15039-4.19922-2.39258 0-4.05273 1.70898-4.05273 4.19922v14.3555h-14.3555c-2.49023 0-4.15039 1.70898-4.15039 4.15039Z"/>
  </g>
  <g transform="matrix(0.2 0 0 0.2 304.924 1933)">
   <path d="m74.8535 28.3203c35.1074 0 63.623-28.4668 63.623-63.5742s-28.5156-63.623-63.623-63.623-63.5742 28.5156-63.5742 63.623 28.4668 63.5742 63.5742 63.5742Zm0-9.08203c-30.127 0-54.4922-24.3652-54.4922-54.4922s24.3652-54.4922 54.4922-54.4922 54.4922 24.3652 54.4922 54.4922-24.3652 54.4922-54.4922 54.4922Zm-28.8574-54.4922c0 2.58789 1.85547 4.39453 4.58984 4.39453h19.7266v19.7754c0 2.68555 1.85547 4.58984 4.44336 4.58984 2.68555 0 4.54102-1.85547 4.54102-4.58984v-19.7754h19.7754c2.68555 0 4.58984-1.80664 4.58984-4.39453 0-2.73438-1.85547-4.58984-4.58984-4.58984h-19.7754v-19.7266c0-2.73438-1.85547-4.63867-4.54102-4.63867-2.58789 0-4.44336 1.9043-4.44336 4.63867v19.7266h-19.7266c-2.73438 0-4.58984 1.85547-4.58984 4.58984Z"/>
  </g>
  <text style="stroke:none;fill:black;font-family:sans-serif;font-size:13;font-weight:bold;" transform="matrix(1 0 0 1 263 1953)">Design Variations</text>
  <text style="stroke:none;fill:black;font-family:sans-serif;font-size:13;" transform="matrix(1 0 0 1 263 1971)">Symbols are supported in up to nine weights and three scales.</text>
  <text style="stroke:none;fill:black;font-family:sans-serif;font-size:13;" transform="matrix(1 0 0 1 263 1989)">For optimal layout with text and other symbols, vertically align</text>
  <text style="stroke:none;fill:black;font-family:sans-serif;font-size:13;" transform="matrix(1 0 0 1 263 2007)">symbols with the adjacent text.</text>
  <line style="fill:none;stroke:#00AEEF;stroke-width:0.5;opacity:1.0;" x1="776" x2="776" y1="1919" y2="1933"/>
  <g transform="matrix(0.2 0 0 0.2 776 1933)">
   <path d="m16.5527 0.78125c2.58789 0 3.85742-0.976562 4.78516-3.71094l6.29883-17.2363h28.8086l6.29883 17.2363c0.927734 2.73438 2.19727 3.71094 4.73633 3.71094 2.58789 0 4.24805-1.5625 4.24805-4.00391 0-0.830078-0.146484-1.61133-0.537109-2.63672l-22.9004-60.9863c-1.12305-2.97852-3.125-4.49219-6.25-4.49219-3.02734 0-5.07812 1.46484-6.15234 4.44336l-22.9004 61.084c-0.390625 1.02539-0.537109 1.80664-0.537109 2.63672 0 2.44141 1.5625 3.95508 4.10156 3.95508Zm13.4766-28.3691 11.8652-32.8613h0.244141l11.8652 32.8613Z"/>
  </g>
  <line style="fill:none;stroke:#00AEEF;stroke-width:0.5;opacity:1.0;" x1="792.836" x2="792.836" y1="1919" y2="1933"/>
  <text style="stroke:none;fill:black;font-family:sans-serif;font-size:13;font-weight:bold;" transform="matrix(1 0 0 1 776 1953)">Margins</text>
  <text style="stroke:none;fill:black;font-family:sans-serif;font-size:13;" transform="matrix(1 0 0 1 776 1971)">Leading and trailing margins on the left and right side of each symbol</text>
  <text style="stroke:none;fill:black;font-family:sans-serif;font-size:13;" transform="matrix(1 0 0 1 776 1989)">can be adjusted by modifying the x-location of the margin guidelines.</text>
  <text style="stroke:none;fill:black;font-family:sans-serif;font-size:13;" transform="matrix(1 0 0 1 776 2007)">Modifications are automatically applied proportionally to all</text>
  <text style="stroke:none;fill:black;font-family:sans-serif;font-size:13;" transform="matrix(1 0 0 1 776 2025)">scales and weights.</text>
  <g transform="matrix(0.2 0 0 0.2 1289 1933)">
   <path d="m14.209 9.32617 8.49609 8.54492c4.29688 4.3457 9.22852 4.05273 13.8672-1.07422l53.4668-58.9355-4.83398-4.88281-53.0762 58.3984c-1.75781 2.00195-3.41797 2.49023-5.76172 0.146484l-5.85938-5.81055c-2.34375-2.29492-1.80664-4.00391 0.195312-5.81055l57.373-54.0039-4.88281-4.83398-57.959 54.4434c-4.93164 4.58984-5.32227 9.47266-1.02539 13.8184Zm32.0801-90.9668c-2.09961 2.05078-2.24609 4.93164-1.07422 6.88477 1.17188 1.80664 3.4668 2.97852 6.68945 2.14844 7.32422-1.70898 14.9414-2.00195 22.0703 2.68555l-2.92969 7.27539c-1.70898 4.15039-0.830078 7.08008 1.85547 9.81445l11.4746 11.5723c2.44141 2.44141 4.49219 2.53906 7.32422 2.05078l5.32227-0.976562 3.32031 3.36914-0.195312 2.7832c-0.195312 2.49023 0.439453 4.39453 2.88086 6.78711l3.80859 3.71094c2.39258 2.39258 5.46875 2.53906 7.8125 0.195312l14.5508-14.5996c2.34375-2.34375 2.24609-5.32227-0.146484-7.71484l-3.85742-3.80859c-2.39258-2.39258-4.24805-3.17383-6.64062-2.97852l-2.88086 0.244141-3.22266-3.17383 1.2207-5.61523c0.634766-2.83203-0.146484-5.0293-3.07617-7.95898l-10.9863-10.9375c-16.6992-16.6016-38.8672-16.2109-53.3203-1.75781Zm7.4707 1.85547c12.1582-8.88672 28.6133-7.37305 39.7461 3.75977l12.1582 12.0605c1.17188 1.17188 1.36719 2.09961 1.02539 3.80859l-1.61133 7.42188 7.51953 7.42188 4.93164-0.292969c1.26953-0.0488281 1.66016 0.0488281 2.63672 1.02539l2.88086 2.88086-12.207 12.207-2.88086-2.88086c-0.976562-0.976562-1.12305-1.36719-1.07422-2.68555l0.341797-4.88281-7.4707-7.42188-7.61719 1.26953c-1.61133 0.341797-2.34375 0.195312-3.56445-0.976562l-10.0098-10.0098c-1.26953-1.17188-1.41602-2.00195-0.634766-3.85742l4.39453-10.4492c-7.8125-7.27539-17.9688-10.4004-28.125-7.42188-0.78125 0.195312-1.07422-0.439453-0.439453-0.976562Z"/>
  </g>
  <text style="stroke:none;fill:black;font-family:sans-serif;font-size:13;font-weight:bold;" transform="matrix(1 0 0 1 1289 1953)">Exporting</text>
  <text style="stroke:none;fill:black;font-family:sans-serif;font-size:13;" transform="matrix(1 0 0 1 1289 1971)">Symbols should be outlined when exporting to ensure the</text>
  <text style="stroke:none;fill:black;font-family:sans-serif;font-size:13;" transform="matrix(1 0 0 1 1289 1989)">design is preserved when submitting to Xcode.</text>
  <text id="template-version" style="stroke:none;fill:black;font-family:sans-serif;font-size:13;text-anchor:end;" transform="matrix(1 0 0 1 3036 1933)">Template v.6.0</text>
  <text style="stroke:none;fill:black;font-family:sans-serif;font-size:13;text-anchor:end;" transform="matrix(1 0 0 1 3036 1951)">Requires Xcode 16 or greater</text>
  <text id="descriptive-name" style="stroke:none;fill:black;font-family:sans-serif;font-size:13;text-anchor:end;" transform="matrix(1 0 0 1 3036 1969)">Generated from corn.symbols</text>
  <text style="stroke:none;fill:black;font-family:sans-serif;font-size:13;text-anchor:end;" transform="matrix(1 0 0 1 3036 1987)">Typeset at 100.0 points</text>
  <text style="stroke:none;fill:black;font-family:sans-serif;font-size:13;" transform="matrix(1 0 0 1 263 726)">Small</text>
  <text style="stroke:none;fill:black;font-family:sans-serif;font-size:13;" transform="matrix(1 0 0 1 263 1156)">Medium</text>
  <text style="stroke:none;fill:black;font-family:sans-serif;font-size:13;" transform="matrix(1 0 0 1 263 1586)">Large</text>
 </g>
 <g id="Guides">
  <g id="H-reference" style="fill:#27AAE1;stroke:none;" transform="matrix(1 0 0 1 339 696)">
   <path d="M0.993654 0L3.63775 0L29.3281-67.1323L30.0303-67.1323L30.0303-70.459L28.1226-70.459ZM11.6885-24.4799L46.9815-24.4799L46.2315-26.7285L12.4385-26.7285ZM55.1196 0L57.7637 0L30.6382-70.459L29.4326-70.459L29.4326-67.1323Z"/>
  </g>
  <line id="Baseline-S" style="fill:none;stroke:#27AAE1;opacity:1;stroke-width:0.5;" x1="263" x2="3036" y1="696" y2="696"/>
  <line id="Capline-S" style="fill:none;stroke:#27AAE1;opacity:1;stroke-width:0.5;" x1="263" x2="3036" y1="625.541" y2="625.541"/>
  <g id="H-reference" style="fill:#27AAE1;stroke:none;" transform="matrix(1 0 0 1 339 1126)">
   <path d="M0.993654 0L3.63775 0L29.3281-67.1323L30.0303-67.1323L30.0303-70.459L28.1226-70.459ZM11.6885-24.4799L46.9815-24.4799L46.2315-26.7285L12.4385-26.7285ZM55.1196 0L57.7637 0L30.6382-70.459L29.4326-70.459L29.4326-67.1323Z"/>
  </g>
  <line id="Baseline-M" style="fill:none;stroke:#27AAE1;opacity:1;stroke-width:0.5;" x1="263" x2="3036" y1="1126" y2="1126"/>
  <line id="Capline-M" style="fill:none;stroke:#27AAE1;opacity:1;stroke-width:0.5;" x1="263" x2="3036" y1="1055.54" y2="1055.54"/>
  <g id="H-reference" style="fill:#27AAE1;stroke:none;" transform="matrix(1 0 0 1 339 1556)">
   <path d="M0.993654 0L3.63775 0L29.3281-67.1323L30.0303-67.1323L30.0303-70.459L28.1226-70.459ZM11.6885-24.4799L46.9815-24.4799L46.2315-26.7285L12.4385-26.7285ZM55.1196 0L57.7637 0L30.6382-70.459L29.4326-70.459L29.4326-67.1323Z"/>
  </g>
  <line id="Baseline-L" style="fill:none;stroke:#27AAE1;opacity:1;stroke-width:0.5;" x1="263" x2="3036" y1="1556" y2="1556"/>
  <line id="Capline-L" style="fill:none;stroke:#27AAE1;opacity:1;stroke-width:0.5;" x1="263" x2="3036" y1="1485.54" y2="1485.54"/>
  <line id="right-margin-Black-S" style="fill:none;stroke:#00AEEF;stroke-width:0.5;opacity:1.0;" x1="2978.69" x2="2978.69" y1="600.785" y2="720.121"/>
  <line id="left-margin-Black-S" style="fill:none;stroke:#00AEEF;stroke-width:0.5;opacity:1.0;" x1="2888.11" x2="2888.11" y1="600.785" y2="720.121"/>
  <line id="right-margin-Regular-S" style="fill:none;stroke:#00AEEF;stroke-width:0.5;opacity:1.0;" x1="1495.14" x2="1495.14" y1="600.785" y2="720.121"/>
  <line id="left-margin-Regular-S" style="fill:none;stroke:#00AEEF;stroke-width:0.5;opacity:1.0;" x1="1404.55" x2="1404.55" y1="600.785" y2="720.121"/>
  <line id="right-margin-Ultralight-S" style="fill:none;stroke:#00AEEF;stroke-width:0.5;opacity:1.0;" x1="605.005" x2="605.005" y1="600.785" y2="720.121"/>
  <line id="left-margin-Ultralight-S" style="fill:none;stroke:#00AEEF;stroke-width:0.5;opacity:1.0;" x1="514.417" x2="514.417" y1="600.785" y2="720.121"/>
 </g>
 <g id="Symbols">
  <g id="Black-S" transform="matrix(1.00656 0 0 1.00656 2888.11 696)">
   <path class="SFSymbolsPreviewWireframe" d="M79.95-58.495C79.842-60.019 79.549-61.498 79.01-62.878C78.474-64.257 77.685-65.539 76.61-66.613C75.658-67.567 74.537-68.297 73.334-68.824C71.221-69.745 68.86-70.064 66.437-69.99C62.799-69.875 58.987-68.878 55.507-67.389C53.768-66.643 52.114-65.769 50.61-64.806C49.109-63.841 47.757-62.786 46.625-61.655L41.119-56.151C39.627-58.288 37.763-60.149 35.731-61.599C35.731-61.599 33.001-54.193 29.103-50.293C25.204-46.395 29.492-50.684 19.356-40.547C8.616-29.806 12.572-16.474 15.294-10.364L10-5.068L15.068 0L20.362-5.295C26.473-2.573 39.806 1.384 50.545-9.356C60.683-19.493 56.394-15.205 60.292-19.103C64.191-23.002 71.599-25.732 71.599-25.732C70.186-28.029 68.35-29.863 66.263-31.234L71.655-36.626C73.377-38.35 74.93-40.583 76.24-43.088C77.221-44.967 78.06-46.997 78.698-49.08C79.653-52.206 80.165-55.447 79.95-58.495ZM71.913-63.705C72.546-63.962 73.105-64.127 73.529-64.207C73.651-64.102 73.769-63.996 73.882-63.883C73.996-63.769 74.101-63.648 74.204-63.526C74.173-63.352 74.128-63.158 74.064-62.943C73.79-61.987 73.211-60.699 72.422-59.28C71.482-57.584 70.242-55.686 68.874-53.799L63.798-58.875C64.982-59.733 66.171-60.544 67.313-61.257C68.288-61.869 69.227-62.412 70.098-62.862C70.749-63.198 71.362-63.484 71.913-63.705ZM67.197-51.577C65.571-49.504 63.859-47.543 62.298-45.983L61.501-45.185L55.185-51.502L55.982-52.3C57.542-53.861 59.503-55.571 61.576-57.197L67.197-51.577ZM60.209-65.008C62.979-65.86 65.807-66.277 68.221-66.102C68.828-66.059 69.41-65.978 69.959-65.862C69.24-65.531 68.488-65.142 67.708-64.703C65.836-63.647 63.815-62.309 61.826-60.847L58.313-64.359C58.94-64.595 59.572-64.814 60.209-65.008ZM49.355-58.927C50.709-60.285 52.653-61.662 54.874-62.819C55.111-62.943 55.349-63.063 55.591-63.181L59.613-59.161C57.56-57.539 55.625-55.841 54.033-54.248L53.236-53.451L48.557-58.13L49.355-58.927ZM46.608-56.181L51.286-51.502L45.829-46.044L44.561-47.31C44.36-49.17 43.849-50.971 43.095-52.668L46.608-56.181ZM27.152-17.155C27.152-17.155 27.543-21.443 30.662-24.563L34.561-20.664C31.441-17.545 27.152-17.155 27.152-17.155ZM36.51-22.613L32.612-26.511C33.163-27.063 34.103-28.003 38.459-32.36L42.359-28.461C38.002-24.104 37.061-23.163 36.51-22.613ZM49.406-33.09C47.631-32.44 45.938-31.516 44.403-30.314L40.339-34.378C41.865-36.208 42.944-38.082 43.642-39.959L45.828-42.145L52.143-35.83L49.406-33.09ZM47.777-44.094L53.236-49.553L59.551-43.237L54.093-37.778L47.777-44.094ZM62.638-33.068C61.047-33.661 59.379-34.033 57.691-34.181L56.043-35.83L61.501-41.287L66.179-36.609L62.638-33.068ZM71.557-42.695C70.719-41.387 69.816-40.245 68.926-39.356L68.129-38.558L63.451-43.237L64.247-44.033C65.838-45.627 67.538-47.563 69.16-49.613L73.178-45.596C72.676-44.572 72.133-43.594 71.557-42.695ZM74.358-48.314L70.847-51.826C71.836-53.171 72.767-54.532 73.594-55.85C74.238-56.877 74.816-57.879 75.31-58.831C75.508-59.216 75.691-59.591 75.86-59.957C76.079-58.925 76.17-57.78 76.132-56.557C76.055-53.961 75.396-51.056 74.358-48.314Z"/>
  </g>
  <g id="Regular-S" transform="matrix(1.00656 0 0 1.00656 1404.55 696)">
   <path class="SFSymbolsPreviewWireframe" d="M79.95-58.495C79.842-60.019 79.549-61.498 79.01-62.878C78.474-64.257 77.685-65.539 76.61-66.613C75.658-67.567 74.537-68.297 73.334-68.824C71.221-69.745 68.86-70.064 66.437-69.99C62.799-69.875 58.987-68.878 55.507-67.389C53.768-66.643 52.114-65.769 50.61-64.806C49.109-63.841 47.757-62.786 46.625-61.655L41.119-56.151C39.627-58.288 37.763-60.149 35.731-61.599C35.731-61.599 33.001-54.193 29.103-50.293C25.204-46.395 29.492-50.684 19.356-40.547C8.616-29.806 12.572-16.474 15.294-10.364L10-5.068L15.068 0L20.362-5.295C26.473-2.573 39.806 1.384 50.545-9.356C60.683-19.493 56.394-15.205 60.292-19.103C64.191-23.002 71.599-25.732 71.599-25.732C70.186-28.029 68.35-29.863 66.263-31.234L71.655-36.626C73.376-38.35 74.93-40.583 76.24-43.088C77.221-44.967 78.06-46.997 78.698-49.08C79.653-52.206 80.165-55.447 79.95-58.495ZM71.913-63.705C72.546-63.962 73.105-64.127 73.529-64.207C73.651-64.102 73.769-63.996 73.882-63.883C73.996-63.769 74.101-63.648 74.204-63.526C74.173-63.352 74.128-63.158 74.064-62.943C73.79-61.987 73.211-60.699 72.422-59.28C71.482-57.584 70.242-55.686 68.874-53.799L63.798-58.875C64.982-59.733 66.171-60.544 67.313-61.257C68.288-61.869 69.227-62.412 70.098-62.862C70.749-63.198 71.361-63.484 71.913-63.705ZM67.197-51.577C65.571-49.504 63.859-47.543 62.298-45.983L61.501-45.185L55.185-51.502L55.982-52.3C57.542-53.861 59.503-55.571 61.576-57.197L67.197-51.577ZM60.209-65.008C62.979-65.86 65.807-66.277 68.221-66.102C68.828-66.059 69.41-65.978 69.959-65.862C69.24-65.531 68.488-65.142 67.708-64.703C65.836-63.647 63.815-62.309 61.826-60.847L58.313-64.359C58.94-64.595 59.572-64.814 60.209-65.008ZM49.355-58.927C50.709-60.285 52.653-61.662 54.874-62.819C55.111-62.943 55.349-63.063 55.591-63.181L59.613-59.161C57.56-57.539 55.625-55.841 54.033-54.248L53.235-53.451L48.557-58.13L49.355-58.927ZM46.608-56.181L51.286-51.502L45.828-46.044L44.561-47.31C44.36-49.17 43.849-50.971 43.095-52.668L46.608-56.181ZM27.152-17.155C27.152-17.155 27.543-21.443 30.662-24.563L34.561-20.664C31.441-17.545 27.152-17.155 27.152-17.155ZM36.51-22.613L32.612-26.511C33.163-27.063 34.103-28.003 38.459-32.36L42.359-28.461C38.002-24.104 37.061-23.163 36.51-22.613ZM49.406-33.09C47.631-32.44 45.938-31.516 44.403-30.314L40.339-34.378C41.865-36.208 42.944-38.082 43.642-39.959L45.828-42.145L52.143-35.83L49.406-33.09ZM47.777-44.094L53.235-49.553L59.551-43.237L54.093-37.778L47.777-44.094ZM62.638-33.068C61.047-33.661 59.379-34.033 57.691-34.181L56.043-35.83L61.501-41.287L66.179-36.609L62.638-33.068ZM71.557-42.695C70.719-41.387 69.816-40.245 68.926-39.356L68.129-38.558L63.451-43.237L64.247-44.033C65.838-45.627 67.538-47.563 69.16-49.613L73.178-45.596C72.676-44.572 72.133-43.594 71.557-42.695ZM74.358-48.314L70.847-51.826C71.836-53.171 72.767-54.532 73.594-55.85C74.238-56.877 74.816-57.879 75.31-58.831C75.508-59.216 75.691-59.591 75.86-59.957C76.079-58.925 76.17-57.78 76.132-56.557C76.055-53.961 75.396-51.056 74.358-48.314Z"/>
  </g>
  <g id="Ultralight-S" transform="matrix(1.00656 0 0 1.00656 514.417 696)">
   <path class="SFSymbolsPreviewWireframe" d="M79.95-58.495C79.842-60.019 79.549-61.498 79.01-62.878C78.474-64.257 77.685-65.539 76.61-66.613C75.658-67.567 74.537-68.297 73.334-68.824C71.221-69.745 68.86-70.064 66.437-69.99C62.799-69.875 58.987-68.878 55.507-67.389C53.768-66.643 52.114-65.769 50.61-64.806C49.109-63.841 47.757-62.786 46.625-61.655L41.119-56.151C39.627-58.288 37.763-60.149 35.731-61.599C35.731-61.599 33.001-54.193 29.103-50.293C25.204-46.395 29.492-50.684 19.356-40.547C8.616-29.806 12.572-16.474 15.294-10.364L10-5.068L15.068 0L20.362-5.295C26.473-2.573 39.806 1.384 50.545-9.356C60.683-19.493 56.394-15.205 60.292-19.103C64.191-23.002 71.599-25.732 71.599-25.732C70.186-28.029 68.35-29.863 66.263-31.234L71.655-36.626C73.376-38.35 74.93-40.583 76.24-43.088C77.221-44.967 78.06-46.997 78.698-49.08C79.653-52.206 80.165-55.447 79.95-58.495ZM71.913-63.705C72.546-63.962 73.105-64.127 73.529-64.207C73.651-64.102 73.769-63.996 73.882-63.883C73.996-63.769 74.101-63.648 74.204-63.526C74.173-63.352 74.128-63.158 74.064-62.943C73.79-61.987 73.211-60.699 72.422-59.28C71.482-57.584 70.242-55.686 68.874-53.799L63.798-58.875C64.982-59.733 66.171-60.544 67.313-61.257C68.288-61.869 69.227-62.412 70.098-62.862C70.749-63.198 71.361-63.484 71.913-63.705ZM67.197-51.577C65.571-49.504 63.859-47.543 62.298-45.983L61.501-45.185L55.185-51.502L55.982-52.3C57.542-53.861 59.503-55.571 61.576-57.197L67.197-51.577ZM60.209-65.008C62.979-65.86 65.807-66.277 68.221-66.102C68.828-66.059 69.41-65.978 69.959-65.862C69.24-65.531 68.488-65.142 67.708-64.703C65.836-63.647 63.815-62.309 61.826-60.847L58.313-64.359C58.94-64.595 59.572-64.814 60.209-65.008ZM49.355-58.927C50.709-60.285 52.653-61.662 54.874-62.819C55.111-62.943 55.349-63.063 55.591-63.181L59.613-59.161C57.56-57.539 55.625-55.841 54.033-54.248L53.235-53.451L48.557-58.13L49.355-58.927ZM46.608-56.181L51.286-51.502L45.828-46.044L44.561-47.31C44.36-49.17 43.849-50.971 43.095-52.668L46.608-56.181ZM27.152-17.155C27.152-17.155 27.543-21.443 30.662-24.563L34.561-20.664C31.441-17.545 27.152-17.155 27.152-17.155ZM36.51-22.613L32.612-26.511C33.163-27.063 34.103-28.003 38.459-32.36L42.359-28.461C38.002-24.104 37.061-23.163 36.51-22.613ZM49.406-33.09C47.631-32.44 45.938-31.516 44.403-30.314L40.339-34.378C41.865-36.208 42.944-38.082 43.642-39.959L45.828-42.145L52.143-35.83L49.406-33.09ZM47.777-44.094L53.235-49.553L59.551-43.237L54.093-37.778L47.777-44.094ZM62.638-33.068C61.047-33.661 59.379-34.033 57.691-34.181L56.043-35.83L61.501-41.287L66.179-36.609L62.638-33.068ZM71.557-42.695C70.719-41.387 69.816-40.245 68.926-39.356L68.129-38.558L63.451-43.237L64.247-44.033C65.838-45.627 67.538-47.563 69.16-49.613L73.178-45.596C72.676-44.572 72.133-43.594 71.557-42.695ZM74.358-48.314L70.847-51.826C71.836-53.171 72.767-54.532 73.594-55.85C74.238-56.877 74.816-57.879 75.31-58.831C75.508-59.216 75.691-59.591 75.86-59.957C76.079-58.925 76.17-57.78 76.132-56.557C76.055-53.961 75.396-51.056 74.358-48.314Z"/>
  </g>
 </g>
</svg>
