<?xml version="1.0" encoding="UTF-8"?>
<svg xmlns="http://www.w3.org/2000/svg" id="icon" viewBox="0 0 1000 1000">
  <defs>
    <style>.cls-1{fill:none;}</style>
  </defs>
  <polygon points="379.24 740 449.24 740 449.24 561.14 635.84 561.14 635.84 496.14 449.24 496.14 449.24 371 659.84 371 659.84 306 379.24 306 379.24 740"></polygon>
  <path d="M500,85c-229.2,0-415,185.8-415,415s185.8,415,415,415,415-185.8,415-415S729.2,85,500,85ZM500,845c-190.54,0-345-154.46-345-345S309.46,155,500,155s345,154.46,345,345-154.46,345-345,345Z"></path>
  <rect class="cls-1" width="1000" height="1000"></rect>
</svg>
