<?xml version="1.0" encoding="UTF-8"?>
<svg xmlns="http://www.w3.org/2000/svg" id="icon" viewBox="0 0 1000 1000">
  <defs>
    <style>.cls-1{fill:none;}</style>
  </defs>
  <rect x="180" y="842" width="640" height="58"></rect>
  <rect x="180" y="730" width="640" height="58"></rect>
  <path d="M423.56,545.94h36.12v-46.69h32.99v-31.09h-32.99v-132.16h-30.35l-98.03,129.54v33.71h92.26v46.69ZM367.72,468.16l55.84-78.26v78.26h-55.84Z"></path>
  <path d="M594.76,549.6c29.12,0,78.02-13.27,78.02-109.46s-50.4-107.8-78.02-107.8-78.02,11.61-78.02,107.8,48.89,109.46,78.02,109.46ZM594.76,363.43c11.28,0,41.1,2.69,41.1,76.71s-29.52,77-41.1,77-41.1-2.98-41.1-77,29.82-76.71,41.1-76.71Z"></path>
  <path d="M817.15,676l108.17-570h-61.07l-19.16,102.94h-1.68c-4.78-4.8-10.32-13.07-15.4-19.54-15.43-19.68-38.26-52.91-81.35-52.91s-67.28,29.92-83.84,51.41c-16.28,21.12-23.9,32.09-39.49,32.09s-23.21-10.98-39.49-32.09c-16.56-21.48-39.24-51.41-83.84-51.41s-67.28,29.92-83.84,51.41c-16.28,21.12-23.9,32.09-39.49,32.09s-23.22-10.98-39.49-32.09c-16.56-21.48-39.24-51.41-83.84-51.41s-65.92,33.23-81.35,52.91c-5.07,6.47-10.62,14.74-15.39,19.54h-1.69l-19.16-102.94h-61.07l108.17,570h634.29ZM211.22,223.2c16.58-20.88,26.53-34.2,42.12-34.2s23.22,10.98,39.49,32.09c16.56,21.48,39.24,51.41,83.85,51.41s67.28-29.92,83.84-51.41c16.28-21.12,23.9-32.09,39.49-32.09s23.21,10.98,39.49,32.09c16.56,21.48,39.24,51.41,83.84,51.41s67.28-29.92,83.85-51.41c16.28-21.12,23.9-32.09,39.49-32.09s25.54,13.32,42.12,34.2c16.49,20.77,28.39,35.74,45.62,43.12l-65.45,351.69H231.04l-65.45-351.68c17.23-7.37,29.14-22.35,45.63-43.12Z"></path>
  <rect class="cls-1" x="0" width="1000" height="1000"></rect>
</svg>
