<?xml version="1.0" encoding="UTF-8"?>
<!--Generator: Apple Native CoreSVG 341-->
<!DOCTYPE svg
PUBLIC "-//W3C//DTD SVG 1.1//EN"
       "http://www.w3.org/Graphics/SVG/1.1/DTD/svg11.dtd">
<svg version="1.1" xmlns="http://www.w3.org/2000/svg" xmlns:xlink="http://www.w3.org/1999/xlink" viewBox="0 0 3300 2200">
 <!--glyph: "", point size: 100.0, font version: "20.0d10e1", template writer version: "138.0.0"-->
 <style>.SFSymbolsPreviewWireframe {fill:none;opacity:1.0;stroke:black;stroke-width:0.5}
</style>
 <g id="Notes">
  <rect height="2200" id="artboard" style="fill:white;opacity:1" width="3300" x="0" y="0"/>
  <line style="fill:none;stroke:black;opacity:1;stroke-width:0.5;" x1="263" x2="3036" y1="292" y2="292"/>
  <text style="stroke:none;fill:black;font-family:sans-serif;font-size:13;font-weight:bold;" transform="matrix(1 0 0 1 263 322)">Weight/Scale Variations</text>
  <text style="stroke:none;fill:black;font-family:sans-serif;font-size:13;text-anchor:middle;" transform="matrix(1 0 0 1 559.711 322)">Ultralight</text>
  <text style="stroke:none;fill:black;font-family:sans-serif;font-size:13;text-anchor:middle;" transform="matrix(1 0 0 1 856.422 322)">Thin</text>
  <text style="stroke:none;fill:black;font-family:sans-serif;font-size:13;text-anchor:middle;" transform="matrix(1 0 0 1 1153.13 322)">Light</text>
  <text style="stroke:none;fill:black;font-family:sans-serif;font-size:13;text-anchor:middle;" transform="matrix(1 0 0 1 1449.84 322)">Regular</text>
  <text style="stroke:none;fill:black;font-family:sans-serif;font-size:13;text-anchor:middle;" transform="matrix(1 0 0 1 1746.56 322)">Medium</text>
  <text style="stroke:none;fill:black;font-family:sans-serif;font-size:13;text-anchor:middle;" transform="matrix(1 0 0 1 2043.27 322)">Semibold</text>
  <text style="stroke:none;fill:black;font-family:sans-serif;font-size:13;text-anchor:middle;" transform="matrix(1 0 0 1 2339.98 322)">Bold</text>
  <text style="stroke:none;fill:black;font-family:sans-serif;font-size:13;text-anchor:middle;" transform="matrix(1 0 0 1 2636.69 322)">Heavy</text>
  <text style="stroke:none;fill:black;font-family:sans-serif;font-size:13;text-anchor:middle;" transform="matrix(1 0 0 1 2933.4 322)">Black</text>
  <line style="fill:none;stroke:black;opacity:1;stroke-width:0.5;" x1="263" x2="3036" y1="1903" y2="1903"/>
  <g transform="matrix(0.2 0 0 0.2 263 1933)">
   <path d="m46.2402 4.15039c21.7773 0 39.4531-17.627 39.4531-39.4043s-17.6758-39.4043-39.4531-39.4043c-21.7285 0-39.4043 17.627-39.4043 39.4043s17.6758 39.4043 39.4043 39.4043Zm0-7.42188c-17.6758 0-31.9336-14.3066-31.9336-31.9824s14.2578-31.9824 31.9336-31.9824 31.9824 14.3066 31.9824 31.9824-14.3066 31.9824-31.9824 31.9824Zm-17.9688-31.9824c0 2.14844 1.51367 3.61328 3.75977 3.61328h10.498v10.5957c0 2.19727 1.46484 3.71094 3.61328 3.71094 2.24609 0 3.71094-1.51367 3.71094-3.71094v-10.5957h10.5957c2.19727 0 3.71094-1.46484 3.71094-3.61328 0-2.19727-1.51367-3.71094-3.71094-3.71094h-10.5957v-10.5469c0-2.24609-1.46484-3.75977-3.71094-3.75977-2.14844 0-3.61328 1.51367-3.61328 3.75977v10.5469h-10.498c-2.24609 0-3.75977 1.51367-3.75977 3.71094Z"/>
  </g>
  <g transform="matrix(0.2 0 0 0.2 281.506 1933)">
   <path d="m58.5449 14.5508c27.4902 0 49.8047-22.3145 49.8047-49.8047s-22.3145-49.8047-49.8047-49.8047-49.8047 22.3145-49.8047 49.8047 22.3145 49.8047 49.8047 49.8047Zm0-8.30078c-22.9492 0-41.5039-18.5547-41.5039-41.5039s18.5547-41.5039 41.5039-41.5039 41.5039 18.5547 41.5039 41.5039-18.5547 41.5039-41.5039 41.5039Zm-22.6562-41.5039c0 2.39258 1.66016 4.00391 4.15039 4.00391h14.3555v14.4043c0 2.44141 1.66016 4.15039 4.05273 4.15039 2.44141 0 4.15039-1.66016 4.15039-4.15039v-14.4043h14.4043c2.44141 0 4.15039-1.61133 4.15039-4.00391 0-2.44141-1.70898-4.15039-4.15039-4.15039h-14.4043v-14.3555c0-2.49023-1.70898-4.19922-4.15039-4.19922-2.39258 0-4.05273 1.70898-4.05273 4.19922v14.3555h-14.3555c-2.49023 0-4.15039 1.70898-4.15039 4.15039Z"/>
  </g>
  <g transform="matrix(0.2 0 0 0.2 304.924 1933)">
   <path d="m74.8535 28.3203c35.1074 0 63.623-28.4668 63.623-63.5742s-28.5156-63.623-63.623-63.623-63.5742 28.5156-63.5742 63.623 28.4668 63.5742 63.5742 63.5742Zm0-9.08203c-30.127 0-54.4922-24.3652-54.4922-54.4922s24.3652-54.4922 54.4922-54.4922 54.4922 24.3652 54.4922 54.4922-24.3652 54.4922-54.4922 54.4922Zm-28.8574-54.4922c0 2.58789 1.85547 4.39453 4.58984 4.39453h19.7266v19.7754c0 2.68555 1.85547 4.58984 4.44336 4.58984 2.68555 0 4.54102-1.85547 4.54102-4.58984v-19.7754h19.7754c2.68555 0 4.58984-1.80664 4.58984-4.39453 0-2.73438-1.85547-4.58984-4.58984-4.58984h-19.7754v-19.7266c0-2.73438-1.85547-4.63867-4.54102-4.63867-2.58789 0-4.44336 1.9043-4.44336 4.63867v19.7266h-19.7266c-2.73438 0-4.58984 1.85547-4.58984 4.58984Z"/>
  </g>
  <text style="stroke:none;fill:black;font-family:sans-serif;font-size:13;font-weight:bold;" transform="matrix(1 0 0 1 263 1953)">Design Variations</text>
  <text style="stroke:none;fill:black;font-family:sans-serif;font-size:13;" transform="matrix(1 0 0 1 263 1971)">Symbols are supported in up to nine weights and three scales.</text>
  <text style="stroke:none;fill:black;font-family:sans-serif;font-size:13;" transform="matrix(1 0 0 1 263 1989)">For optimal layout with text and other symbols, vertically align</text>
  <text style="stroke:none;fill:black;font-family:sans-serif;font-size:13;" transform="matrix(1 0 0 1 263 2007)">symbols with the adjacent text.</text>
  <line style="fill:none;stroke:#00AEEF;stroke-width:0.5;opacity:1.0;" x1="776" x2="776" y1="1919" y2="1933"/>
  <g transform="matrix(0.2 0 0 0.2 776 1933)">
   <path d="m16.5527 0.78125c2.58789 0 3.85742-0.976562 4.78516-3.71094l6.29883-17.2363h28.8086l6.29883 17.2363c0.927734 2.73438 2.19727 3.71094 4.73633 3.71094 2.58789 0 4.24805-1.5625 4.24805-4.00391 0-0.830078-0.146484-1.61133-0.537109-2.63672l-22.9004-60.9863c-1.12305-2.97852-3.125-4.49219-6.25-4.49219-3.02734 0-5.07812 1.46484-6.15234 4.44336l-22.9004 61.084c-0.390625 1.02539-0.537109 1.80664-0.537109 2.63672 0 2.44141 1.5625 3.95508 4.10156 3.95508Zm13.4766-28.3691 11.8652-32.8613h0.244141l11.8652 32.8613Z"/>
  </g>
  <line style="fill:none;stroke:#00AEEF;stroke-width:0.5;opacity:1.0;" x1="792.836" x2="792.836" y1="1919" y2="1933"/>
  <text style="stroke:none;fill:black;font-family:sans-serif;font-size:13;font-weight:bold;" transform="matrix(1 0 0 1 776 1953)">Margins</text>
  <text style="stroke:none;fill:black;font-family:sans-serif;font-size:13;" transform="matrix(1 0 0 1 776 1971)">Leading and trailing margins on the left and right side of each symbol</text>
  <text style="stroke:none;fill:black;font-family:sans-serif;font-size:13;" transform="matrix(1 0 0 1 776 1989)">can be adjusted by modifying the x-location of the margin guidelines.</text>
  <text style="stroke:none;fill:black;font-family:sans-serif;font-size:13;" transform="matrix(1 0 0 1 776 2007)">Modifications are automatically applied proportionally to all</text>
  <text style="stroke:none;fill:black;font-family:sans-serif;font-size:13;" transform="matrix(1 0 0 1 776 2025)">scales and weights.</text>
  <g transform="matrix(0.2 0 0 0.2 1289 1933)">
   <path d="m14.209 9.32617 8.49609 8.54492c4.29688 4.3457 9.22852 4.05273 13.8672-1.07422l53.4668-58.9355-4.83398-4.88281-53.0762 58.3984c-1.75781 2.00195-3.41797 2.49023-5.76172 0.146484l-5.85938-5.81055c-2.34375-2.29492-1.80664-4.00391 0.195312-5.81055l57.373-54.0039-4.88281-4.83398-57.959 54.4434c-4.93164 4.58984-5.32227 9.47266-1.02539 13.8184Zm32.0801-90.9668c-2.09961 2.05078-2.24609 4.93164-1.07422 6.88477 1.17188 1.80664 3.4668 2.97852 6.68945 2.14844 7.32422-1.70898 14.9414-2.00195 22.0703 2.68555l-2.92969 7.27539c-1.70898 4.15039-0.830078 7.08008 1.85547 9.81445l11.4746 11.5723c2.44141 2.44141 4.49219 2.53906 7.32422 2.05078l5.32227-0.976562 3.32031 3.36914-0.195312 2.7832c-0.195312 2.49023 0.439453 4.39453 2.88086 6.78711l3.80859 3.71094c2.39258 2.39258 5.46875 2.53906 7.8125 0.195312l14.5508-14.5996c2.34375-2.34375 2.24609-5.32227-0.146484-7.71484l-3.85742-3.80859c-2.39258-2.39258-4.24805-3.17383-6.64062-2.97852l-2.88086 0.244141-3.22266-3.17383 1.2207-5.61523c0.634766-2.83203-0.146484-5.0293-3.07617-7.95898l-10.9863-10.9375c-16.6992-16.6016-38.8672-16.2109-53.3203-1.75781Zm7.4707 1.85547c12.1582-8.88672 28.6133-7.37305 39.7461 3.75977l12.1582 12.0605c1.17188 1.17188 1.36719 2.09961 1.02539 3.80859l-1.61133 7.42188 7.51953 7.42188 4.93164-0.292969c1.26953-0.0488281 1.66016 0.0488281 2.63672 1.02539l2.88086 2.88086-12.207 12.207-2.88086-2.88086c-0.976562-0.976562-1.12305-1.36719-1.07422-2.68555l0.341797-4.88281-7.4707-7.42188-7.61719 1.26953c-1.61133 0.341797-2.34375 0.195312-3.56445-0.976562l-10.0098-10.0098c-1.26953-1.17188-1.41602-2.00195-0.634766-3.85742l4.39453-10.4492c-7.8125-7.27539-17.9688-10.4004-28.125-7.42188-0.78125 0.195312-1.07422-0.439453-0.439453-0.976562Z"/>
  </g>
  <text style="stroke:none;fill:black;font-family:sans-serif;font-size:13;font-weight:bold;" transform="matrix(1 0 0 1 1289 1953)">Exporting</text>
  <text style="stroke:none;fill:black;font-family:sans-serif;font-size:13;" transform="matrix(1 0 0 1 1289 1971)">Symbols should be outlined when exporting to ensure the</text>
  <text style="stroke:none;fill:black;font-family:sans-serif;font-size:13;" transform="matrix(1 0 0 1 1289 1989)">design is preserved when submitting to Xcode.</text>
  <text id="template-version" style="stroke:none;fill:black;font-family:sans-serif;font-size:13;text-anchor:end;" transform="matrix(1 0 0 1 3036 1933)">Template v.6.0</text>
  <text style="stroke:none;fill:black;font-family:sans-serif;font-size:13;text-anchor:end;" transform="matrix(1 0 0 1 3036 1951)">Requires Xcode 16 or greater</text>
  <text id="descriptive-name" style="stroke:none;fill:black;font-family:sans-serif;font-size:13;text-anchor:end;" transform="matrix(1 0 0 1 3036 1969)">Generated from firework.symbols</text>
  <text style="stroke:none;fill:black;font-family:sans-serif;font-size:13;text-anchor:end;" transform="matrix(1 0 0 1 3036 1987)">Typeset at 100.0 points</text>
  <text style="stroke:none;fill:black;font-family:sans-serif;font-size:13;" transform="matrix(1 0 0 1 263 726)">Small</text>
  <text style="stroke:none;fill:black;font-family:sans-serif;font-size:13;" transform="matrix(1 0 0 1 263 1156)">Medium</text>
  <text style="stroke:none;fill:black;font-family:sans-serif;font-size:13;" transform="matrix(1 0 0 1 263 1586)">Large</text>
 </g>
 <g id="Guides">
  <g id="H-reference" style="fill:#27AAE1;stroke:none;" transform="matrix(1 0 0 1 339 696)">
   <path d="M0.993654 0L3.63775 0L29.3281-67.1323L30.0303-67.1323L30.0303-70.459L28.1226-70.459ZM11.6885-24.4799L46.9815-24.4799L46.2315-26.7285L12.4385-26.7285ZM55.1196 0L57.7637 0L30.6382-70.459L29.4326-70.459L29.4326-67.1323Z"/>
  </g>
  <line id="Baseline-S" style="fill:none;stroke:#27AAE1;opacity:1;stroke-width:0.5;" x1="263" x2="3036" y1="696" y2="696"/>
  <line id="Capline-S" style="fill:none;stroke:#27AAE1;opacity:1;stroke-width:0.5;" x1="263" x2="3036" y1="625.541" y2="625.541"/>
  <g id="H-reference" style="fill:#27AAE1;stroke:none;" transform="matrix(1 0 0 1 339 1126)">
   <path d="M0.993654 0L3.63775 0L29.3281-67.1323L30.0303-67.1323L30.0303-70.459L28.1226-70.459ZM11.6885-24.4799L46.9815-24.4799L46.2315-26.7285L12.4385-26.7285ZM55.1196 0L57.7637 0L30.6382-70.459L29.4326-70.459L29.4326-67.1323Z"/>
  </g>
  <line id="Baseline-M" style="fill:none;stroke:#27AAE1;opacity:1;stroke-width:0.5;" x1="263" x2="3036" y1="1126" y2="1126"/>
  <line id="Capline-M" style="fill:none;stroke:#27AAE1;opacity:1;stroke-width:0.5;" x1="263" x2="3036" y1="1055.54" y2="1055.54"/>
  <g id="H-reference" style="fill:#27AAE1;stroke:none;" transform="matrix(1 0 0 1 339 1556)">
   <path d="M0.993654 0L3.63775 0L29.3281-67.1323L30.0303-67.1323L30.0303-70.459L28.1226-70.459ZM11.6885-24.4799L46.9815-24.4799L46.2315-26.7285L12.4385-26.7285ZM55.1196 0L57.7637 0L30.6382-70.459L29.4326-70.459L29.4326-67.1323Z"/>
  </g>
  <line id="Baseline-L" style="fill:none;stroke:#27AAE1;opacity:1;stroke-width:0.5;" x1="263" x2="3036" y1="1556" y2="1556"/>
  <line id="Capline-L" style="fill:none;stroke:#27AAE1;opacity:1;stroke-width:0.5;" x1="263" x2="3036" y1="1485.54" y2="1485.54"/>
  <line id="right-margin-Black-S" style="fill:none;stroke:#00AEEF;stroke-width:0.5;opacity:1.0;" x1="2982.59" x2="2982.59" y1="600.785" y2="720.121"/>
  <line id="left-margin-Black-S" style="fill:none;stroke:#00AEEF;stroke-width:0.5;opacity:1.0;" x1="2884.21" x2="2884.21" y1="600.785" y2="720.121"/>
  <line id="right-margin-Regular-S" style="fill:none;stroke:#00AEEF;stroke-width:0.5;opacity:1.0;" x1="1499.03" x2="1499.03" y1="600.785" y2="720.121"/>
  <line id="left-margin-Regular-S" style="fill:none;stroke:#00AEEF;stroke-width:0.5;opacity:1.0;" x1="1400.65" x2="1400.65" y1="600.785" y2="720.121"/>
  <line id="right-margin-Ultralight-S" style="fill:none;stroke:#00AEEF;stroke-width:0.5;opacity:1.0;" x1="608.902" x2="608.902" y1="600.785" y2="720.121"/>
  <line id="left-margin-Ultralight-S" style="fill:none;stroke:#00AEEF;stroke-width:0.5;opacity:1.0;" x1="510.521" x2="510.521" y1="600.785" y2="720.121"/>
 </g>
 <g id="Symbols">
  <g id="Black-S" transform="matrix(1.00656 0 0 1.00656 2884.21 696)">
   <path class="SFSymbolsPreviewWireframe" d="M48.87-62.172C50.374-62.172 51.399-65.456 51.789-68.768C52.277-72.917 50.525-74.252 48.87-74.252C47.213-74.252 45.462-72.917 45.949-68.768C46.339-65.456 47.361-62.172 48.87-62.172ZM48.87-8.588C47.361-8.588 46.339-5.304 45.949-1.991C45.463 2.156 47.213 3.492 48.87 3.492C50.525 3.492 52.277 2.156 51.789-1.991C51.399-5.304 50.374-8.588 48.87-8.588ZM35.376-58.617C36.681-59.367 35.928-62.727 34.608-65.787C32.956-69.624 30.773-69.902 29.337-69.076C27.902-68.247 27.056-66.215 29.549-62.865C31.546-60.195 34.072-57.863 35.376-58.617ZM62.361-12.142C61.059-11.394 61.81-8.033 63.127-4.971C64.781-1.135 66.965-0.857 68.4-1.684C69.833-2.511 70.685-4.545 68.189-7.895C66.194-10.564 63.666-12.895 62.361-12.142ZM21.381-54.7C18.034-57.193 16.002-56.343 15.173-54.91C14.345-53.475 14.624-51.292 18.46-49.638C21.522-48.319 24.882-47.57 25.632-48.87C26.385-50.175 24.051-52.705 21.381-54.7ZM79.275-21.12C76.218-22.441 72.856-23.189 72.105-21.89C71.352-20.584 73.687-18.054 76.356-16.059C79.706-13.566 81.736-14.415 82.562-15.849C83.393-17.283 83.113-19.467 79.275-21.12ZM22.076-35.381C22.076-36.884 18.79-37.908 15.481-38.3C11.333-38.787 10-37.034 10-35.381C10-33.723 11.333-31.972 15.481-32.458C18.79-32.847 22.076-33.874 22.076-35.381ZM82.257-38.301C78.948-37.908 75.663-36.886 75.663-35.381C75.663-33.874 78.948-32.85 82.257-32.46C86.407-31.971 87.74-33.724 87.74-35.381C87.74-37.037 86.407-38.787 82.257-38.301ZM18.46-21.12C14.624-19.467 14.345-17.283 15.173-15.849C16.004-14.415 18.034-13.566 21.381-16.059C24.051-18.054 26.383-20.584 25.63-21.89C24.882-23.189 21.522-22.441 18.46-21.12ZM79.275-49.638C83.113-51.292 83.393-53.475 82.562-54.91C81.736-56.346 79.706-57.193 76.356-54.7C73.687-52.705 71.352-50.176 72.105-48.87C72.856-47.57 76.218-48.319 79.275-49.638ZM29.549-7.895C27.055-4.545 27.901-2.512 29.337-1.684C30.775-0.857 32.956-1.135 34.608-4.971C35.928-8.033 36.681-11.394 35.376-12.142C34.074-12.895 31.546-10.564 29.549-7.895ZM68.189-62.865C70.685-66.215 69.839-68.246 68.4-69.076C66.965-69.902 64.781-69.624 63.127-65.787C61.81-62.727 61.057-59.366 62.361-58.617C63.663-57.863 66.194-60.195 68.189-62.865ZM45.702-47.508C46.838-47.811 46.943-50.479 46.568-53.045C46.102-56.258 44.518-56.91 43.277-56.572C42.03-56.246 40.982-54.89 42.181-51.873C43.143-49.463 44.576-47.2 45.702-47.508ZM52.036-23.255C50.91-22.95 50.797-20.273 51.169-17.71C51.638-14.498 53.222-13.847 54.466-14.184C55.71-14.518 56.758-15.869 55.559-18.883C54.599-21.293 53.166-23.556 52.036-23.255ZM33.354-50.847C32.45-49.932 32.215-48.245 34.767-46.227C36.797-44.625 39.171-43.381 39.992-44.208C40.821-45.038 39.582-47.408 37.98-49.438C35.968-51.987 34.266-51.756 33.354-50.847ZM64.379-19.911C65.29-20.822 65.522-22.516 62.973-24.533C60.938-26.134 58.574-27.373 57.745-26.549C56.922-25.723 58.161-23.35 59.765-21.319C61.777-18.772 63.469-19.002 64.379-19.911ZM31.175-37.718C33.742-37.344 36.416-37.452 36.714-38.586C37.021-39.715 34.757-41.148 32.349-42.106C29.335-43.305 27.987-42.256 27.65-41.013C27.315-39.774 27.964-38.188 31.175-37.718ZM66.562-33.039C63.998-33.409 61.329-33.302 61.021-32.175C60.719-31.044 62.981-29.615 65.388-28.654C68.405-27.453 69.758-28.504 70.09-29.746C70.428-30.99 69.778-32.573 66.562-33.039ZM32.377-28.688C34.784-29.649 37.049-31.084 36.744-32.218C36.441-33.341 33.767-33.451 31.203-33.077C27.99-32.612 27.34-31.025 27.675-29.786C28.007-28.541 29.36-27.493 32.377-28.688ZM65.361-42.069C62.953-41.102 60.692-39.675 60.996-38.546C61.298-37.416 63.97-37.306 66.537-37.679C69.75-38.147 70.4-39.734 70.065-40.972C69.73-42.22 68.38-43.267 65.361-42.069ZM34.804-24.485C32.261-22.476 32.493-20.773 33.404-19.867C34.316-18.959 36.011-18.726 38.023-21.275C39.622-23.305 40.866-25.674 40.04-26.503C39.209-27.331 36.839-26.09 34.804-24.485ZM62.93-46.269C65.479-48.283 65.245-49.984 64.341-50.889C63.432-51.802 61.732-52.031 59.722-49.482C58.115-47.448 56.876-45.077 57.702-44.255C58.528-43.427 60.898-44.669 62.93-46.269ZM45.662-23.227C44.536-23.529 43.103-21.27 42.143-18.86C40.942-15.843 41.987-14.487 43.236-14.159C44.48-13.822 46.065-14.473 46.53-17.685C46.906-20.25 46.792-22.923 45.662-23.227ZM54.504-56.6C53.262-56.937 51.675-56.286 51.212-53.074C50.837-50.505 50.948-47.836 52.076-47.532C53.204-47.225 54.637-49.49 55.597-51.896C56.795-54.914 55.753-56.264 54.504-56.6ZM42.574-35.381C42.574-31.903 45.392-29.085 48.87-29.085C52.346-29.085 55.166-31.903 55.166-35.381C55.166-38.856 52.346-41.674 48.87-41.674C45.392-41.674 42.574-38.856 42.574-35.381Z"/>
  </g>
  <g id="Regular-S" transform="matrix(1.00656 0 0 1.00656 1400.65 696)">
   <path class="SFSymbolsPreviewWireframe" d="M48.87-62.172C50.374-62.172 51.399-65.456 51.789-68.768C52.277-72.917 50.525-74.252 48.87-74.252C47.213-74.252 45.462-72.917 45.949-68.768C46.339-65.456 47.361-62.172 48.87-62.172ZM48.87-8.588C47.361-8.588 46.339-5.304 45.949-1.991C45.463 2.156 47.213 3.492 48.87 3.492C50.525 3.492 52.277 2.156 51.789-1.991C51.399-5.304 50.374-8.588 48.87-8.588ZM35.376-58.617C36.681-59.367 35.928-62.727 34.608-65.787C32.956-69.624 30.773-69.902 29.337-69.076C27.902-68.247 27.056-66.215 29.549-62.865C31.546-60.195 34.072-57.863 35.376-58.617ZM62.361-12.142C61.059-11.394 61.81-8.033 63.127-4.971C64.781-1.135 66.965-0.857 68.4-1.684C69.833-2.511 70.685-4.545 68.189-7.895C66.194-10.564 63.666-12.895 62.361-12.142ZM21.381-54.7C18.034-57.193 16.002-56.343 15.173-54.91C14.345-53.475 14.624-51.292 18.46-49.638C21.522-48.319 24.882-47.57 25.632-48.87C26.385-50.175 24.051-52.705 21.381-54.7ZM79.275-21.12C76.218-22.441 72.856-23.189 72.105-21.89C71.352-20.584 73.687-18.054 76.356-16.059C79.706-13.566 81.736-14.415 82.562-15.849C83.393-17.283 83.113-19.467 79.275-21.12ZM22.076-35.381C22.076-36.884 18.79-37.908 15.481-38.3C11.333-38.787 10-37.034 10-35.381C10-33.723 11.333-31.972 15.481-32.458C18.79-32.847 22.076-33.874 22.076-35.381ZM82.257-38.301C78.948-37.908 75.663-36.886 75.663-35.381C75.663-33.874 78.948-32.85 82.257-32.46C86.407-31.971 87.74-33.724 87.74-35.381C87.74-37.037 86.407-38.787 82.257-38.301ZM18.46-21.12C14.624-19.467 14.345-17.283 15.173-15.849C16.004-14.415 18.034-13.566 21.381-16.059C24.051-18.054 26.383-20.584 25.63-21.89C24.882-23.189 21.522-22.441 18.46-21.12ZM79.275-49.638C83.113-51.292 83.393-53.475 82.562-54.91C81.736-56.346 79.706-57.193 76.356-54.7C73.687-52.705 71.352-50.176 72.105-48.87C72.856-47.57 76.218-48.319 79.275-49.638ZM29.549-7.895C27.055-4.545 27.901-2.512 29.337-1.684C30.775-0.857 32.956-1.135 34.608-4.971C35.928-8.033 36.681-11.394 35.376-12.142C34.074-12.895 31.546-10.564 29.549-7.895ZM68.189-62.865C70.685-66.215 69.839-68.246 68.4-69.076C66.965-69.902 64.781-69.624 63.127-65.787C61.81-62.727 61.057-59.366 62.361-58.617C63.663-57.863 66.194-60.195 68.189-62.865ZM45.702-47.508C46.838-47.811 46.943-50.479 46.568-53.045C46.102-56.258 44.518-56.91 43.277-56.572C42.03-56.246 40.982-54.89 42.181-51.873C43.143-49.463 44.576-47.2 45.702-47.508ZM52.036-23.255C50.91-22.95 50.797-20.273 51.169-17.71C51.638-14.498 53.222-13.847 54.466-14.184C55.71-14.518 56.758-15.869 55.559-18.883C54.599-21.293 53.166-23.556 52.036-23.255ZM33.354-50.847C32.45-49.932 32.215-48.245 34.767-46.227C36.797-44.625 39.171-43.381 39.992-44.208C40.821-45.038 39.582-47.408 37.98-49.438C35.968-51.987 34.266-51.756 33.354-50.847ZM64.379-19.911C65.29-20.822 65.522-22.516 62.973-24.533C60.938-26.134 58.574-27.373 57.745-26.549C56.922-25.723 58.161-23.35 59.765-21.319C61.777-18.772 63.469-19.002 64.379-19.911ZM31.175-37.718C33.742-37.344 36.416-37.452 36.714-38.586C37.021-39.715 34.757-41.148 32.349-42.106C29.335-43.305 27.987-42.256 27.65-41.013C27.315-39.774 27.964-38.188 31.175-37.718ZM66.562-33.039C63.998-33.409 61.329-33.302 61.021-32.175C60.719-31.044 62.981-29.615 65.388-28.654C68.405-27.453 69.758-28.504 70.09-29.746C70.428-30.99 69.778-32.573 66.562-33.039ZM32.377-28.688C34.784-29.649 37.048-31.084 36.744-32.218C36.441-33.341 33.767-33.451 31.203-33.077C27.99-32.612 27.34-31.025 27.675-29.786C28.007-28.541 29.36-27.493 32.377-28.688ZM65.361-42.069C62.953-41.102 60.692-39.675 60.996-38.546C61.298-37.416 63.97-37.306 66.537-37.679C69.75-38.147 70.4-39.734 70.065-40.972C69.73-42.22 68.38-43.267 65.361-42.069ZM34.804-24.485C32.261-22.476 32.493-20.773 33.404-19.867C34.316-18.959 36.011-18.726 38.023-21.275C39.622-23.305 40.866-25.674 40.04-26.503C39.209-27.331 36.839-26.09 34.804-24.485ZM62.93-46.269C65.479-48.283 65.245-49.984 64.341-50.889C63.432-51.802 61.732-52.031 59.722-49.482C58.115-47.448 56.876-45.077 57.702-44.255C58.528-43.427 60.898-44.669 62.93-46.269ZM45.662-23.227C44.536-23.529 43.103-21.27 42.143-18.86C40.942-15.843 41.987-14.487 43.236-14.159C44.481-13.822 46.065-14.473 46.53-17.685C46.906-20.25 46.792-22.923 45.662-23.227ZM54.504-56.6C53.262-56.937 51.675-56.286 51.212-53.074C50.837-50.505 50.948-47.836 52.076-47.532C53.204-47.225 54.637-49.49 55.597-51.896C56.796-54.914 55.753-56.264 54.504-56.6ZM42.574-35.381C42.574-31.903 45.392-29.085 48.87-29.085C52.346-29.085 55.166-31.903 55.166-35.381C55.166-38.856 52.346-41.674 48.87-41.674C45.392-41.674 42.574-38.856 42.574-35.381Z"/>
  </g>
  <g id="Ultralight-S" transform="matrix(1.00656 0 0 1.00656 510.521 696)">
   <path class="SFSymbolsPreviewWireframe" d="M48.87-62.172C50.374-62.172 51.399-65.456 51.789-68.768C52.277-72.917 50.525-74.252 48.87-74.252C47.213-74.252 45.462-72.917 45.949-68.768C46.339-65.456 47.361-62.172 48.87-62.172ZM48.87-8.588C47.361-8.588 46.339-5.304 45.949-1.991C45.463 2.156 47.213 3.492 48.87 3.492C50.525 3.492 52.277 2.156 51.789-1.991C51.399-5.304 50.374-8.588 48.87-8.588ZM35.376-58.617C36.681-59.367 35.928-62.727 34.608-65.787C32.956-69.624 30.773-69.902 29.337-69.076C27.902-68.247 27.056-66.215 29.549-62.865C31.546-60.195 34.072-57.863 35.376-58.617ZM62.361-12.142C61.059-11.394 61.81-8.033 63.127-4.971C64.781-1.135 66.965-0.857 68.4-1.684C69.833-2.511 70.685-4.545 68.189-7.895C66.194-10.564 63.666-12.895 62.361-12.142ZM21.381-54.7C18.034-57.193 16.002-56.343 15.173-54.91C14.345-53.475 14.624-51.292 18.46-49.638C21.522-48.319 24.882-47.57 25.632-48.87C26.385-50.175 24.051-52.705 21.381-54.7ZM79.275-21.12C76.218-22.441 72.856-23.189 72.105-21.89C71.352-20.584 73.687-18.054 76.356-16.059C79.706-13.566 81.736-14.415 82.562-15.849C83.393-17.283 83.113-19.467 79.275-21.12ZM22.076-35.381C22.076-36.884 18.79-37.908 15.481-38.3C11.333-38.787 10-37.034 10-35.381C10-33.723 11.333-31.972 15.481-32.458C18.79-32.847 22.076-33.874 22.076-35.381ZM82.257-38.301C78.948-37.908 75.663-36.886 75.663-35.381C75.663-33.874 78.948-32.85 82.257-32.46C86.407-31.971 87.74-33.724 87.74-35.381C87.74-37.037 86.407-38.787 82.257-38.301ZM18.46-21.12C14.624-19.467 14.345-17.283 15.173-15.849C16.004-14.415 18.034-13.566 21.381-16.059C24.051-18.054 26.383-20.584 25.63-21.89C24.882-23.189 21.522-22.441 18.46-21.12ZM79.275-49.638C83.113-51.292 83.393-53.475 82.562-54.91C81.736-56.346 79.706-57.193 76.356-54.7C73.687-52.705 71.352-50.176 72.105-48.87C72.856-47.57 76.218-48.319 79.275-49.638ZM29.549-7.895C27.055-4.545 27.901-2.512 29.337-1.684C30.775-0.857 32.956-1.135 34.608-4.971C35.928-8.033 36.681-11.394 35.376-12.142C34.074-12.895 31.546-10.564 29.549-7.895ZM68.189-62.865C70.685-66.215 69.839-68.246 68.4-69.076C66.965-69.902 64.781-69.624 63.127-65.787C61.81-62.727 61.057-59.366 62.361-58.617C63.663-57.863 66.194-60.195 68.189-62.865ZM45.702-47.508C46.838-47.811 46.943-50.479 46.568-53.045C46.102-56.258 44.518-56.91 43.277-56.572C42.03-56.246 40.982-54.89 42.181-51.873C43.143-49.463 44.576-47.2 45.702-47.508ZM52.036-23.255C50.91-22.95 50.797-20.273 51.169-17.71C51.638-14.498 53.222-13.847 54.466-14.184C55.71-14.518 56.758-15.869 55.559-18.883C54.599-21.293 53.166-23.556 52.036-23.255ZM33.354-50.847C32.45-49.932 32.215-48.245 34.767-46.227C36.797-44.625 39.171-43.381 39.992-44.208C40.821-45.038 39.582-47.408 37.98-49.438C35.968-51.987 34.266-51.756 33.354-50.847ZM64.379-19.911C65.29-20.822 65.522-22.516 62.973-24.533C60.938-26.134 58.574-27.373 57.745-26.549C56.922-25.723 58.161-23.35 59.765-21.319C61.777-18.772 63.469-19.002 64.379-19.911ZM31.175-37.718C33.742-37.344 36.416-37.452 36.714-38.586C37.021-39.715 34.757-41.148 32.349-42.106C29.335-43.305 27.987-42.256 27.65-41.013C27.315-39.774 27.964-38.188 31.175-37.718ZM66.562-33.039C63.998-33.409 61.329-33.302 61.021-32.175C60.719-31.044 62.981-29.615 65.388-28.654C68.405-27.453 69.758-28.504 70.09-29.746C70.428-30.99 69.778-32.573 66.562-33.039ZM32.377-28.688C34.784-29.649 37.049-31.084 36.744-32.218C36.441-33.341 33.767-33.451 31.203-33.077C27.99-32.612 27.34-31.025 27.675-29.786C28.007-28.541 29.36-27.493 32.377-28.688ZM65.361-42.069C62.953-41.102 60.692-39.675 60.996-38.546C61.298-37.416 63.97-37.306 66.537-37.679C69.75-38.147 70.4-39.734 70.065-40.972C69.73-42.22 68.38-43.267 65.361-42.069ZM34.804-24.485C32.261-22.476 32.493-20.773 33.404-19.867C34.316-18.959 36.011-18.726 38.023-21.275C39.622-23.305 40.866-25.674 40.04-26.503C39.209-27.331 36.839-26.09 34.804-24.485ZM62.93-46.269C65.479-48.283 65.245-49.984 64.341-50.889C63.432-51.802 61.732-52.031 59.722-49.482C58.115-47.448 56.876-45.077 57.702-44.255C58.528-43.427 60.898-44.669 62.93-46.269ZM45.662-23.227C44.536-23.529 43.103-21.27 42.143-18.86C40.942-15.843 41.987-14.487 43.236-14.159C44.481-13.822 46.065-14.473 46.53-17.685C46.906-20.25 46.792-22.923 45.662-23.227ZM54.504-56.6C53.262-56.937 51.675-56.286 51.212-53.074C50.837-50.505 50.948-47.836 52.076-47.532C53.204-47.225 54.637-49.49 55.597-51.896C56.796-54.914 55.753-56.264 54.504-56.6ZM42.574-35.381C42.574-31.903 45.392-29.085 48.87-29.085C52.346-29.085 55.166-31.903 55.166-35.381C55.166-38.856 52.346-41.674 48.87-41.674C45.392-41.674 42.574-38.856 42.574-35.381Z"/>
  </g>
 </g>
</svg>
