<?xml version="1.0" encoding="UTF-8"?>
<svg xmlns="http://www.w3.org/2000/svg" id="icon" viewBox="0 0 1000 1000">
  <defs>
    <style>.cls-1{fill:none;}</style>
  </defs>
  <rect class="cls-1" x="0" width="1000" height="1000"></rect>
  <rect x="180" y="790" width="640" height="60"></rect>
  <path d="M817.15,740l108.17-570h-61.07l-19.51,102.81c-5.15-4.89-10.33-11.44-16.6-19.57-16.18-20.99-38.34-49.74-81.46-49.74-57.34,0-78.92,51.98-95.16,67.05v-24.74c0-53.67-24.84-92.83-71.51-124.16v31.23c29.38,23.93,46.51,51.44,46.51,92.93v250.83c0,2.55-.73,10.86-10.09,10.86-10.55,0-11.37-8.31-11.37-10.86h-.02v-136.64h-25v212.31c0,2.21-.6,13.22-12.38,13.22-10.15,0-13.77-6.8-13.79-13.18.1-12.2,0-204.18,0-212.36h-25c0,1.85,0,237.43,0,237.43,0,2.21-.6,13.22-12.38,13.22-10.14,0-13.77-6.8-13.79-13.18.1-12.26,0-228.27,0-237.47h-25c0,1.89.07,156.43.04,215.32h-.04c0,2.21-.6,13.22-12.38,13.22-10.14,0-13.77-6.8-13.79-13.18.1-12.18,0-207.06,0-215.36h-25c0,2.05.1,203.79,0,215.21v.11c0,21.79,16.68,38.22,38.79,38.22,5.48,0,11.83-1.35,14.67-3.78,4.54,15.56,19.24,25.9,36.5,25.9,20.05,0,32.45-12.75,35.99-28.46,4.08,2.25,9.77,3.35,15.18,3.35,24.54,0,37.38-19.23,37.38-38.22v-41.92c3.61,1.67,7.38,2.11,11.4,2.11,22.79,0,35.09-18.47,35.09-35.86v-167.81c25.47-8.98,41.09-29.23,53.3-45.08,15.33-19.89,24.15-30.26,41.87-30.26s26.54,10.38,41.86,30.26c11.02,14.3,24.82,32.19,46.13,42.14l-65.7,356.1H231.04l-65.7-356.1c21.31-9.96,35.11-27.85,46.13-42.14,15.33-19.89,24.15-30.26,41.87-30.26s26.54,10.38,41.87,30.26c10.7,13.88,24.02,31.15,44.29,41.26v112.85c0,18.76,12.68,37.75,36.92,37.75,21.84,0,38.3-16.23,38.3-37.75v-120.43c24.84-2.97,45.22-13.3,60.78-26.48v-35.91c-13.21,17.3-38.27,38.1-71.6,38.1h-14.18v144.72c0,6.16-3.49,12.75-13.3,12.75-11.34,0-11.92-10.62-11.92-12.75v-192.05c0-39.6,16.91-70.04,55.5-98.1v-30.22c-44.17,27.99-80.5,65.57-80.5,128.32v14.19c-18.33-23.11-38.25-56.5-86.16-56.5-43.13,0-65.29,28.75-81.47,49.74-6.27,8.14-11.46,14.68-16.61,19.57l-19.51-102.81h-61.07l108.17,570h634.29Z"></path>
</svg>
