<?xml version="1.0" encoding="UTF-8"?>
<svg xmlns="http://www.w3.org/2000/svg" id="icon" viewBox="0 0 1000 1000">
  <defs>
    <style>.cls-1{fill:none;}</style>
  </defs>
  <path d="M562.84,306h-183.61v434h70v-144h113.61c57.61,0,145-30.41,145-145s-87.39-145-145-145ZM562.84,531h-113.61v-160h113.61c33.26,0,75,12.89,75,80s-45.07,80-75,80Z"></path>
  <path d="M500,85c-229.2,0-415,185.8-415,415s185.8,415,415,415,415-185.8,415-415S729.2,85,500,85ZM500,845c-190.54,0-345-154.46-345-345S309.46,155,500,155s345,154.46,345,345-154.46,345-345,345Z"></path>
  <rect class="cls-1" width="1000" height="1000"></rect>
</svg>
