<?xml version="1.0" encoding="UTF-8"?>
<!--Generator: Apple Native CoreSVG 341-->
<!DOCTYPE svg
PUBLIC "-//W3C//DTD SVG 1.1//EN"
       "http://www.w3.org/Graphics/SVG/1.1/DTD/svg11.dtd">
<svg version="1.1" xmlns="http://www.w3.org/2000/svg" xmlns:xlink="http://www.w3.org/1999/xlink" viewBox="0 0 3300 2200">
 <!--glyph: "", point size: 100.0, font version: "20.0d10e1", template writer version: "138.0.0"-->
 <style>.SFSymbolsPreviewWireframe {fill:none;opacity:1.0;stroke:black;stroke-width:0.5}
</style>
 <g id="Notes">
  <rect height="2200" id="artboard" style="fill:white;opacity:1" width="3300" x="0" y="0"/>
  <line style="fill:none;stroke:black;opacity:1;stroke-width:0.5;" x1="263" x2="3036" y1="292" y2="292"/>
  <text style="stroke:none;fill:black;font-family:sans-serif;font-size:13;font-weight:bold;" transform="matrix(1 0 0 1 263 322)">Weight/Scale Variations</text>
  <text style="stroke:none;fill:black;font-family:sans-serif;font-size:13;text-anchor:middle;" transform="matrix(1 0 0 1 559.711 322)">Ultralight</text>
  <text style="stroke:none;fill:black;font-family:sans-serif;font-size:13;text-anchor:middle;" transform="matrix(1 0 0 1 856.422 322)">Thin</text>
  <text style="stroke:none;fill:black;font-family:sans-serif;font-size:13;text-anchor:middle;" transform="matrix(1 0 0 1 1153.13 322)">Light</text>
  <text style="stroke:none;fill:black;font-family:sans-serif;font-size:13;text-anchor:middle;" transform="matrix(1 0 0 1 1449.84 322)">Regular</text>
  <text style="stroke:none;fill:black;font-family:sans-serif;font-size:13;text-anchor:middle;" transform="matrix(1 0 0 1 1746.56 322)">Medium</text>
  <text style="stroke:none;fill:black;font-family:sans-serif;font-size:13;text-anchor:middle;" transform="matrix(1 0 0 1 2043.27 322)">Semibold</text>
  <text style="stroke:none;fill:black;font-family:sans-serif;font-size:13;text-anchor:middle;" transform="matrix(1 0 0 1 2339.98 322)">Bold</text>
  <text style="stroke:none;fill:black;font-family:sans-serif;font-size:13;text-anchor:middle;" transform="matrix(1 0 0 1 2636.69 322)">Heavy</text>
  <text style="stroke:none;fill:black;font-family:sans-serif;font-size:13;text-anchor:middle;" transform="matrix(1 0 0 1 2933.4 322)">Black</text>
  <line style="fill:none;stroke:black;opacity:1;stroke-width:0.5;" x1="263" x2="3036" y1="1903" y2="1903"/>
  <g transform="matrix(0.2 0 0 0.2 263 1933)">
   <path d="m46.2402 4.15039c21.7773 0 39.4531-17.627 39.4531-39.4043s-17.6758-39.4043-39.4531-39.4043c-21.7285 0-39.4043 17.627-39.4043 39.4043s17.6758 39.4043 39.4043 39.4043Zm0-7.42188c-17.6758 0-31.9336-14.3066-31.9336-31.9824s14.2578-31.9824 31.9336-31.9824 31.9824 14.3066 31.9824 31.9824-14.3066 31.9824-31.9824 31.9824Zm-17.9688-31.9824c0 2.14844 1.51367 3.61328 3.75977 3.61328h10.498v10.5957c0 2.19727 1.46484 3.71094 3.61328 3.71094 2.24609 0 3.71094-1.51367 3.71094-3.71094v-10.5957h10.5957c2.19727 0 3.71094-1.46484 3.71094-3.61328 0-2.19727-1.51367-3.71094-3.71094-3.71094h-10.5957v-10.5469c0-2.24609-1.46484-3.75977-3.71094-3.75977-2.14844 0-3.61328 1.51367-3.61328 3.75977v10.5469h-10.498c-2.24609 0-3.75977 1.51367-3.75977 3.71094Z"/>
  </g>
  <g transform="matrix(0.2 0 0 0.2 281.506 1933)">
   <path d="m58.5449 14.5508c27.4902 0 49.8047-22.3145 49.8047-49.8047s-22.3145-49.8047-49.8047-49.8047-49.8047 22.3145-49.8047 49.8047 22.3145 49.8047 49.8047 49.8047Zm0-8.30078c-22.9492 0-41.5039-18.5547-41.5039-41.5039s18.5547-41.5039 41.5039-41.5039 41.5039 18.5547 41.5039 41.5039-18.5547 41.5039-41.5039 41.5039Zm-22.6562-41.5039c0 2.39258 1.66016 4.00391 4.15039 4.00391h14.3555v14.4043c0 2.44141 1.66016 4.15039 4.05273 4.15039 2.44141 0 4.15039-1.66016 4.15039-4.15039v-14.4043h14.4043c2.44141 0 4.15039-1.61133 4.15039-4.00391 0-2.44141-1.70898-4.15039-4.15039-4.15039h-14.4043v-14.3555c0-2.49023-1.70898-4.19922-4.15039-4.19922-2.39258 0-4.05273 1.70898-4.05273 4.19922v14.3555h-14.3555c-2.49023 0-4.15039 1.70898-4.15039 4.15039Z"/>
  </g>
  <g transform="matrix(0.2 0 0 0.2 304.924 1933)">
   <path d="m74.8535 28.3203c35.1074 0 63.623-28.4668 63.623-63.5742s-28.5156-63.623-63.623-63.623-63.5742 28.5156-63.5742 63.623 28.4668 63.5742 63.5742 63.5742Zm0-9.08203c-30.127 0-54.4922-24.3652-54.4922-54.4922s24.3652-54.4922 54.4922-54.4922 54.4922 24.3652 54.4922 54.4922-24.3652 54.4922-54.4922 54.4922Zm-28.8574-54.4922c0 2.58789 1.85547 4.39453 4.58984 4.39453h19.7266v19.7754c0 2.68555 1.85547 4.58984 4.44336 4.58984 2.68555 0 4.54102-1.85547 4.54102-4.58984v-19.7754h19.7754c2.68555 0 4.58984-1.80664 4.58984-4.39453 0-2.73438-1.85547-4.58984-4.58984-4.58984h-19.7754v-19.7266c0-2.73438-1.85547-4.63867-4.54102-4.63867-2.58789 0-4.44336 1.9043-4.44336 4.63867v19.7266h-19.7266c-2.73438 0-4.58984 1.85547-4.58984 4.58984Z"/>
  </g>
  <text style="stroke:none;fill:black;font-family:sans-serif;font-size:13;font-weight:bold;" transform="matrix(1 0 0 1 263 1953)">Design Variations</text>
  <text style="stroke:none;fill:black;font-family:sans-serif;font-size:13;" transform="matrix(1 0 0 1 263 1971)">Symbols are supported in up to nine weights and three scales.</text>
  <text style="stroke:none;fill:black;font-family:sans-serif;font-size:13;" transform="matrix(1 0 0 1 263 1989)">For optimal layout with text and other symbols, vertically align</text>
  <text style="stroke:none;fill:black;font-family:sans-serif;font-size:13;" transform="matrix(1 0 0 1 263 2007)">symbols with the adjacent text.</text>
  <line style="fill:none;stroke:#00AEEF;stroke-width:0.5;opacity:1.0;" x1="776" x2="776" y1="1919" y2="1933"/>
  <g transform="matrix(0.2 0 0 0.2 776 1933)">
   <path d="m16.5527 0.78125c2.58789 0 3.85742-0.976562 4.78516-3.71094l6.29883-17.2363h28.8086l6.29883 17.2363c0.927734 2.73438 2.19727 3.71094 4.73633 3.71094 2.58789 0 4.24805-1.5625 4.24805-4.00391 0-0.830078-0.146484-1.61133-0.537109-2.63672l-22.9004-60.9863c-1.12305-2.97852-3.125-4.49219-6.25-4.49219-3.02734 0-5.07812 1.46484-6.15234 4.44336l-22.9004 61.084c-0.390625 1.02539-0.537109 1.80664-0.537109 2.63672 0 2.44141 1.5625 3.95508 4.10156 3.95508Zm13.4766-28.3691 11.8652-32.8613h0.244141l11.8652 32.8613Z"/>
  </g>
  <line style="fill:none;stroke:#00AEEF;stroke-width:0.5;opacity:1.0;" x1="792.836" x2="792.836" y1="1919" y2="1933"/>
  <text style="stroke:none;fill:black;font-family:sans-serif;font-size:13;font-weight:bold;" transform="matrix(1 0 0 1 776 1953)">Margins</text>
  <text style="stroke:none;fill:black;font-family:sans-serif;font-size:13;" transform="matrix(1 0 0 1 776 1971)">Leading and trailing margins on the left and right side of each symbol</text>
  <text style="stroke:none;fill:black;font-family:sans-serif;font-size:13;" transform="matrix(1 0 0 1 776 1989)">can be adjusted by modifying the x-location of the margin guidelines.</text>
  <text style="stroke:none;fill:black;font-family:sans-serif;font-size:13;" transform="matrix(1 0 0 1 776 2007)">Modifications are automatically applied proportionally to all</text>
  <text style="stroke:none;fill:black;font-family:sans-serif;font-size:13;" transform="matrix(1 0 0 1 776 2025)">scales and weights.</text>
  <g transform="matrix(0.2 0 0 0.2 1289 1933)">
   <path d="m14.209 9.32617 8.49609 8.54492c4.29688 4.3457 9.22852 4.05273 13.8672-1.07422l53.4668-58.9355-4.83398-4.88281-53.0762 58.3984c-1.75781 2.00195-3.41797 2.49023-5.76172 0.146484l-5.85938-5.81055c-2.34375-2.29492-1.80664-4.00391 0.195312-5.81055l57.373-54.0039-4.88281-4.83398-57.959 54.4434c-4.93164 4.58984-5.32227 9.47266-1.02539 13.8184Zm32.0801-90.9668c-2.09961 2.05078-2.24609 4.93164-1.07422 6.88477 1.17188 1.80664 3.4668 2.97852 6.68945 2.14844 7.32422-1.70898 14.9414-2.00195 22.0703 2.68555l-2.92969 7.27539c-1.70898 4.15039-0.830078 7.08008 1.85547 9.81445l11.4746 11.5723c2.44141 2.44141 4.49219 2.53906 7.32422 2.05078l5.32227-0.976562 3.32031 3.36914-0.195312 2.7832c-0.195312 2.49023 0.439453 4.39453 2.88086 6.78711l3.80859 3.71094c2.39258 2.39258 5.46875 2.53906 7.8125 0.195312l14.5508-14.5996c2.34375-2.34375 2.24609-5.32227-0.146484-7.71484l-3.85742-3.80859c-2.39258-2.39258-4.24805-3.17383-6.64062-2.97852l-2.88086 0.244141-3.22266-3.17383 1.2207-5.61523c0.634766-2.83203-0.146484-5.0293-3.07617-7.95898l-10.9863-10.9375c-16.6992-16.6016-38.8672-16.2109-53.3203-1.75781Zm7.4707 1.85547c12.1582-8.88672 28.6133-7.37305 39.7461 3.75977l12.1582 12.0605c1.17188 1.17188 1.36719 2.09961 1.02539 3.80859l-1.61133 7.42188 7.51953 7.42188 4.93164-0.292969c1.26953-0.0488281 1.66016 0.0488281 2.63672 1.02539l2.88086 2.88086-12.207 12.207-2.88086-2.88086c-0.976562-0.976562-1.12305-1.36719-1.07422-2.68555l0.341797-4.88281-7.4707-7.42188-7.61719 1.26953c-1.61133 0.341797-2.34375 0.195312-3.56445-0.976562l-10.0098-10.0098c-1.26953-1.17188-1.41602-2.00195-0.634766-3.85742l4.39453-10.4492c-7.8125-7.27539-17.9688-10.4004-28.125-7.42188-0.78125 0.195312-1.07422-0.439453-0.439453-0.976562Z"/>
  </g>
  <text style="stroke:none;fill:black;font-family:sans-serif;font-size:13;font-weight:bold;" transform="matrix(1 0 0 1 1289 1953)">Exporting</text>
  <text style="stroke:none;fill:black;font-family:sans-serif;font-size:13;" transform="matrix(1 0 0 1 1289 1971)">Symbols should be outlined when exporting to ensure the</text>
  <text style="stroke:none;fill:black;font-family:sans-serif;font-size:13;" transform="matrix(1 0 0 1 1289 1989)">design is preserved when submitting to Xcode.</text>
  <text id="template-version" style="stroke:none;fill:black;font-family:sans-serif;font-size:13;text-anchor:end;" transform="matrix(1 0 0 1 3036 1933)">Template v.6.0</text>
  <text style="stroke:none;fill:black;font-family:sans-serif;font-size:13;text-anchor:end;" transform="matrix(1 0 0 1 3036 1951)">Requires Xcode 16 or greater</text>
  <text id="descriptive-name" style="stroke:none;fill:black;font-family:sans-serif;font-size:13;text-anchor:end;" transform="matrix(1 0 0 1 3036 1969)">Generated from flower2.symbols</text>
  <text style="stroke:none;fill:black;font-family:sans-serif;font-size:13;text-anchor:end;" transform="matrix(1 0 0 1 3036 1987)">Typeset at 100.0 points</text>
  <text style="stroke:none;fill:black;font-family:sans-serif;font-size:13;" transform="matrix(1 0 0 1 263 726)">Small</text>
  <text style="stroke:none;fill:black;font-family:sans-serif;font-size:13;" transform="matrix(1 0 0 1 263 1156)">Medium</text>
  <text style="stroke:none;fill:black;font-family:sans-serif;font-size:13;" transform="matrix(1 0 0 1 263 1586)">Large</text>
 </g>
 <g id="Guides">
  <g id="H-reference" style="fill:#27AAE1;stroke:none;" transform="matrix(1 0 0 1 339 696)">
   <path d="M0.993654 0L3.63775 0L29.3281-67.1323L30.0303-67.1323L30.0303-70.459L28.1226-70.459ZM11.6885-24.4799L46.9815-24.4799L46.2315-26.7285L12.4385-26.7285ZM55.1196 0L57.7637 0L30.6382-70.459L29.4326-70.459L29.4326-67.1323Z"/>
  </g>
  <line id="Baseline-S" style="fill:none;stroke:#27AAE1;opacity:1;stroke-width:0.5;" x1="263" x2="3036" y1="696" y2="696"/>
  <line id="Capline-S" style="fill:none;stroke:#27AAE1;opacity:1;stroke-width:0.5;" x1="263" x2="3036" y1="625.541" y2="625.541"/>
  <g id="H-reference" style="fill:#27AAE1;stroke:none;" transform="matrix(1 0 0 1 339 1126)">
   <path d="M0.993654 0L3.63775 0L29.3281-67.1323L30.0303-67.1323L30.0303-70.459L28.1226-70.459ZM11.6885-24.4799L46.9815-24.4799L46.2315-26.7285L12.4385-26.7285ZM55.1196 0L57.7637 0L30.6382-70.459L29.4326-70.459L29.4326-67.1323Z"/>
  </g>
  <line id="Baseline-M" style="fill:none;stroke:#27AAE1;opacity:1;stroke-width:0.5;" x1="263" x2="3036" y1="1126" y2="1126"/>
  <line id="Capline-M" style="fill:none;stroke:#27AAE1;opacity:1;stroke-width:0.5;" x1="263" x2="3036" y1="1055.54" y2="1055.54"/>
  <g id="H-reference" style="fill:#27AAE1;stroke:none;" transform="matrix(1 0 0 1 339 1556)">
   <path d="M0.993654 0L3.63775 0L29.3281-67.1323L30.0303-67.1323L30.0303-70.459L28.1226-70.459ZM11.6885-24.4799L46.9815-24.4799L46.2315-26.7285L12.4385-26.7285ZM55.1196 0L57.7637 0L30.6382-70.459L29.4326-70.459L29.4326-67.1323Z"/>
  </g>
  <line id="Baseline-L" style="fill:none;stroke:#27AAE1;opacity:1;stroke-width:0.5;" x1="263" x2="3036" y1="1556" y2="1556"/>
  <line id="Capline-L" style="fill:none;stroke:#27AAE1;opacity:1;stroke-width:0.5;" x1="263" x2="3036" y1="1485.54" y2="1485.54"/>
  <line id="right-margin-Black-S" style="fill:none;stroke:#00AEEF;stroke-width:0.5;opacity:1.0;" x1="2977.69" x2="2977.69" y1="600.785" y2="720.121"/>
  <line id="left-margin-Black-S" style="fill:none;stroke:#00AEEF;stroke-width:0.5;opacity:1.0;" x1="2889.11" x2="2889.11" y1="600.785" y2="720.121"/>
  <line id="right-margin-Regular-S" style="fill:none;stroke:#00AEEF;stroke-width:0.5;opacity:1.0;" x1="1494.13" x2="1494.13" y1="600.785" y2="720.121"/>
  <line id="left-margin-Regular-S" style="fill:none;stroke:#00AEEF;stroke-width:0.5;opacity:1.0;" x1="1405.56" x2="1405.56" y1="600.785" y2="720.121"/>
  <line id="right-margin-Ultralight-S" style="fill:none;stroke:#00AEEF;stroke-width:0.5;opacity:1.0;" x1="604" x2="604" y1="600.785" y2="720.121"/>
  <line id="left-margin-Ultralight-S" style="fill:none;stroke:#00AEEF;stroke-width:0.5;opacity:1.0;" x1="515.423" x2="515.423" y1="600.785" y2="720.121"/>
 </g>
 <g id="Symbols">
  <g id="Black-S" transform="matrix(1.00656 0 0 1.00656 2889.11 696)">
   <path class="SFSymbolsPreviewWireframe" d="M71.2-48.713C71.2-50.129 70.98-51.567 70.521-52.98C69.575-55.891 67.743-58.284 65.428-59.938C63.113-61.591 60.308-62.518 57.395-62.519C57.324-62.519 57.252-62.514 57.18-62.513C56.384-65.096 54.86-67.359 52.838-69.047C50.447-71.044 47.356-72.249 43.999-72.248C40.642-72.249 37.551-71.044 35.161-69.046C33.14-67.359 31.615-65.096 30.818-62.513C30.747-62.514 30.674-62.519 30.603-62.519C27.691-62.518 24.886-61.593 22.57-59.938C20.255-58.285 18.423-55.891 17.479-52.98C17.019-51.567 16.8-50.128 16.8-48.714C16.802-44.235 18.996-40.016 22.664-37.434C22.167-35.981 21.922-34.471 21.922-32.972C21.923-30.84 22.414-28.726 23.372-26.803C24.328-24.88 25.754-23.149 27.609-21.804C30.052-20.027 32.897-19.167 35.704-19.168C37.969-19.168 40.214-19.735 42.23-20.815L42.23-8.441C41.378-9.673 40.304-10.804 39.022-11.77C36.491-13.671 33.566-14.625 30.753-14.627C28.54-14.627 26.382-14.031 24.584-12.802L24.117-12.482L23.939-11.945C23.598-10.905 23.433-9.821 23.433-8.731C23.44-4.9 25.423-1.01 28.939 1.639C31.469 3.541 34.396 4.495 37.207 4.497C39.42 4.497 41.579 3.9 43.377 2.671L43.713 2.442L43.739 2.442L44.074 2.671C45.872 3.9 48.03 4.497 50.244 4.497C53.055 4.495 55.982 3.541 58.513 1.639C62.028-1.01 64.01-4.9 64.019-8.731C64.019-9.821 63.854-10.905 63.512-11.945L63.334-12.482L62.867-12.802C61.069-14.031 58.911-14.627 56.698-14.627C53.886-14.625 50.96-13.671 48.429-11.77C47.321-10.934 46.366-9.976 45.577-8.936L45.577-20.923C47.642-19.775 49.957-19.168 52.293-19.168C55.102-19.167 57.945-20.027 60.39-21.804C62.244-23.15 63.669-24.88 64.626-26.803C65.584-28.727 66.076-30.841 66.076-32.973C66.076-34.472 65.83-35.981 65.334-37.434C69.002-40.015 71.198-44.234 71.2-48.713ZM40.998 0.211C39.91 0.823 38.608 1.149 37.208 1.15C35.157 1.151 32.916 0.444 30.95-1.035C28.211-3.089 26.772-6.08 26.78-8.731C26.78-9.286 26.842-9.825 26.963-10.342C28.052-10.953 29.353-11.28 30.754-11.281C32.805-11.282 35.046-10.574 37.011-9.095C39.75-7.041 41.19-4.052 41.181-1.4C41.181-0.846 41.119-0.306 40.998 0.211ZM50.441-9.095C52.406-10.574 54.647-11.282 56.698-11.281C58.099-11.28 59.4-10.953 60.489-10.342C60.609-9.825 60.672-9.285 60.672-8.731C60.68-6.08 59.241-3.089 56.502-1.035C54.536 0.444 52.296 1.151 50.244 1.15C48.844 1.149 47.542 0.823 46.455 0.211C46.331-0.306 46.271-0.846 46.271-1.399C46.262-4.052 47.701-7.04 50.441-9.095ZM62.455-39.567L61.084-38.81L61.748-37.392C62.408-35.983 62.729-34.474 62.729-32.973C62.729-31.356 62.356-29.75 61.63-28.295C60.906-26.84 59.834-25.536 58.423-24.511C56.563-23.16 54.425-22.516 52.293-22.515C49.689-22.516 47.113-23.486 45.143-25.33L43.999-26.401L42.856-25.33C40.886-23.486 38.311-22.516 35.704-22.515C33.573-22.517 31.435-23.16 29.576-24.511C28.164-25.536 27.092-26.84 26.368-28.294C25.643-29.749 25.269-31.355 25.269-32.973C25.269-34.474 25.591-35.982 26.25-37.391L26.914-38.809L25.543-39.566C22.2-41.408 20.145-44.957 20.146-48.715C20.147-49.783 20.311-50.87 20.662-51.947C21.381-54.161 22.759-55.958 24.517-57.215C26.273-58.47 28.402-59.172 30.603-59.172C31.028-59.172 31.456-59.146 31.885-59.093L33.437-58.899L33.734-60.437C34.198-62.844 35.49-64.962 37.306-66.478C39.123-67.993 41.446-68.901 43.999-68.902C46.552-68.901 48.876-67.993 50.692-66.478C52.509-64.962 53.801-62.844 54.263-60.437L54.561-58.899L56.114-59.093C56.542-59.146 56.97-59.172 57.395-59.172C59.596-59.172 61.727-58.47 63.483-57.215C65.24-55.958 66.617-54.16 67.337-51.946C67.687-50.869 67.852-49.783 67.852-48.713C67.854-44.956 65.8-41.408 62.455-39.567ZM43.999-54.262C38.533-54.262 34.101-49.83 34.101-44.363C34.101-38.896 38.533-34.464 43.999-34.464C49.467-34.464 53.899-38.896 53.899-44.363C53.899-49.83 49.467-54.262 43.999-54.262Z"/>
  </g>
  <g id="Regular-S" transform="matrix(1.00656 0 0 1.00656 1405.56 696)">
   <path class="SFSymbolsPreviewWireframe" d="M71.2-48.713C71.2-50.129 70.98-51.567 70.521-52.98C69.575-55.891 67.743-58.284 65.428-59.938C63.113-61.591 60.308-62.518 57.395-62.519C57.324-62.519 57.252-62.514 57.18-62.513C56.384-65.096 54.86-67.359 52.838-69.047C50.447-71.044 47.356-72.249 43.999-72.248C40.642-72.249 37.551-71.044 35.161-69.046C33.14-67.359 31.615-65.096 30.818-62.513C30.747-62.514 30.674-62.519 30.603-62.519C27.691-62.518 24.886-61.593 22.57-59.938C20.255-58.285 18.423-55.891 17.479-52.98C17.019-51.567 16.8-50.128 16.8-48.714C16.802-44.235 18.996-40.016 22.664-37.434C22.167-35.981 21.922-34.471 21.922-32.972C21.923-30.84 22.414-28.726 23.372-26.803C24.328-24.88 25.754-23.149 27.609-21.804C30.052-20.027 32.897-19.167 35.704-19.168C37.969-19.168 40.214-19.735 42.23-20.815L42.23-8.441C41.378-9.673 40.304-10.804 39.022-11.77C36.491-13.671 33.566-14.625 30.753-14.627C28.54-14.627 26.382-14.031 24.584-12.802L24.117-12.482L23.939-11.945C23.598-10.905 23.433-9.821 23.433-8.731C23.44-4.9 25.423-1.01 28.939 1.639C31.469 3.541 34.396 4.495 37.207 4.497C39.42 4.497 41.579 3.9 43.377 2.671L43.713 2.442L43.739 2.442L44.074 2.671C45.872 3.9 48.03 4.497 50.244 4.497C53.055 4.495 55.982 3.541 58.513 1.639C62.028-1.01 64.01-4.9 64.019-8.731C64.019-9.821 63.854-10.905 63.512-11.945L63.334-12.482L62.867-12.802C61.069-14.031 58.911-14.627 56.698-14.627C53.886-14.625 50.96-13.671 48.429-11.77C47.321-10.934 46.366-9.976 45.577-8.936L45.577-20.923C47.642-19.775 49.957-19.168 52.293-19.168C55.102-19.167 57.946-20.027 60.39-21.804C62.244-23.15 63.669-24.88 64.626-26.803C65.584-28.727 66.076-30.841 66.076-32.973C66.076-34.472 65.83-35.981 65.334-37.434C69.002-40.015 71.198-44.234 71.2-48.713ZM40.998 0.211C39.91 0.823 38.608 1.149 37.208 1.15C35.157 1.151 32.916 0.444 30.95-1.035C28.211-3.089 26.772-6.08 26.78-8.731C26.78-9.286 26.842-9.825 26.963-10.342C28.052-10.953 29.353-11.28 30.754-11.281C32.805-11.282 35.046-10.574 37.011-9.095C39.75-7.041 41.19-4.052 41.181-1.4C41.181-0.846 41.119-0.306 40.998 0.211ZM50.441-9.095C52.406-10.574 54.647-11.282 56.698-11.281C58.099-11.28 59.4-10.953 60.489-10.342C60.609-9.825 60.672-9.285 60.672-8.731C60.68-6.08 59.241-3.089 56.502-1.035C54.536 0.444 52.296 1.151 50.244 1.15C48.844 1.149 47.543 0.823 46.455 0.211C46.331-0.306 46.271-0.846 46.271-1.399C46.262-4.052 47.701-7.04 50.441-9.095ZM62.455-39.567L61.084-38.81L61.748-37.392C62.408-35.983 62.73-34.474 62.73-32.973C62.73-31.356 62.356-29.75 61.63-28.295C60.906-26.84 59.834-25.536 58.423-24.511C56.563-23.16 54.425-22.516 52.293-22.515C49.689-22.516 47.113-23.486 45.143-25.33L43.999-26.401L42.856-25.33C40.886-23.486 38.311-22.516 35.704-22.515C33.573-22.517 31.435-23.16 29.576-24.511C28.164-25.536 27.092-26.84 26.368-28.294C25.643-29.749 25.269-31.355 25.269-32.973C25.269-34.474 25.591-35.982 26.25-37.391L26.914-38.809L25.543-39.566C22.2-41.408 20.145-44.957 20.146-48.715C20.147-49.783 20.311-50.87 20.662-51.947C21.381-54.161 22.759-55.958 24.517-57.215C26.273-58.47 28.402-59.172 30.603-59.172C31.028-59.172 31.456-59.146 31.885-59.093L33.437-58.899L33.735-60.437C34.198-62.844 35.49-64.962 37.306-66.478C39.123-67.993 41.446-68.901 43.999-68.902C46.552-68.901 48.876-67.993 50.692-66.478C52.509-64.962 53.801-62.844 54.263-60.437L54.561-58.899L56.114-59.093C56.542-59.146 56.97-59.172 57.395-59.172C59.596-59.172 61.727-58.47 63.483-57.215C65.24-55.958 66.617-54.16 67.337-51.946C67.687-50.869 67.852-49.783 67.852-48.713C67.854-44.956 65.8-41.408 62.455-39.567ZM43.999-54.262C38.533-54.262 34.101-49.83 34.101-44.363C34.101-38.896 38.533-34.464 43.999-34.464C49.467-34.464 53.899-38.896 53.899-44.363C53.899-49.83 49.467-54.262 43.999-54.262Z"/>
  </g>
  <g id="Ultralight-S" transform="matrix(1.00656 0 0 1.00656 515.423 696)">
   <path class="SFSymbolsPreviewWireframe" d="M71.2-48.713C71.2-50.129 70.98-51.567 70.521-52.98C69.575-55.891 67.743-58.284 65.428-59.938C63.113-61.591 60.308-62.518 57.395-62.519C57.324-62.519 57.252-62.514 57.18-62.513C56.384-65.096 54.86-67.359 52.838-69.047C50.447-71.044 47.356-72.249 43.999-72.248C40.642-72.249 37.551-71.044 35.161-69.046C33.14-67.359 31.615-65.096 30.818-62.513C30.747-62.514 30.674-62.519 30.603-62.519C27.691-62.518 24.886-61.593 22.57-59.938C20.255-58.285 18.423-55.891 17.479-52.98C17.019-51.567 16.8-50.128 16.8-48.714C16.802-44.235 18.996-40.016 22.664-37.434C22.167-35.981 21.922-34.471 21.922-32.972C21.923-30.84 22.414-28.726 23.372-26.803C24.328-24.88 25.754-23.149 27.609-21.804C30.052-20.027 32.897-19.167 35.704-19.168C37.969-19.168 40.214-19.735 42.23-20.815L42.23-8.441C41.378-9.673 40.304-10.804 39.022-11.77C36.491-13.671 33.566-14.625 30.753-14.627C28.54-14.627 26.382-14.031 24.584-12.802L24.117-12.482L23.939-11.945C23.598-10.905 23.433-9.821 23.433-8.731C23.44-4.9 25.423-1.01 28.939 1.639C31.469 3.541 34.396 4.495 37.207 4.497C39.42 4.497 41.579 3.9 43.377 2.671L43.713 2.442L43.739 2.442L44.074 2.671C45.872 3.9 48.03 4.497 50.244 4.497C53.055 4.495 55.982 3.541 58.513 1.639C62.028-1.01 64.01-4.9 64.019-8.731C64.019-9.821 63.854-10.905 63.512-11.945L63.334-12.482L62.867-12.802C61.069-14.031 58.911-14.627 56.698-14.627C53.886-14.625 50.96-13.671 48.428-11.77C47.321-10.934 46.366-9.976 45.577-8.936L45.577-20.923C47.642-19.775 49.957-19.168 52.293-19.168C55.102-19.167 57.945-20.027 60.39-21.804C62.244-23.15 63.669-24.88 64.626-26.803C65.584-28.727 66.076-30.841 66.076-32.973C66.076-34.472 65.83-35.981 65.334-37.434C69.002-40.015 71.198-44.234 71.2-48.713ZM40.998 0.211C39.909 0.823 38.608 1.149 37.208 1.15C35.157 1.151 32.916 0.444 30.95-1.035C28.211-3.089 26.772-6.08 26.78-8.731C26.78-9.286 26.842-9.825 26.963-10.342C28.052-10.953 29.353-11.28 30.754-11.281C32.805-11.282 35.046-10.574 37.011-9.095C39.75-7.041 41.19-4.052 41.181-1.4C41.181-0.846 41.119-0.306 40.998 0.211ZM50.441-9.095C52.406-10.574 54.647-11.282 56.698-11.281C58.099-11.28 59.4-10.953 60.489-10.342C60.609-9.825 60.672-9.285 60.672-8.731C60.68-6.08 59.241-3.089 56.502-1.035C54.536 0.444 52.296 1.151 50.244 1.15C48.844 1.149 47.542 0.823 46.455 0.211C46.331-0.306 46.271-0.846 46.271-1.399C46.262-4.052 47.701-7.04 50.441-9.095ZM62.455-39.567L61.084-38.81L61.748-37.392C62.408-35.983 62.729-34.474 62.729-32.973C62.729-31.356 62.356-29.75 61.63-28.295C60.906-26.84 59.834-25.536 58.423-24.511C56.563-23.16 54.425-22.516 52.293-22.515C49.689-22.516 47.113-23.486 45.143-25.33L43.999-26.401L42.856-25.33C40.886-23.486 38.311-22.516 35.704-22.515C33.573-22.517 31.435-23.16 29.576-24.511C28.164-25.536 27.092-26.84 26.368-28.294C25.643-29.749 25.269-31.355 25.269-32.973C25.269-34.474 25.591-35.982 26.25-37.391L26.914-38.809L25.543-39.566C22.199-41.408 20.145-44.957 20.146-48.715C20.147-49.783 20.311-50.87 20.662-51.947C21.381-54.161 22.759-55.958 24.517-57.215C26.273-58.47 28.402-59.172 30.603-59.172C31.028-59.172 31.456-59.146 31.885-59.093L33.437-58.899L33.735-60.437C34.198-62.844 35.49-64.962 37.306-66.478C39.123-67.993 41.446-68.901 43.999-68.902C46.552-68.901 48.876-67.993 50.692-66.478C52.509-64.962 53.801-62.844 54.263-60.437L54.561-58.899L56.114-59.093C56.542-59.146 56.97-59.172 57.395-59.172C59.596-59.172 61.727-58.47 63.483-57.215C65.24-55.958 66.617-54.16 67.337-51.946C67.687-50.869 67.852-49.783 67.852-48.713C67.854-44.956 65.8-41.408 62.455-39.567ZM43.999-54.262C38.533-54.262 34.101-49.83 34.101-44.363C34.101-38.896 38.533-34.464 43.999-34.464C49.467-34.464 53.899-38.896 53.899-44.363C53.899-49.83 49.467-54.262 43.999-54.262Z"/>
  </g>
 </g>
</svg>
