<?xml version="1.0" encoding="UTF-8"?>
<svg xmlns="http://www.w3.org/2000/svg" id="icon" viewBox="0 0 1000 1000">
  <defs>
    <style>.cls-1{fill:none;}</style>
  </defs>
  <rect class="cls-1" width="1000" height="1000"></rect>
  <path d="M836.76,723.04l-164.3-284.58,262.34-184.45-34.51-49.08-257.95,181.36-142.27-246.42-142.27,246.42L99.85,204.93l-34.51,49.08,262.34,184.45-164.3,284.58-98.04,68.93,31.98,45.49-12.87,22.3h831.24l-12.87-22.3,31.98-45.49-98.04-68.93ZM700.7,627.38l-148.47-104.39,62.74-44.11,85.73,148.5ZM500.07,279.88l84.78,146.84-84.78,59.6-84.78-59.6,84.78-146.84ZM385.17,478.88l62.74,44.11-148.47,104.39,85.73-148.5ZM205.69,789.75l22.47-38.91,271.91-191.18,271.91,191.18,22.47,38.91H205.69Z"></path>
</svg>
