<?xml version="1.0" encoding="UTF-8"?>
<!--Generator: Apple Native CoreSVG 341-->
<!DOCTYPE svg
PUBLIC "-//W3C//DTD SVG 1.1//EN"
       "http://www.w3.org/Graphics/SVG/1.1/DTD/svg11.dtd">
<svg version="1.1" xmlns="http://www.w3.org/2000/svg" xmlns:xlink="http://www.w3.org/1999/xlink" viewBox="0 0 3300 2200">
 <!--glyph: "", point size: 100.0, font version: "20.0d10e1", template writer version: "138.0.0"-->
 <style>.SFSymbolsPreviewWireframe {fill:none;opacity:1.0;stroke:black;stroke-width:0.5}
</style>
 <g id="Notes">
  <rect height="2200" id="artboard" style="fill:white;opacity:1" width="3300" x="0" y="0"/>
  <line style="fill:none;stroke:black;opacity:1;stroke-width:0.5;" x1="263" x2="3036" y1="292" y2="292"/>
  <text style="stroke:none;fill:black;font-family:sans-serif;font-size:13;font-weight:bold;" transform="matrix(1 0 0 1 263 322)">Weight/Scale Variations</text>
  <text style="stroke:none;fill:black;font-family:sans-serif;font-size:13;text-anchor:middle;" transform="matrix(1 0 0 1 559.711 322)">Ultralight</text>
  <text style="stroke:none;fill:black;font-family:sans-serif;font-size:13;text-anchor:middle;" transform="matrix(1 0 0 1 856.422 322)">Thin</text>
  <text style="stroke:none;fill:black;font-family:sans-serif;font-size:13;text-anchor:middle;" transform="matrix(1 0 0 1 1153.13 322)">Light</text>
  <text style="stroke:none;fill:black;font-family:sans-serif;font-size:13;text-anchor:middle;" transform="matrix(1 0 0 1 1449.84 322)">Regular</text>
  <text style="stroke:none;fill:black;font-family:sans-serif;font-size:13;text-anchor:middle;" transform="matrix(1 0 0 1 1746.56 322)">Medium</text>
  <text style="stroke:none;fill:black;font-family:sans-serif;font-size:13;text-anchor:middle;" transform="matrix(1 0 0 1 2043.27 322)">Semibold</text>
  <text style="stroke:none;fill:black;font-family:sans-serif;font-size:13;text-anchor:middle;" transform="matrix(1 0 0 1 2339.98 322)">Bold</text>
  <text style="stroke:none;fill:black;font-family:sans-serif;font-size:13;text-anchor:middle;" transform="matrix(1 0 0 1 2636.69 322)">Heavy</text>
  <text style="stroke:none;fill:black;font-family:sans-serif;font-size:13;text-anchor:middle;" transform="matrix(1 0 0 1 2933.4 322)">Black</text>
  <line style="fill:none;stroke:black;opacity:1;stroke-width:0.5;" x1="263" x2="3036" y1="1903" y2="1903"/>
  <g transform="matrix(0.2 0 0 0.2 263 1933)">
   <path d="m46.2402 4.15039c21.7773 0 39.4531-17.627 39.4531-39.4043s-17.6758-39.4043-39.4531-39.4043c-21.7285 0-39.4043 17.627-39.4043 39.4043s17.6758 39.4043 39.4043 39.4043Zm0-7.42188c-17.6758 0-31.9336-14.3066-31.9336-31.9824s14.2578-31.9824 31.9336-31.9824 31.9824 14.3066 31.9824 31.9824-14.3066 31.9824-31.9824 31.9824Zm-17.9688-31.9824c0 2.14844 1.51367 3.61328 3.75977 3.61328h10.498v10.5957c0 2.19727 1.46484 3.71094 3.61328 3.71094 2.24609 0 3.71094-1.51367 3.71094-3.71094v-10.5957h10.5957c2.19727 0 3.71094-1.46484 3.71094-3.61328 0-2.19727-1.51367-3.71094-3.71094-3.71094h-10.5957v-10.5469c0-2.24609-1.46484-3.75977-3.71094-3.75977-2.14844 0-3.61328 1.51367-3.61328 3.75977v10.5469h-10.498c-2.24609 0-3.75977 1.51367-3.75977 3.71094Z"/>
  </g>
  <g transform="matrix(0.2 0 0 0.2 281.506 1933)">
   <path d="m58.5449 14.5508c27.4902 0 49.8047-22.3145 49.8047-49.8047s-22.3145-49.8047-49.8047-49.8047-49.8047 22.3145-49.8047 49.8047 22.3145 49.8047 49.8047 49.8047Zm0-8.30078c-22.9492 0-41.5039-18.5547-41.5039-41.5039s18.5547-41.5039 41.5039-41.5039 41.5039 18.5547 41.5039 41.5039-18.5547 41.5039-41.5039 41.5039Zm-22.6562-41.5039c0 2.39258 1.66016 4.00391 4.15039 4.00391h14.3555v14.4043c0 2.44141 1.66016 4.15039 4.05273 4.15039 2.44141 0 4.15039-1.66016 4.15039-4.15039v-14.4043h14.4043c2.44141 0 4.15039-1.61133 4.15039-4.00391 0-2.44141-1.70898-4.15039-4.15039-4.15039h-14.4043v-14.3555c0-2.49023-1.70898-4.19922-4.15039-4.19922-2.39258 0-4.05273 1.70898-4.05273 4.19922v14.3555h-14.3555c-2.49023 0-4.15039 1.70898-4.15039 4.15039Z"/>
  </g>
  <g transform="matrix(0.2 0 0 0.2 304.924 1933)">
   <path d="m74.8535 28.3203c35.1074 0 63.623-28.4668 63.623-63.5742s-28.5156-63.623-63.623-63.623-63.5742 28.5156-63.5742 63.623 28.4668 63.5742 63.5742 63.5742Zm0-9.08203c-30.127 0-54.4922-24.3652-54.4922-54.4922s24.3652-54.4922 54.4922-54.4922 54.4922 24.3652 54.4922 54.4922-24.3652 54.4922-54.4922 54.4922Zm-28.8574-54.4922c0 2.58789 1.85547 4.39453 4.58984 4.39453h19.7266v19.7754c0 2.68555 1.85547 4.58984 4.44336 4.58984 2.68555 0 4.54102-1.85547 4.54102-4.58984v-19.7754h19.7754c2.68555 0 4.58984-1.80664 4.58984-4.39453 0-2.73438-1.85547-4.58984-4.58984-4.58984h-19.7754v-19.7266c0-2.73438-1.85547-4.63867-4.54102-4.63867-2.58789 0-4.44336 1.9043-4.44336 4.63867v19.7266h-19.7266c-2.73438 0-4.58984 1.85547-4.58984 4.58984Z"/>
  </g>
  <text style="stroke:none;fill:black;font-family:sans-serif;font-size:13;font-weight:bold;" transform="matrix(1 0 0 1 263 1953)">Design Variations</text>
  <text style="stroke:none;fill:black;font-family:sans-serif;font-size:13;" transform="matrix(1 0 0 1 263 1971)">Symbols are supported in up to nine weights and three scales.</text>
  <text style="stroke:none;fill:black;font-family:sans-serif;font-size:13;" transform="matrix(1 0 0 1 263 1989)">For optimal layout with text and other symbols, vertically align</text>
  <text style="stroke:none;fill:black;font-family:sans-serif;font-size:13;" transform="matrix(1 0 0 1 263 2007)">symbols with the adjacent text.</text>
  <line style="fill:none;stroke:#00AEEF;stroke-width:0.5;opacity:1.0;" x1="776" x2="776" y1="1919" y2="1933"/>
  <g transform="matrix(0.2 0 0 0.2 776 1933)">
   <path d="m16.5527 0.78125c2.58789 0 3.85742-0.976562 4.78516-3.71094l6.29883-17.2363h28.8086l6.29883 17.2363c0.927734 2.73438 2.19727 3.71094 4.73633 3.71094 2.58789 0 4.24805-1.5625 4.24805-4.00391 0-0.830078-0.146484-1.61133-0.537109-2.63672l-22.9004-60.9863c-1.12305-2.97852-3.125-4.49219-6.25-4.49219-3.02734 0-5.07812 1.46484-6.15234 4.44336l-22.9004 61.084c-0.390625 1.02539-0.537109 1.80664-0.537109 2.63672 0 2.44141 1.5625 3.95508 4.10156 3.95508Zm13.4766-28.3691 11.8652-32.8613h0.244141l11.8652 32.8613Z"/>
  </g>
  <line style="fill:none;stroke:#00AEEF;stroke-width:0.5;opacity:1.0;" x1="792.836" x2="792.836" y1="1919" y2="1933"/>
  <text style="stroke:none;fill:black;font-family:sans-serif;font-size:13;font-weight:bold;" transform="matrix(1 0 0 1 776 1953)">Margins</text>
  <text style="stroke:none;fill:black;font-family:sans-serif;font-size:13;" transform="matrix(1 0 0 1 776 1971)">Leading and trailing margins on the left and right side of each symbol</text>
  <text style="stroke:none;fill:black;font-family:sans-serif;font-size:13;" transform="matrix(1 0 0 1 776 1989)">can be adjusted by modifying the x-location of the margin guidelines.</text>
  <text style="stroke:none;fill:black;font-family:sans-serif;font-size:13;" transform="matrix(1 0 0 1 776 2007)">Modifications are automatically applied proportionally to all</text>
  <text style="stroke:none;fill:black;font-family:sans-serif;font-size:13;" transform="matrix(1 0 0 1 776 2025)">scales and weights.</text>
  <g transform="matrix(0.2 0 0 0.2 1289 1933)">
   <path d="m14.209 9.32617 8.49609 8.54492c4.29688 4.3457 9.22852 4.05273 13.8672-1.07422l53.4668-58.9355-4.83398-4.88281-53.0762 58.3984c-1.75781 2.00195-3.41797 2.49023-5.76172 0.146484l-5.85938-5.81055c-2.34375-2.29492-1.80664-4.00391 0.195312-5.81055l57.373-54.0039-4.88281-4.83398-57.959 54.4434c-4.93164 4.58984-5.32227 9.47266-1.02539 13.8184Zm32.0801-90.9668c-2.09961 2.05078-2.24609 4.93164-1.07422 6.88477 1.17188 1.80664 3.4668 2.97852 6.68945 2.14844 7.32422-1.70898 14.9414-2.00195 22.0703 2.68555l-2.92969 7.27539c-1.70898 4.15039-0.830078 7.08008 1.85547 9.81445l11.4746 11.5723c2.44141 2.44141 4.49219 2.53906 7.32422 2.05078l5.32227-0.976562 3.32031 3.36914-0.195312 2.7832c-0.195312 2.49023 0.439453 4.39453 2.88086 6.78711l3.80859 3.71094c2.39258 2.39258 5.46875 2.53906 7.8125 0.195312l14.5508-14.5996c2.34375-2.34375 2.24609-5.32227-0.146484-7.71484l-3.85742-3.80859c-2.39258-2.39258-4.24805-3.17383-6.64062-2.97852l-2.88086 0.244141-3.22266-3.17383 1.2207-5.61523c0.634766-2.83203-0.146484-5.0293-3.07617-7.95898l-10.9863-10.9375c-16.6992-16.6016-38.8672-16.2109-53.3203-1.75781Zm7.4707 1.85547c12.1582-8.88672 28.6133-7.37305 39.7461 3.75977l12.1582 12.0605c1.17188 1.17188 1.36719 2.09961 1.02539 3.80859l-1.61133 7.42188 7.51953 7.42188 4.93164-0.292969c1.26953-0.0488281 1.66016 0.0488281 2.63672 1.02539l2.88086 2.88086-12.207 12.207-2.88086-2.88086c-0.976562-0.976562-1.12305-1.36719-1.07422-2.68555l0.341797-4.88281-7.4707-7.42188-7.61719 1.26953c-1.61133 0.341797-2.34375 0.195312-3.56445-0.976562l-10.0098-10.0098c-1.26953-1.17188-1.41602-2.00195-0.634766-3.85742l4.39453-10.4492c-7.8125-7.27539-17.9688-10.4004-28.125-7.42188-0.78125 0.195312-1.07422-0.439453-0.439453-0.976562Z"/>
  </g>
  <text style="stroke:none;fill:black;font-family:sans-serif;font-size:13;font-weight:bold;" transform="matrix(1 0 0 1 1289 1953)">Exporting</text>
  <text style="stroke:none;fill:black;font-family:sans-serif;font-size:13;" transform="matrix(1 0 0 1 1289 1971)">Symbols should be outlined when exporting to ensure the</text>
  <text style="stroke:none;fill:black;font-family:sans-serif;font-size:13;" transform="matrix(1 0 0 1 1289 1989)">design is preserved when submitting to Xcode.</text>
  <text id="template-version" style="stroke:none;fill:black;font-family:sans-serif;font-size:13;text-anchor:end;" transform="matrix(1 0 0 1 3036 1933)">Template v.6.0</text>
  <text style="stroke:none;fill:black;font-family:sans-serif;font-size:13;text-anchor:end;" transform="matrix(1 0 0 1 3036 1951)">Requires Xcode 16 or greater</text>
  <text id="descriptive-name" style="stroke:none;fill:black;font-family:sans-serif;font-size:13;text-anchor:end;" transform="matrix(1 0 0 1 3036 1969)">Generated from wheat.symbols</text>
  <text style="stroke:none;fill:black;font-family:sans-serif;font-size:13;text-anchor:end;" transform="matrix(1 0 0 1 3036 1987)">Typeset at 100.0 points</text>
  <text style="stroke:none;fill:black;font-family:sans-serif;font-size:13;" transform="matrix(1 0 0 1 263 726)">Small</text>
  <text style="stroke:none;fill:black;font-family:sans-serif;font-size:13;" transform="matrix(1 0 0 1 263 1156)">Medium</text>
  <text style="stroke:none;fill:black;font-family:sans-serif;font-size:13;" transform="matrix(1 0 0 1 263 1586)">Large</text>
 </g>
 <g id="Guides">
  <g id="H-reference" style="fill:#27AAE1;stroke:none;" transform="matrix(1 0 0 1 339 696)">
   <path d="M0.993654 0L3.63775 0L29.3281-67.1323L30.0303-67.1323L30.0303-70.459L28.1226-70.459ZM11.6885-24.4799L46.9815-24.4799L46.2315-26.7285L12.4385-26.7285ZM55.1196 0L57.7637 0L30.6382-70.459L29.4326-70.459L29.4326-67.1323Z"/>
  </g>
  <line id="Baseline-S" style="fill:none;stroke:#27AAE1;opacity:1;stroke-width:0.5;" x1="263" x2="3036" y1="696" y2="696"/>
  <line id="Capline-S" style="fill:none;stroke:#27AAE1;opacity:1;stroke-width:0.5;" x1="263" x2="3036" y1="625.541" y2="625.541"/>
  <g id="H-reference" style="fill:#27AAE1;stroke:none;" transform="matrix(1 0 0 1 339 1126)">
   <path d="M0.993654 0L3.63775 0L29.3281-67.1323L30.0303-67.1323L30.0303-70.459L28.1226-70.459ZM11.6885-24.4799L46.9815-24.4799L46.2315-26.7285L12.4385-26.7285ZM55.1196 0L57.7637 0L30.6382-70.459L29.4326-70.459L29.4326-67.1323Z"/>
  </g>
  <line id="Baseline-M" style="fill:none;stroke:#27AAE1;opacity:1;stroke-width:0.5;" x1="263" x2="3036" y1="1126" y2="1126"/>
  <line id="Capline-M" style="fill:none;stroke:#27AAE1;opacity:1;stroke-width:0.5;" x1="263" x2="3036" y1="1055.54" y2="1055.54"/>
  <g id="H-reference" style="fill:#27AAE1;stroke:none;" transform="matrix(1 0 0 1 339 1556)">
   <path d="M0.993654 0L3.63775 0L29.3281-67.1323L30.0303-67.1323L30.0303-70.459L28.1226-70.459ZM11.6885-24.4799L46.9815-24.4799L46.2315-26.7285L12.4385-26.7285ZM55.1196 0L57.7637 0L30.6382-70.459L29.4326-70.459L29.4326-67.1323Z"/>
  </g>
  <line id="Baseline-L" style="fill:none;stroke:#27AAE1;opacity:1;stroke-width:0.5;" x1="263" x2="3036" y1="1556" y2="1556"/>
  <line id="Capline-L" style="fill:none;stroke:#27AAE1;opacity:1;stroke-width:0.5;" x1="263" x2="3036" y1="1485.54" y2="1485.54"/>
  <line id="right-margin-Black-S" style="fill:none;stroke:#00AEEF;stroke-width:0.5;opacity:1.0;" x1="2977.69" x2="2977.69" y1="600.785" y2="720.121"/>
  <line id="left-margin-Black-S" style="fill:none;stroke:#00AEEF;stroke-width:0.5;opacity:1.0;" x1="2889.11" x2="2889.11" y1="600.785" y2="720.121"/>
  <line id="right-margin-Regular-S" style="fill:none;stroke:#00AEEF;stroke-width:0.5;opacity:1.0;" x1="1494.13" x2="1494.13" y1="600.785" y2="720.121"/>
  <line id="left-margin-Regular-S" style="fill:none;stroke:#00AEEF;stroke-width:0.5;opacity:1.0;" x1="1405.56" x2="1405.56" y1="600.785" y2="720.121"/>
  <line id="right-margin-Ultralight-S" style="fill:none;stroke:#00AEEF;stroke-width:0.5;opacity:1.0;" x1="604" x2="604" y1="600.785" y2="720.121"/>
  <line id="left-margin-Ultralight-S" style="fill:none;stroke:#00AEEF;stroke-width:0.5;opacity:1.0;" x1="515.423" x2="515.423" y1="600.785" y2="720.121"/>
 </g>
 <g id="Symbols">
  <g id="Black-S" transform="matrix(1.00656 0 0 1.00656 2889.11 696)">
   <path class="SFSymbolsPreviewWireframe" d="M15.573-52.295C16.091-52.295 16.513-52.716 16.513-53.235L16.513-60.117C16.513-60.634 16.091-61.056 15.573-61.056C15.056-61.056 14.635-60.634 14.635-60.117L14.635-53.235C14.635-52.716 15.056-52.295 15.573-52.295ZM38.066-36.034C40.693-37.168 42.573-39.178 43.072-40.651L45.002-48.355C45.228-49.022 45.075-49.708 44.608-50.127C44.14-50.546 43.44-50.624 42.797-50.332L36.008-47.231C34.926-46.737 33.216-45.519 32.591-43.867L30.051-37.31C29.99-37.316 29.932-37.328 29.87-37.328C29.808-37.328 29.75-37.317 29.689-37.31L27.15-43.867C26.525-45.519 24.815-46.737 23.732-47.231L16.943-50.332C16.3-50.624 15.6-50.546 15.132-50.127C14.665-49.708 14.513-49.022 14.739-48.355L16.669-40.651C17.168-39.178 19.047-37.168 21.675-36.034C24.089-34.993 26.425-34.43 28.162-34.124L28.162-25.348L27.15-27.964C26.524-29.615 24.815-30.833 23.732-31.327L16.943-34.429C16.3-34.72 15.6-34.643 15.132-34.224C14.665-33.805 14.513-33.119 14.739-32.452L16.669-24.747C17.168-23.274 19.047-21.265 21.675-20.131C24.089-19.09 26.425-18.525 28.162-18.221L28.162-9.445L27.15-12.061C26.524-13.712 24.815-14.93 23.732-15.424L16.943-18.525C16.3-18.817 15.599-18.739 15.132-18.32C14.664-17.901 14.513-17.215 14.739-16.549L16.669-8.844C17.168-7.371 19.047-5.362 21.674-4.227C24.088-3.187 26.425-2.623 28.162-2.317L28.162 1.777C28.162 2.721 28.926 3.485 29.87 3.485C30.813 3.485 31.577 2.721 31.577 1.777L31.577-2.317C33.315-2.623 35.651-3.187 38.066-4.227C40.693-5.362 42.572-7.371 43.071-8.844L45.002-16.549C45.228-17.215 45.075-17.901 44.607-18.32C44.14-18.739 43.439-18.817 42.797-18.525L36.008-15.424C34.926-14.93 33.216-13.712 32.591-12.061L31.577-9.443L31.577-18.221C33.315-18.525 35.651-19.09 38.066-20.131C40.693-21.265 42.572-23.275 43.071-24.747L45.002-32.452C45.228-33.119 45.075-33.805 44.607-34.224C44.14-34.643 43.439-34.72 42.797-34.429L36.008-31.328C34.926-30.833 33.216-29.616 32.591-27.964L31.577-25.345L31.577-34.124C33.315-34.43 35.651-34.993 38.066-36.034ZM44.167-61.056C43.649-61.056 43.228-60.634 43.228-60.117L43.228-53.235C43.228-52.716 43.649-52.295 44.167-52.295C44.684-52.295 45.106-52.716 45.106-53.235L45.106-60.117C45.106-60.634 44.684-61.056 44.167-61.056ZM29.827-65.331C30.346-65.331 30.766-65.751 30.766-66.27L30.766-73.152C30.766-73.671 30.346-74.091 29.827-74.091C29.31-74.091 28.889-73.671 28.889-73.152L28.889-66.27C28.889-65.751 29.31-65.331 29.827-65.331ZM28.288-46.623C28.609-46.07 29.183-45.731 29.797-45.731C30.413-45.733 30.983-46.07 31.306-46.623L35.108-53.143C35.753-54.25 35.753-55.645 35.108-56.751L31.306-63.27C30.983-63.824 30.413-64.162 29.797-64.163C29.183-64.163 28.609-63.824 28.288-63.27L24.486-56.752C23.841-55.645 23.841-54.25 24.486-53.142L28.288-46.623ZM52.59-35.754C52.955-35.754 53.25-36.049 53.25-36.414L53.25-41.254C53.25-41.619 52.955-41.916 52.59-41.916C52.225-41.916 51.93-41.619 51.93-41.254L51.93-36.414C51.93-36.049 52.225-35.754 52.59-35.754ZM68.412-24.315C70.259-25.112 71.583-26.526 71.934-27.562L73.291-32.983C73.451-33.45 73.342-33.933 73.013-34.228C72.684-34.522 72.191-34.577 71.741-34.372L66.964-32.191C66.204-31.842 65.002-30.986 64.561-29.825L62.773-25.212C62.731-25.217 62.691-25.224 62.647-25.224C62.602-25.224 62.562-25.217 62.518-25.212L60.733-29.825C60.293-30.986 59.091-31.842 58.328-32.191L53.552-34.372C53.102-34.577 52.607-34.522 52.28-34.228C51.951-33.933 51.844-33.45 52.003-32.983L53.36-27.562C53.711-26.526 55.034-25.112 56.881-24.315C58.58-23.582 60.223-23.187 61.446-22.971L61.446-16.796L60.733-18.638C60.293-19.799 59.091-20.655 58.328-21.004L53.552-23.186C53.102-23.391 52.607-23.335 52.28-23.041C51.951-22.746 51.844-22.263 52.003-21.795L53.36-16.375C53.711-15.339 55.034-13.924 56.881-13.127C58.58-12.396 60.223-11.999 61.446-11.784L61.446-5.61L60.733-7.451C60.293-8.612 59.091-9.469 58.328-9.817L53.552-11.999C53.102-12.204 52.607-12.148 52.28-11.854C51.951-11.558 51.844-11.077 52.003-10.607L53.36-5.188C53.711-4.152 55.034-2.737 56.881-1.94C58.58-1.209 60.223-0.812 61.446-0.597L61.446 2.284C61.446 2.948 61.983 3.485 62.647 3.485C63.31 3.485 63.847 2.948 63.847 2.284L63.847-0.597C65.07-0.812 66.713-1.209 68.413-1.94C70.259-2.737 71.583-4.152 71.934-5.188L73.292-10.607C73.451-11.077 73.342-11.558 73.014-11.854C72.684-12.148 72.191-12.204 71.741-11.999L66.964-9.817C66.204-9.469 65.002-8.612 64.561-7.451L63.847-5.609L63.847-11.784C65.07-11.999 66.713-12.396 68.413-13.127C70.26-13.924 71.583-15.339 71.934-16.375L73.292-21.795C73.451-22.263 73.343-22.746 73.014-23.041C72.685-23.335 72.192-23.391 71.741-23.186L66.964-21.004C66.204-20.655 65.002-19.799 64.561-18.638L63.847-16.795L63.847-22.971C65.07-23.187 66.713-23.582 68.412-24.315ZM72.703-41.916C72.338-41.916 72.043-41.619 72.043-41.254L72.043-36.414C72.043-36.049 72.338-35.753 72.703-35.753C73.067-35.753 73.364-36.049 73.364-36.414L73.364-41.254C73.364-41.619 73.067-41.916 72.703-41.916ZM62.616-44.924C62.982-44.924 63.276-45.219 63.276-45.583L63.276-50.425C63.276-50.789 62.982-51.085 62.616-51.085C62.253-51.085 61.956-50.789 61.956-50.425L61.956-45.583C61.956-45.219 62.253-44.924 62.616-44.924ZM61.534-31.763C61.761-31.375 62.163-31.136 62.596-31.136C63.027-31.137 63.43-31.375 63.656-31.763L66.333-36.35C66.786-37.127 66.786-38.109 66.333-38.888L63.656-43.474C63.43-43.863 63.027-44.101 62.596-44.102C62.163-44.102 61.761-43.863 61.534-43.474L58.86-38.889C58.406-38.109 58.406-37.127 58.86-36.349L61.534-31.763Z"/>
  </g>
  <g id="Regular-S" transform="matrix(1.00656 0 0 1.00656 1405.56 696)">
   <path class="SFSymbolsPreviewWireframe" d="M15.573-52.295C16.091-52.295 16.513-52.716 16.513-53.235L16.513-60.117C16.513-60.634 16.091-61.056 15.573-61.056C15.056-61.056 14.636-60.634 14.636-60.117L14.636-53.235C14.636-52.716 15.056-52.295 15.573-52.295ZM38.066-36.034C40.693-37.168 42.573-39.178 43.072-40.651L45.002-48.355C45.228-49.022 45.075-49.708 44.608-50.127C44.14-50.546 43.44-50.624 42.797-50.332L36.008-47.231C34.926-46.737 33.216-45.519 32.591-43.867L30.051-37.31C29.99-37.316 29.932-37.328 29.87-37.328C29.808-37.328 29.75-37.317 29.689-37.31L27.15-43.867C26.525-45.519 24.815-46.737 23.732-47.231L16.943-50.332C16.3-50.624 15.6-50.546 15.132-50.127C14.665-49.708 14.513-49.022 14.739-48.355L16.669-40.651C17.168-39.178 19.047-37.168 21.675-36.034C24.089-34.993 26.425-34.43 28.163-34.124L28.163-25.348L27.15-27.964C26.524-29.615 24.815-30.833 23.732-31.327L16.943-34.429C16.3-34.72 15.6-34.643 15.132-34.224C14.665-33.805 14.513-33.119 14.739-32.452L16.669-24.747C17.168-23.274 19.047-21.265 21.675-20.131C24.089-19.09 26.425-18.525 28.163-18.221L28.163-9.445L27.15-12.061C26.524-13.712 24.815-14.93 23.732-15.424L16.943-18.525C16.3-18.817 15.599-18.739 15.132-18.32C14.664-17.901 14.513-17.215 14.739-16.549L16.669-8.844C17.168-7.371 19.047-5.362 21.674-4.227C24.088-3.187 26.425-2.623 28.162-2.317L28.162 1.777C28.162 2.721 28.926 3.485 29.87 3.485C30.813 3.485 31.577 2.721 31.577 1.777L31.577-2.317C33.315-2.623 35.651-3.187 38.066-4.227C40.693-5.362 42.572-7.371 43.071-8.844L45.002-16.549C45.228-17.215 45.075-17.901 44.607-18.32C44.14-18.739 43.439-18.817 42.797-18.525L36.008-15.424C34.926-14.93 33.216-13.712 32.591-12.061L31.577-9.443L31.577-18.221C33.315-18.525 35.651-19.09 38.066-20.131C40.693-21.265 42.572-23.275 43.071-24.747L45.002-32.452C45.228-33.119 45.075-33.805 44.607-34.224C44.14-34.643 43.439-34.72 42.797-34.429L36.008-31.328C34.926-30.833 33.216-29.616 32.591-27.964L31.577-25.345L31.577-34.124C33.315-34.43 35.651-34.993 38.066-36.034ZM44.167-61.056C43.649-61.056 43.228-60.634 43.228-60.117L43.228-53.235C43.228-52.716 43.649-52.295 44.167-52.295C44.684-52.295 45.106-52.716 45.106-53.235L45.106-60.117C45.106-60.634 44.684-61.056 44.167-61.056ZM29.827-65.331C30.346-65.331 30.766-65.751 30.766-66.27L30.766-73.152C30.766-73.671 30.346-74.091 29.827-74.091C29.31-74.091 28.889-73.671 28.889-73.152L28.889-66.27C28.889-65.751 29.31-65.331 29.827-65.331ZM28.288-46.623C28.609-46.07 29.183-45.731 29.797-45.731C30.413-45.733 30.983-46.07 31.306-46.623L35.108-53.143C35.753-54.25 35.753-55.645 35.108-56.751L31.306-63.27C30.983-63.824 30.413-64.162 29.797-64.163C29.183-64.163 28.609-63.824 28.288-63.27L24.486-56.752C23.841-55.645 23.841-54.25 24.486-53.142L28.288-46.623ZM52.59-35.754C52.955-35.754 53.25-36.049 53.25-36.414L53.25-41.254C53.25-41.619 52.955-41.916 52.59-41.916C52.225-41.916 51.93-41.619 51.93-41.254L51.93-36.414C51.93-36.049 52.225-35.754 52.59-35.754ZM68.413-24.315C70.259-25.112 71.583-26.526 71.934-27.562L73.291-32.983C73.451-33.45 73.342-33.933 73.013-34.228C72.684-34.522 72.191-34.577 71.741-34.372L66.964-32.191C66.204-31.842 65.002-30.986 64.561-29.825L62.773-25.212C62.731-25.217 62.691-25.224 62.647-25.224C62.602-25.224 62.562-25.217 62.518-25.212L60.733-29.825C60.293-30.986 59.091-31.842 58.328-32.191L53.552-34.372C53.102-34.577 52.607-34.522 52.28-34.228C51.951-33.933 51.844-33.45 52.003-32.983L53.36-27.562C53.711-26.526 55.034-25.112 56.881-24.315C58.58-23.582 60.223-23.187 61.446-22.971L61.446-16.796L60.733-18.638C60.293-19.799 59.091-20.655 58.328-21.004L53.552-23.186C53.102-23.391 52.607-23.335 52.28-23.041C51.951-22.746 51.844-22.263 52.003-21.795L53.36-16.375C53.711-15.339 55.034-13.924 56.881-13.127C58.58-12.396 60.223-11.999 61.446-11.784L61.446-5.61L60.733-7.451C60.293-8.612 59.091-9.469 58.328-9.817L53.552-11.999C53.102-12.204 52.607-12.148 52.28-11.854C51.951-11.558 51.844-11.077 52.003-10.607L53.36-5.188C53.711-4.152 55.034-2.737 56.881-1.94C58.58-1.209 60.223-0.812 61.446-0.597L61.446 2.284C61.446 2.948 61.983 3.485 62.647 3.485C63.31 3.485 63.847 2.948 63.847 2.284L63.847-0.597C65.07-0.812 66.713-1.209 68.413-1.94C70.259-2.737 71.583-4.152 71.934-5.188L73.292-10.607C73.451-11.077 73.343-11.558 73.014-11.854C72.685-12.148 72.191-12.204 71.741-11.999L66.964-9.817C66.204-9.469 65.002-8.612 64.561-7.451L63.847-5.609L63.847-11.784C65.07-11.999 66.713-12.396 68.413-13.127C70.26-13.924 71.583-15.339 71.934-16.375L73.292-21.795C73.451-22.263 73.343-22.746 73.014-23.041C72.685-23.335 72.192-23.391 71.741-23.186L66.964-21.004C66.204-20.655 65.002-19.799 64.561-18.638L63.847-16.795L63.847-22.971C65.07-23.187 66.713-23.582 68.413-24.315ZM72.703-41.916C72.338-41.916 72.043-41.619 72.043-41.254L72.043-36.414C72.043-36.049 72.338-35.753 72.703-35.753C73.067-35.753 73.365-36.049 73.365-36.414L73.365-41.254C73.364-41.619 73.067-41.916 72.703-41.916ZM62.616-44.924C62.982-44.924 63.276-45.219 63.276-45.583L63.276-50.425C63.276-50.789 62.982-51.085 62.616-51.085C62.253-51.085 61.956-50.789 61.956-50.425L61.956-45.583C61.956-45.219 62.253-44.924 62.616-44.924ZM61.534-31.763C61.761-31.375 62.163-31.136 62.596-31.136C63.027-31.137 63.43-31.375 63.656-31.763L66.333-36.35C66.786-37.127 66.786-38.109 66.333-38.888L63.656-43.474C63.43-43.863 63.027-44.101 62.596-44.102C62.163-44.102 61.761-43.863 61.534-43.474L58.86-38.889C58.406-38.109 58.406-37.127 58.86-36.349L61.534-31.763Z"/>
  </g>
  <g id="Ultralight-S" transform="matrix(1.00656 0 0 1.00656 515.423 696)">
   <path class="SFSymbolsPreviewWireframe" d="M15.573-52.295C16.091-52.295 16.513-52.716 16.513-53.235L16.513-60.117C16.513-60.634 16.091-61.056 15.573-61.056C15.056-61.056 14.636-60.634 14.636-60.117L14.636-53.235C14.636-52.716 15.056-52.295 15.573-52.295ZM38.066-36.034C40.693-37.168 42.573-39.178 43.072-40.651L45.002-48.355C45.228-49.022 45.075-49.708 44.608-50.127C44.14-50.546 43.44-50.624 42.797-50.332L36.008-47.231C34.926-46.737 33.216-45.519 32.591-43.867L30.051-37.31C29.99-37.316 29.932-37.328 29.87-37.328C29.808-37.328 29.75-37.317 29.689-37.31L27.15-43.867C26.525-45.519 24.815-46.737 23.732-47.231L16.943-50.332C16.3-50.624 15.6-50.546 15.132-50.127C14.665-49.708 14.513-49.022 14.739-48.355L16.669-40.651C17.168-39.178 19.047-37.168 21.675-36.034C24.089-34.993 26.425-34.43 28.163-34.124L28.163-25.348L27.15-27.964C26.524-29.615 24.815-30.833 23.732-31.327L16.943-34.429C16.3-34.72 15.6-34.643 15.132-34.224C14.665-33.805 14.513-33.119 14.739-32.452L16.669-24.747C17.168-23.274 19.047-21.265 21.675-20.131C24.089-19.09 26.425-18.525 28.163-18.221L28.163-9.445L27.15-12.061C26.524-13.712 24.815-14.93 23.732-15.424L16.943-18.525C16.3-18.817 15.599-18.739 15.132-18.32C14.664-17.901 14.513-17.215 14.739-16.549L16.669-8.844C17.168-7.371 19.047-5.362 21.674-4.227C24.088-3.187 26.425-2.623 28.162-2.317L28.162 1.777C28.162 2.721 28.926 3.485 29.87 3.485C30.813 3.485 31.577 2.721 31.577 1.777L31.577-2.317C33.315-2.623 35.651-3.187 38.066-4.227C40.693-5.362 42.572-7.371 43.071-8.844L45.002-16.549C45.228-17.215 45.075-17.901 44.607-18.32C44.14-18.739 43.439-18.817 42.797-18.525L36.008-15.424C34.926-14.93 33.216-13.712 32.591-12.061L31.577-9.443L31.577-18.221C33.315-18.525 35.651-19.09 38.066-20.131C40.693-21.265 42.572-23.275 43.071-24.747L45.002-32.452C45.228-33.119 45.075-33.805 44.607-34.224C44.14-34.643 43.439-34.72 42.797-34.429L36.008-31.328C34.926-30.833 33.216-29.616 32.591-27.964L31.577-25.345L31.577-34.124C33.315-34.43 35.651-34.993 38.066-36.034ZM44.167-61.056C43.649-61.056 43.228-60.634 43.228-60.117L43.228-53.235C43.228-52.716 43.649-52.295 44.167-52.295C44.684-52.295 45.106-52.716 45.106-53.235L45.106-60.117C45.106-60.634 44.684-61.056 44.167-61.056ZM29.827-65.331C30.346-65.331 30.766-65.751 30.766-66.27L30.766-73.152C30.766-73.671 30.346-74.091 29.827-74.091C29.31-74.091 28.889-73.671 28.889-73.152L28.889-66.27C28.889-65.751 29.31-65.331 29.827-65.331ZM28.288-46.623C28.609-46.07 29.183-45.731 29.797-45.731C30.413-45.733 30.983-46.07 31.306-46.623L35.108-53.143C35.753-54.25 35.753-55.645 35.108-56.751L31.306-63.27C30.983-63.824 30.413-64.162 29.797-64.163C29.183-64.163 28.609-63.824 28.288-63.27L24.486-56.752C23.841-55.645 23.841-54.25 24.486-53.142L28.288-46.623ZM52.59-35.754C52.955-35.754 53.25-36.049 53.25-36.414L53.25-41.254C53.25-41.619 52.955-41.916 52.59-41.916C52.225-41.916 51.93-41.619 51.93-41.254L51.93-36.414C51.93-36.049 52.225-35.754 52.59-35.754ZM68.413-24.315C70.259-25.112 71.583-26.526 71.934-27.562L73.291-32.983C73.451-33.45 73.342-33.933 73.013-34.228C72.684-34.522 72.191-34.577 71.741-34.372L66.964-32.191C66.204-31.842 65.002-30.986 64.561-29.825L62.773-25.212C62.731-25.217 62.691-25.224 62.647-25.224C62.602-25.224 62.562-25.217 62.518-25.212L60.733-29.825C60.293-30.986 59.091-31.842 58.328-32.191L53.552-34.372C53.102-34.577 52.607-34.522 52.28-34.228C51.951-33.933 51.844-33.45 52.003-32.983L53.36-27.562C53.711-26.526 55.034-25.112 56.881-24.315C58.58-23.582 60.223-23.187 61.446-22.971L61.446-16.796L60.733-18.638C60.293-19.799 59.091-20.655 58.328-21.004L53.552-23.186C53.102-23.391 52.607-23.335 52.28-23.041C51.951-22.746 51.844-22.263 52.003-21.795L53.36-16.375C53.711-15.339 55.034-13.924 56.881-13.127C58.58-12.396 60.223-11.999 61.446-11.784L61.446-5.61L60.733-7.451C60.293-8.612 59.091-9.469 58.328-9.817L53.552-11.999C53.102-12.204 52.607-12.148 52.28-11.854C51.951-11.558 51.844-11.077 52.003-10.607L53.36-5.188C53.711-4.152 55.034-2.737 56.881-1.94C58.58-1.209 60.223-0.812 61.446-0.597L61.446 2.284C61.446 2.948 61.983 3.485 62.647 3.485C63.31 3.485 63.847 2.948 63.847 2.284L63.847-0.597C65.07-0.812 66.713-1.209 68.413-1.94C70.259-2.737 71.583-4.152 71.934-5.188L73.292-10.607C73.451-11.077 73.343-11.558 73.014-11.854C72.685-12.148 72.191-12.204 71.741-11.999L66.964-9.817C66.204-9.469 65.002-8.612 64.561-7.451L63.847-5.609L63.847-11.784C65.07-11.999 66.713-12.396 68.413-13.127C70.26-13.924 71.583-15.339 71.934-16.375L73.292-21.795C73.451-22.263 73.343-22.746 73.014-23.041C72.685-23.335 72.192-23.391 71.741-23.186L66.964-21.004C66.204-20.655 65.002-19.799 64.561-18.638L63.847-16.795L63.847-22.971C65.07-23.187 66.713-23.582 68.413-24.315ZM72.703-41.916C72.338-41.916 72.043-41.619 72.043-41.254L72.043-36.414C72.043-36.049 72.338-35.753 72.703-35.753C73.067-35.753 73.365-36.049 73.365-36.414L73.365-41.254C73.364-41.619 73.067-41.916 72.703-41.916ZM62.616-44.924C62.982-44.924 63.276-45.219 63.276-45.583L63.276-50.425C63.276-50.789 62.982-51.085 62.616-51.085C62.253-51.085 61.956-50.789 61.956-50.425L61.956-45.583C61.956-45.219 62.253-44.924 62.616-44.924ZM61.534-31.763C61.761-31.375 62.163-31.136 62.596-31.136C63.027-31.137 63.43-31.375 63.656-31.763L66.333-36.35C66.786-37.127 66.786-38.109 66.333-38.888L63.656-43.474C63.43-43.863 63.027-44.101 62.596-44.102C62.163-44.102 61.761-43.863 61.534-43.474L58.86-38.889C58.406-38.109 58.406-37.127 58.86-36.349L61.534-31.763Z"/>
  </g>
 </g>
</svg>
