<?xml version="1.0" encoding="UTF-8"?>
<svg xmlns="http://www.w3.org/2000/svg" id="icon" viewBox="0 0 1000 1000">
  <defs>
    <style>.cls-1{fill:none;}</style>
  </defs>
  <rect x="192" y="903" width="616" height="57"></rect>
  <rect x="192" y="794" width="616" height="57"></rect>
  <polygon points="432.9 595.58 499.4 330.73 501.14 330.73 567.64 595.58 624.24 595.58 713.9 258.16 654.89 258.16 596.3 509.16 594.57 509.16 528.2 258.16 472.34 258.16 405.97 509.16 404.24 509.16 345.65 258.16 286.64 258.16 376.3 595.58 432.9 595.58"></polygon>
  <path d="M500.27,750c196.06,0,355-158.94,355-355S696.33,40,500.27,40,145.27,198.94,145.27,395s158.94,355,355,355ZM500.27,100c162.92,0,295,132.08,295,295s-132.08,295-295,295-295-132.08-295-295S337.35,100,500.27,100Z"></path>
  <rect class="cls-1" width="1000" height="1000"></rect>
</svg>
