<?xml version="1.0" encoding="UTF-8"?>
<svg xmlns="http://www.w3.org/2000/svg" id="icon" viewBox="0 0 1000 1000">
  <defs>
    <style>.cls-1{fill:none;}</style>
  </defs>
  <path d="M450.65,557.01c13.71-7.81,25.1-23.75,25.1-43.86,0-35.74-28.69-56.81-66.49-56.81-43.51,0-68.64,25.54-70.25,66.23h34.29c1.07-18.56,7.91-35.14,35.95-35.14,16.61,0,30.82,10.81,30.82,28.34,0,12.58-8.44,29.03-32.87,29.03l-14.76.04v30.18h15.75c30.54,0,41.54,15.04,41.54,33.17,0,15.13-9.72,32.49-38.07,32.49s-40.8-18.12-41.31-39.16h-37.49c1.43,43.3,28.38,72.08,78.81,72.08,44.76,0,74.65-25.05,74.65-63.58,0-25.33-13.76-44.4-35.67-53.01Z"></path>
  <path d="M592.64,456.34c-27.61,0-78.02,11.61-78.02,107.8s48.89,109.46,78.02,109.46,78.02-13.27,78.02-109.46-50.4-107.8-78.02-107.8ZM592.64,641.14c-11.57,0-41.1-2.98-41.1-77s29.82-76.71,41.1-76.71,41.1,2.69,41.1,76.71-29.52,77-41.1,77Z"></path>
  <path d="M864.25,230l-19.16,102.94h-1.68c-4.78-4.8-10.32-13.07-15.39-19.54-15.43-19.68-38.26-52.91-81.35-52.91s-67.28,29.92-83.84,51.41c-16.28,21.12-23.9,32.09-39.49,32.09s-23.21-10.98-39.49-32.09c-16.56-21.48-39.24-51.41-83.84-51.41s-67.28,29.92-83.84,51.41c-16.28,21.12-23.9,32.09-39.49,32.09s-23.22-10.98-39.49-32.09c-16.56-21.48-39.24-51.41-83.84-51.41s-65.92,33.23-81.35,52.91c-5.07,6.47-10.62,14.74-15.39,19.54h-1.69l-19.16-102.94h-61.07l108.17,570h634.29l108.17-570h-61.07ZM768.96,742H231.04l-65.45-351.68c17.23-7.37,29.14-22.35,45.63-43.12,16.58-20.88,26.53-34.2,42.12-34.2s23.22,10.98,39.49,32.09c16.56,21.48,39.24,51.41,83.85,51.41s67.28-29.92,83.84-51.41c16.28-21.12,23.9-32.09,39.49-32.09s23.21,10.98,39.49,32.09c16.56,21.48,39.24,51.41,83.84,51.41s67.28-29.92,83.85-51.41c16.28-21.12,23.9-32.09,39.49-32.09s25.54,13.32,42.12,34.2c16.49,20.77,28.39,35.74,45.62,43.12l-65.45,351.69Z"></path>
  <rect class="cls-1" width="1000" height="1000"></rect>
</svg>
