<?xml version="1.0" encoding="UTF-8"?>
<svg xmlns="http://www.w3.org/2000/svg" id="icon" viewBox="0 0 1000 1000">
  <defs>
    <style>.cls-1{fill:none;}</style>
  </defs>
  <path d="M905,256.47l87.9-61.8-34.51-49.08-53.39,38.54v-89.12H95v88.02l-51.83-37.44-34.51,49.08,86.34,60.71v495.25l-86.34,60.71,34.51,49.08,51.83-37.44v82.04h810v-83.14l53.39,38.54,34.51-49.08-87.9-61.8v-493.05ZM835,702.3l-47.83-34.63c28.81-49.23,45.33-106.52,45.33-167.67s-15.59-115.15-42.88-163.41l45.38-31.91v397.62ZM227.5,500c0-46.87,11.84-90.98,32.68-129.5l188.44,132.49-186.05,130.81c-22.32-39.52-35.07-85.17-35.07-133.8ZM294.37,321.2c49.96-57.41,123.55-93.7,205.63-93.7s156.26,36.58,206.22,94.38l-205.44,144.44-206.41-145.12ZM500.78,539.66l202.18,142.15c-49.89,55.66-122.33,90.69-202.96,90.69s-152.49-34.74-202.36-90.01l203.14-142.82ZM552.94,502.99l187.3-131.69c20.58,38.33,32.26,82.15,32.26,128.7s-12.59,93.67-34.63,133.01l-184.93-130.02ZM165,165h670v66.34l-79.5,55.89c-60.99-73.16-152.8-119.73-255.5-119.73s-193.92,46.28-254.92,119.04l-80.08-56.3v-65.24ZM165,302.58l45.82,33.22c-27.57,48.44-43.32,104.48-43.32,164.2s16.7,119.04,45.79,168.45l-48.29,34.95v-400.82ZM835,835H165v-59.25l83.25-58.53c60.97,70.6,151.14,115.29,251.75,115.29s191.35-44.98,252.33-115.98l82.67,58.13v60.35Z"></path>
  <rect class="cls-1" width="1000" height="1000"></rect>
</svg>
