<?xml version="1.0" encoding="UTF-8"?>
<svg xmlns="http://www.w3.org/2000/svg" id="icon" viewBox="0 0 1000 1000">
  <defs>
    <style>.cls-1{fill:none;}</style>
  </defs>
  <rect class="cls-1" x="0" y="0" width="1000" height="1000"></rect>
  <path d="M690.91,30h-417.9v40.87h386.9l48.93,174.78h-355c-47.85,0-92.18,23.83-118.58,63.74l-135.18,204.36h726.25L690.91,30ZM269.35,331.93c18.81-28.44,50.4-45.42,84.49-45.42h366.44l52.17,186.36H176.12l93.23-140.95Z"></path>
  <circle cx="499.7" cy="384.08" r="30.95" transform="translate(-89.73 607.23) rotate(-58.28)"></circle>
  <path d="M716.51,787.36c0-25.19-9.37-49.37-25.05-67.8l-33.72,23.68c10.55,11.1,17.28,26.25,17.93,43.21,1.09,28.74-19.59,58.26-58.62,60.69-.04.1-.08.19-.11.28l-80.71-56.99,33.16-23.42h41.78l-3.68-26.91,101.52-71.68-23.57-33.39-84.18,59.44-20.24-148.16h-41.25l23.87,174.72-62.85,44.38-62.85-44.38,23.87-174.72h-41.25l-20.24,148.16-84.18-59.44-23.57,33.39,101.52,71.68-3.68,26.91h41.78l33.16,23.42-80.71,56.99c-.04-.1-.08-.19-.11-.28-39.03-2.43-59.71-31.95-58.62-60.69.65-16.96,7.38-32.11,17.93-43.21l-33.72-23.68c-15.68,18.43-25.05,42.61-25.05,67.8,0,44.07,25.93,76.21,56.38,90.55l-48.89,34.52,23.57,33.39,55.44-39.15c30.57,39.33,78.12,63.32,129.2,63.32s98.63-24,129.2-63.32l55.44,39.15,23.57-33.39-48.89-34.52c30.45-14.35,56.38-46.48,56.38-90.55ZM500.8,929.13c-35.76,0-71.46-15.89-95.76-46.07l95.76-67.62,95.76,67.62c-24.3,30.18-60,46.07-95.76,46.07Z"></path>
</svg>
