<?xml version="1.0" encoding="UTF-8"?>
<svg xmlns="http://www.w3.org/2000/svg" id="icon" viewBox="0 0 1000 1000">
  <defs>
    <style>.cls-1{fill:none;}</style>
  </defs>
  <rect class="cls-1" y="0" width="1000" height="1000"></rect>
  <path d="M195.29,521.49L19.91,791.15h946.91l-141.99-507.2,89.25-62.75-34.51-49.08-71.9,50.55-17.86-63.82H247.06v57h496.25l12.21,43.49-253.42,178.18h-4.18L120.42,172.11l-34.51,49.08,307.68,216.32h-42.08c-68.01,0-119.66,28.86-156.23,83.97ZM245.33,554.59c26.55-39.46,58.84-60.08,106.18-60.08h69.51l-252.94,177.84,77.25-117.76ZM578.98,494.52h242.33l59.74,212.38-302.07-212.38ZM815.5,734.15H184.5l315.5-221.82,315.5,221.82ZM772.7,320.6l32.81,116.92h-199.11l166.29-116.92Z"></path>
</svg>
