<?xml version="1.0" encoding="UTF-8"?>
<!--Generator: Apple Native CoreSVG 341-->
<!DOCTYPE svg
PUBLIC "-//W3C//DTD SVG 1.1//EN"
       "http://www.w3.org/Graphics/SVG/1.1/DTD/svg11.dtd">
<svg version="1.1" xmlns="http://www.w3.org/2000/svg" xmlns:xlink="http://www.w3.org/1999/xlink" viewBox="0 0 3300 2200">
 <!--glyph: "", point size: 100.0, font version: "20.0d10e1", template writer version: "138.0.0"-->
 <style>.SFSymbolsPreviewWireframe {fill:none;opacity:1.0;stroke:black;stroke-width:0.5}
</style>
 <g id="Notes">
  <rect height="2200" id="artboard" style="fill:white;opacity:1" width="3300" x="0" y="0"/>
  <line style="fill:none;stroke:black;opacity:1;stroke-width:0.5;" x1="263" x2="3036" y1="292" y2="292"/>
  <text style="stroke:none;fill:black;font-family:sans-serif;font-size:13;font-weight:bold;" transform="matrix(1 0 0 1 263 322)">Weight/Scale Variations</text>
  <text style="stroke:none;fill:black;font-family:sans-serif;font-size:13;text-anchor:middle;" transform="matrix(1 0 0 1 559.711 322)">Ultralight</text>
  <text style="stroke:none;fill:black;font-family:sans-serif;font-size:13;text-anchor:middle;" transform="matrix(1 0 0 1 856.422 322)">Thin</text>
  <text style="stroke:none;fill:black;font-family:sans-serif;font-size:13;text-anchor:middle;" transform="matrix(1 0 0 1 1153.13 322)">Light</text>
  <text style="stroke:none;fill:black;font-family:sans-serif;font-size:13;text-anchor:middle;" transform="matrix(1 0 0 1 1449.84 322)">Regular</text>
  <text style="stroke:none;fill:black;font-family:sans-serif;font-size:13;text-anchor:middle;" transform="matrix(1 0 0 1 1746.56 322)">Medium</text>
  <text style="stroke:none;fill:black;font-family:sans-serif;font-size:13;text-anchor:middle;" transform="matrix(1 0 0 1 2043.27 322)">Semibold</text>
  <text style="stroke:none;fill:black;font-family:sans-serif;font-size:13;text-anchor:middle;" transform="matrix(1 0 0 1 2339.98 322)">Bold</text>
  <text style="stroke:none;fill:black;font-family:sans-serif;font-size:13;text-anchor:middle;" transform="matrix(1 0 0 1 2636.69 322)">Heavy</text>
  <text style="stroke:none;fill:black;font-family:sans-serif;font-size:13;text-anchor:middle;" transform="matrix(1 0 0 1 2933.4 322)">Black</text>
  <line style="fill:none;stroke:black;opacity:1;stroke-width:0.5;" x1="263" x2="3036" y1="1903" y2="1903"/>
  <g transform="matrix(0.2 0 0 0.2 263 1933)">
   <path d="m46.2402 4.15039c21.7773 0 39.4531-17.627 39.4531-39.4043s-17.6758-39.4043-39.4531-39.4043c-21.7285 0-39.4043 17.627-39.4043 39.4043s17.6758 39.4043 39.4043 39.4043Zm0-7.42188c-17.6758 0-31.9336-14.3066-31.9336-31.9824s14.2578-31.9824 31.9336-31.9824 31.9824 14.3066 31.9824 31.9824-14.3066 31.9824-31.9824 31.9824Zm-17.9688-31.9824c0 2.14844 1.51367 3.61328 3.75977 3.61328h10.498v10.5957c0 2.19727 1.46484 3.71094 3.61328 3.71094 2.24609 0 3.71094-1.51367 3.71094-3.71094v-10.5957h10.5957c2.19727 0 3.71094-1.46484 3.71094-3.61328 0-2.19727-1.51367-3.71094-3.71094-3.71094h-10.5957v-10.5469c0-2.24609-1.46484-3.75977-3.71094-3.75977-2.14844 0-3.61328 1.51367-3.61328 3.75977v10.5469h-10.498c-2.24609 0-3.75977 1.51367-3.75977 3.71094Z"/>
  </g>
  <g transform="matrix(0.2 0 0 0.2 281.506 1933)">
   <path d="m58.5449 14.5508c27.4902 0 49.8047-22.3145 49.8047-49.8047s-22.3145-49.8047-49.8047-49.8047-49.8047 22.3145-49.8047 49.8047 22.3145 49.8047 49.8047 49.8047Zm0-8.30078c-22.9492 0-41.5039-18.5547-41.5039-41.5039s18.5547-41.5039 41.5039-41.5039 41.5039 18.5547 41.5039 41.5039-18.5547 41.5039-41.5039 41.5039Zm-22.6562-41.5039c0 2.39258 1.66016 4.00391 4.15039 4.00391h14.3555v14.4043c0 2.44141 1.66016 4.15039 4.05273 4.15039 2.44141 0 4.15039-1.66016 4.15039-4.15039v-14.4043h14.4043c2.44141 0 4.15039-1.61133 4.15039-4.00391 0-2.44141-1.70898-4.15039-4.15039-4.15039h-14.4043v-14.3555c0-2.49023-1.70898-4.19922-4.15039-4.19922-2.39258 0-4.05273 1.70898-4.05273 4.19922v14.3555h-14.3555c-2.49023 0-4.15039 1.70898-4.15039 4.15039Z"/>
  </g>
  <g transform="matrix(0.2 0 0 0.2 304.924 1933)">
   <path d="m74.8535 28.3203c35.1074 0 63.623-28.4668 63.623-63.5742s-28.5156-63.623-63.623-63.623-63.5742 28.5156-63.5742 63.623 28.4668 63.5742 63.5742 63.5742Zm0-9.08203c-30.127 0-54.4922-24.3652-54.4922-54.4922s24.3652-54.4922 54.4922-54.4922 54.4922 24.3652 54.4922 54.4922-24.3652 54.4922-54.4922 54.4922Zm-28.8574-54.4922c0 2.58789 1.85547 4.39453 4.58984 4.39453h19.7266v19.7754c0 2.68555 1.85547 4.58984 4.44336 4.58984 2.68555 0 4.54102-1.85547 4.54102-4.58984v-19.7754h19.7754c2.68555 0 4.58984-1.80664 4.58984-4.39453 0-2.73438-1.85547-4.58984-4.58984-4.58984h-19.7754v-19.7266c0-2.73438-1.85547-4.63867-4.54102-4.63867-2.58789 0-4.44336 1.9043-4.44336 4.63867v19.7266h-19.7266c-2.73438 0-4.58984 1.85547-4.58984 4.58984Z"/>
  </g>
  <text style="stroke:none;fill:black;font-family:sans-serif;font-size:13;font-weight:bold;" transform="matrix(1 0 0 1 263 1953)">Design Variations</text>
  <text style="stroke:none;fill:black;font-family:sans-serif;font-size:13;" transform="matrix(1 0 0 1 263 1971)">Symbols are supported in up to nine weights and three scales.</text>
  <text style="stroke:none;fill:black;font-family:sans-serif;font-size:13;" transform="matrix(1 0 0 1 263 1989)">For optimal layout with text and other symbols, vertically align</text>
  <text style="stroke:none;fill:black;font-family:sans-serif;font-size:13;" transform="matrix(1 0 0 1 263 2007)">symbols with the adjacent text.</text>
  <line style="fill:none;stroke:#00AEEF;stroke-width:0.5;opacity:1.0;" x1="776" x2="776" y1="1919" y2="1933"/>
  <g transform="matrix(0.2 0 0 0.2 776 1933)">
   <path d="m16.5527 0.78125c2.58789 0 3.85742-0.976562 4.78516-3.71094l6.29883-17.2363h28.8086l6.29883 17.2363c0.927734 2.73438 2.19727 3.71094 4.73633 3.71094 2.58789 0 4.24805-1.5625 4.24805-4.00391 0-0.830078-0.146484-1.61133-0.537109-2.63672l-22.9004-60.9863c-1.12305-2.97852-3.125-4.49219-6.25-4.49219-3.02734 0-5.07812 1.46484-6.15234 4.44336l-22.9004 61.084c-0.390625 1.02539-0.537109 1.80664-0.537109 2.63672 0 2.44141 1.5625 3.95508 4.10156 3.95508Zm13.4766-28.3691 11.8652-32.8613h0.244141l11.8652 32.8613Z"/>
  </g>
  <line style="fill:none;stroke:#00AEEF;stroke-width:0.5;opacity:1.0;" x1="792.836" x2="792.836" y1="1919" y2="1933"/>
  <text style="stroke:none;fill:black;font-family:sans-serif;font-size:13;font-weight:bold;" transform="matrix(1 0 0 1 776 1953)">Margins</text>
  <text style="stroke:none;fill:black;font-family:sans-serif;font-size:13;" transform="matrix(1 0 0 1 776 1971)">Leading and trailing margins on the left and right side of each symbol</text>
  <text style="stroke:none;fill:black;font-family:sans-serif;font-size:13;" transform="matrix(1 0 0 1 776 1989)">can be adjusted by modifying the x-location of the margin guidelines.</text>
  <text style="stroke:none;fill:black;font-family:sans-serif;font-size:13;" transform="matrix(1 0 0 1 776 2007)">Modifications are automatically applied proportionally to all</text>
  <text style="stroke:none;fill:black;font-family:sans-serif;font-size:13;" transform="matrix(1 0 0 1 776 2025)">scales and weights.</text>
  <g transform="matrix(0.2 0 0 0.2 1289 1933)">
   <path d="m14.209 9.32617 8.49609 8.54492c4.29688 4.3457 9.22852 4.05273 13.8672-1.07422l53.4668-58.9355-4.83398-4.88281-53.0762 58.3984c-1.75781 2.00195-3.41797 2.49023-5.76172 0.146484l-5.85938-5.81055c-2.34375-2.29492-1.80664-4.00391 0.195312-5.81055l57.373-54.0039-4.88281-4.83398-57.959 54.4434c-4.93164 4.58984-5.32227 9.47266-1.02539 13.8184Zm32.0801-90.9668c-2.09961 2.05078-2.24609 4.93164-1.07422 6.88477 1.17188 1.80664 3.4668 2.97852 6.68945 2.14844 7.32422-1.70898 14.9414-2.00195 22.0703 2.68555l-2.92969 7.27539c-1.70898 4.15039-0.830078 7.08008 1.85547 9.81445l11.4746 11.5723c2.44141 2.44141 4.49219 2.53906 7.32422 2.05078l5.32227-0.976562 3.32031 3.36914-0.195312 2.7832c-0.195312 2.49023 0.439453 4.39453 2.88086 6.78711l3.80859 3.71094c2.39258 2.39258 5.46875 2.53906 7.8125 0.195312l14.5508-14.5996c2.34375-2.34375 2.24609-5.32227-0.146484-7.71484l-3.85742-3.80859c-2.39258-2.39258-4.24805-3.17383-6.64062-2.97852l-2.88086 0.244141-3.22266-3.17383 1.2207-5.61523c0.634766-2.83203-0.146484-5.0293-3.07617-7.95898l-10.9863-10.9375c-16.6992-16.6016-38.8672-16.2109-53.3203-1.75781Zm7.4707 1.85547c12.1582-8.88672 28.6133-7.37305 39.7461 3.75977l12.1582 12.0605c1.17188 1.17188 1.36719 2.09961 1.02539 3.80859l-1.61133 7.42188 7.51953 7.42188 4.93164-0.292969c1.26953-0.0488281 1.66016 0.0488281 2.63672 1.02539l2.88086 2.88086-12.207 12.207-2.88086-2.88086c-0.976562-0.976562-1.12305-1.36719-1.07422-2.68555l0.341797-4.88281-7.4707-7.42188-7.61719 1.26953c-1.61133 0.341797-2.34375 0.195312-3.56445-0.976562l-10.0098-10.0098c-1.26953-1.17188-1.41602-2.00195-0.634766-3.85742l4.39453-10.4492c-7.8125-7.27539-17.9688-10.4004-28.125-7.42188-0.78125 0.195312-1.07422-0.439453-0.439453-0.976562Z"/>
  </g>
  <text style="stroke:none;fill:black;font-family:sans-serif;font-size:13;font-weight:bold;" transform="matrix(1 0 0 1 1289 1953)">Exporting</text>
  <text style="stroke:none;fill:black;font-family:sans-serif;font-size:13;" transform="matrix(1 0 0 1 1289 1971)">Symbols should be outlined when exporting to ensure the</text>
  <text style="stroke:none;fill:black;font-family:sans-serif;font-size:13;" transform="matrix(1 0 0 1 1289 1989)">design is preserved when submitting to Xcode.</text>
  <text id="template-version" style="stroke:none;fill:black;font-family:sans-serif;font-size:13;text-anchor:end;" transform="matrix(1 0 0 1 3036 1933)">Template v.6.0</text>
  <text style="stroke:none;fill:black;font-family:sans-serif;font-size:13;text-anchor:end;" transform="matrix(1 0 0 1 3036 1951)">Requires Xcode 16 or greater</text>
  <text id="descriptive-name" style="stroke:none;fill:black;font-family:sans-serif;font-size:13;text-anchor:end;" transform="matrix(1 0 0 1 3036 1969)">Generated from sheep.symbols</text>
  <text style="stroke:none;fill:black;font-family:sans-serif;font-size:13;text-anchor:end;" transform="matrix(1 0 0 1 3036 1987)">Typeset at 100.0 points</text>
  <text style="stroke:none;fill:black;font-family:sans-serif;font-size:13;" transform="matrix(1 0 0 1 263 726)">Small</text>
  <text style="stroke:none;fill:black;font-family:sans-serif;font-size:13;" transform="matrix(1 0 0 1 263 1156)">Medium</text>
  <text style="stroke:none;fill:black;font-family:sans-serif;font-size:13;" transform="matrix(1 0 0 1 263 1586)">Large</text>
 </g>
 <g id="Guides">
  <g id="H-reference" style="fill:#27AAE1;stroke:none;" transform="matrix(1 0 0 1 339 696)">
   <path d="M0.993654 0L3.63775 0L29.3281-67.1323L30.0303-67.1323L30.0303-70.459L28.1226-70.459ZM11.6885-24.4799L46.9815-24.4799L46.2315-26.7285L12.4385-26.7285ZM55.1196 0L57.7637 0L30.6382-70.459L29.4326-70.459L29.4326-67.1323Z"/>
  </g>
  <line id="Baseline-S" style="fill:none;stroke:#27AAE1;opacity:1;stroke-width:0.5;" x1="263" x2="3036" y1="696" y2="696"/>
  <line id="Capline-S" style="fill:none;stroke:#27AAE1;opacity:1;stroke-width:0.5;" x1="263" x2="3036" y1="625.541" y2="625.541"/>
  <g id="H-reference" style="fill:#27AAE1;stroke:none;" transform="matrix(1 0 0 1 339 1126)">
   <path d="M0.993654 0L3.63775 0L29.3281-67.1323L30.0303-67.1323L30.0303-70.459L28.1226-70.459ZM11.6885-24.4799L46.9815-24.4799L46.2315-26.7285L12.4385-26.7285ZM55.1196 0L57.7637 0L30.6382-70.459L29.4326-70.459L29.4326-67.1323Z"/>
  </g>
  <line id="Baseline-M" style="fill:none;stroke:#27AAE1;opacity:1;stroke-width:0.5;" x1="263" x2="3036" y1="1126" y2="1126"/>
  <line id="Capline-M" style="fill:none;stroke:#27AAE1;opacity:1;stroke-width:0.5;" x1="263" x2="3036" y1="1055.54" y2="1055.54"/>
  <g id="H-reference" style="fill:#27AAE1;stroke:none;" transform="matrix(1 0 0 1 339 1556)">
   <path d="M0.993654 0L3.63775 0L29.3281-67.1323L30.0303-67.1323L30.0303-70.459L28.1226-70.459ZM11.6885-24.4799L46.9815-24.4799L46.2315-26.7285L12.4385-26.7285ZM55.1196 0L57.7637 0L30.6382-70.459L29.4326-70.459L29.4326-67.1323Z"/>
  </g>
  <line id="Baseline-L" style="fill:none;stroke:#27AAE1;opacity:1;stroke-width:0.5;" x1="263" x2="3036" y1="1556" y2="1556"/>
  <line id="Capline-L" style="fill:none;stroke:#27AAE1;opacity:1;stroke-width:0.5;" x1="263" x2="3036" y1="1485.54" y2="1485.54"/>
  <line id="right-margin-Black-S" style="fill:none;stroke:#00AEEF;stroke-width:0.5;opacity:1.0;" x1="2979.77" x2="2979.77" y1="600.785" y2="720.121"/>
  <line id="left-margin-Black-S" style="fill:none;stroke:#00AEEF;stroke-width:0.5;opacity:1.0;" x1="2887.03" x2="2887.03" y1="600.785" y2="720.121"/>
  <line id="right-margin-Regular-S" style="fill:none;stroke:#00AEEF;stroke-width:0.5;opacity:1.0;" x1="1496.22" x2="1496.22" y1="600.785" y2="720.121"/>
  <line id="left-margin-Regular-S" style="fill:none;stroke:#00AEEF;stroke-width:0.5;opacity:1.0;" x1="1403.47" x2="1403.47" y1="600.785" y2="720.121"/>
  <line id="right-margin-Ultralight-S" style="fill:none;stroke:#00AEEF;stroke-width:0.5;opacity:1.0;" x1="606.082" x2="606.082" y1="600.785" y2="720.121"/>
  <line id="left-margin-Ultralight-S" style="fill:none;stroke:#00AEEF;stroke-width:0.5;opacity:1.0;" x1="513.34" x2="513.34" y1="600.785" y2="720.121"/>
 </g>
 <g id="Symbols">
  <g id="Black-S" transform="matrix(1.00656 0 0 1.00656 2887.03 696)">
   <path class="SFSymbolsPreviewWireframe" d="M79.938-44.239C78.857-46.004 77.421-47.523 75.73-48.706C75.881-49.568 75.967-50.439 75.967-51.31C75.967-53.228 75.601-55.147 74.869-56.955C74.137-58.763 73.034-60.459 71.574-61.92C70.113-63.381 68.417-64.483 66.609-65.215C64.801-65.948 62.882-66.314 60.964-66.314C60.093-66.314 59.221-66.229 58.359-66.077C57.175-67.767 55.658-69.204 53.893-70.285C51.617-71.679 48.927-72.486 46.069-72.484C43.21-72.486 40.521-71.679 38.245-70.285C36.48-69.204 34.963-67.767 33.779-66.077C32.917-66.229 32.045-66.314 31.173-66.314C29.256-66.314 27.337-65.949 25.529-65.216C23.721-64.483 22.024-63.381 20.564-61.919C19.103-60.46 18.001-58.763 17.269-56.955C16.536-55.148 16.17-53.229 16.17-51.312C16.17-50.44 16.256-49.568 16.407-48.706C14.717-47.523 13.28-46.004 12.199-44.239C10.805-41.963 9.998-39.274 10-36.415C9.998-33.557 10.805-30.868 12.199-28.593C13.28-26.828 14.717-25.309 16.407-24.125C16.255-23.263 16.17-22.392 16.17-21.519C16.17-19.601 16.536-17.683 17.269-15.875C18.001-14.068 19.103-12.371 20.564-10.911C22.024-9.45 23.721-8.347 25.528-7.615C26.369-7.275 27.235-7.016 28.113-6.834L28.113-1.894C28.113 0.443 30.008 2.338 32.345 2.338C34.683 2.338 36.578 0.443 36.578-1.894L36.578-3.732C37.105-3.301 37.662-2.903 38.245-2.545C40.521-1.151 43.21-0.346 46.069-0.346C48.927-0.346 51.617-1.151 53.892-2.545C54.476-2.903 55.033-3.3 55.56-3.732L55.56-1.894C55.56 0.443 57.455 2.338 59.792 2.338C62.13 2.338 64.025 0.443 64.025-1.894L64.025-6.835C64.903-7.016 65.768-7.275 66.609-7.616C68.417-8.347 70.113-9.45 71.574-10.91C73.034-12.371 74.137-14.067 74.869-15.875C75.602-17.684 75.968-19.602 75.968-21.519C75.968-22.393 75.882-23.263 75.731-24.125C77.421-25.309 78.858-26.827 79.938-28.593C81.333-30.867 82.138-33.557 82.138-36.415C82.139-39.273 81.333-41.963 79.938-44.239ZM76-31.003C75.036-29.426 73.658-28.123 72.023-27.25C71.051-26.73 70.584-25.598 70.902-24.544C71.201-23.561 71.35-22.541 71.35-21.519C71.35-20.187 71.096-18.858 70.59-17.609C70.084-16.36 69.328-15.194 68.308-14.175C67.291-13.157 66.123-12.401 64.875-11.895C63.626-11.389 62.296-11.134 60.965-11.134C59.944-11.134 58.924-11.284 57.94-11.582C56.886-11.901 55.754-11.432 55.235-10.461C54.361-8.827 53.058-7.448 51.481-6.483C49.903-5.518 48.061-4.964 46.069-4.963C44.076-4.964 42.235-5.518 40.656-6.483C39.08-7.448 37.777-8.827 36.903-10.461C36.383-11.432 35.251-11.901 34.197-11.582C33.213-11.284 32.192-11.133 31.172-11.134C29.841-11.133 28.511-11.387 27.262-11.894C26.014-12.401 24.846-13.157 23.829-14.175C22.81-15.194 22.053-16.361 21.547-17.609C21.041-18.858 20.787-20.187 20.787-21.519C20.787-22.54 20.936-23.56 21.235-24.544C21.554-25.598 21.085-26.73 20.115-27.25C18.48-28.123 17.102-29.426 16.136-31.003C15.172-32.581 14.617-34.424 14.616-36.415C14.617-38.407 15.172-40.25 16.136-41.827C17.101-43.405 18.479-44.708 20.115-45.581C21.085-46.101 21.554-47.233 21.235-48.286C20.936-49.27 20.787-50.291 20.787-51.311C20.787-52.642 21.041-53.972 21.547-55.221C22.054-56.47 22.81-57.637 23.829-58.655C24.848-59.674 26.014-60.431 27.263-60.937C28.511-61.443 29.841-61.697 31.173-61.697C32.193-61.697 33.214-61.547 34.197-61.249C35.251-60.93 36.384-61.399 36.903-62.37C37.777-64.004 39.08-65.382 40.656-66.347C42.235-67.312 44.076-67.867 46.068-67.867C48.061-67.867 49.903-67.312 51.481-66.347C53.057-65.382 54.361-64.004 55.234-62.37C55.753-61.398 56.886-60.93 57.94-61.249C58.923-61.547 59.944-61.697 60.964-61.697C62.296-61.697 63.626-61.442 64.874-60.936C66.123-60.43 67.289-59.674 68.308-58.655C69.326-57.637 70.083-56.47 70.59-55.222C71.095-53.972 71.349-52.642 71.349-51.31C71.349-50.291 71.199-49.27 70.902-48.286C70.582-47.232 71.051-46.101 72.022-45.581C73.658-44.708 75.035-43.404 76.001-41.827C76.965-40.249 77.52-38.407 77.521-36.415C77.52-34.424 76.966-32.581 76-31.003ZM60.121-46.514C54.131-44.206 53.671-44.206 53.671-44.206C53.671-44.206 52.059-44.206 46.069-44.206C40.079-44.206 38.467-44.206 38.467-44.206C38.467-44.206 38.007-44.206 32.017-46.514C26.027-48.823 25.567-38.434 36.164-35.55C36.164-35.55 37.776-18.236 46.069-18.236C54.362-18.236 55.974-35.55 55.974-35.55C66.571-38.434 66.111-48.823 60.121-46.514Z"/>
  </g>
  <g id="Regular-S" transform="matrix(1.00656 0 0 1.00656 1403.47 696)">
   <path class="SFSymbolsPreviewWireframe" d="M79.938-44.239C78.857-46.004 77.421-47.523 75.73-48.706C75.881-49.568 75.967-50.439 75.967-51.31C75.967-53.228 75.601-55.147 74.869-56.955C74.137-58.763 73.034-60.459 71.574-61.92C70.113-63.381 68.417-64.483 66.609-65.215C64.801-65.948 62.882-66.314 60.964-66.314C60.093-66.314 59.221-66.229 58.359-66.077C57.175-67.767 55.658-69.204 53.893-70.285C51.617-71.679 48.927-72.486 46.069-72.484C43.21-72.486 40.521-71.679 38.245-70.285C36.48-69.204 34.963-67.767 33.779-66.077C32.917-66.229 32.045-66.314 31.174-66.314C29.256-66.314 27.337-65.949 25.529-65.216C23.721-64.483 22.024-63.381 20.564-61.919C19.103-60.46 18.001-58.763 17.269-56.955C16.536-55.148 16.17-53.229 16.17-51.312C16.17-50.44 16.256-49.568 16.407-48.706C14.717-47.523 13.28-46.004 12.199-44.239C10.805-41.963 9.998-39.274 10-36.415C9.998-33.557 10.805-30.868 12.199-28.593C13.28-26.828 14.717-25.309 16.407-24.125C16.255-23.263 16.17-22.392 16.17-21.519C16.17-19.601 16.536-17.683 17.269-15.875C18.001-14.068 19.103-12.371 20.564-10.911C22.024-9.45 23.721-8.347 25.528-7.615C26.369-7.275 27.235-7.016 28.113-6.834L28.113-1.894C28.113 0.443 30.008 2.338 32.345 2.338C34.683 2.338 36.578 0.443 36.578-1.894L36.578-3.732C37.105-3.301 37.662-2.903 38.245-2.545C40.521-1.151 43.21-0.346 46.069-0.346C48.927-0.346 51.617-1.151 53.892-2.545C54.476-2.903 55.033-3.3 55.56-3.732L55.56-1.894C55.56 0.443 57.455 2.338 59.792 2.338C62.13 2.338 64.025 0.443 64.025-1.894L64.025-6.835C64.903-7.016 65.768-7.275 66.609-7.616C68.417-8.347 70.113-9.45 71.574-10.91C73.034-12.371 74.137-14.067 74.869-15.875C75.602-17.684 75.968-19.602 75.968-21.519C75.968-22.393 75.882-23.263 75.731-24.125C77.421-25.309 78.858-26.827 79.938-28.593C81.333-30.867 82.138-33.557 82.138-36.415C82.139-39.273 81.333-41.963 79.938-44.239ZM76-31.003C75.036-29.426 73.658-28.123 72.023-27.25C71.051-26.73 70.584-25.598 70.902-24.544C71.201-23.561 71.35-22.541 71.35-21.519C71.35-20.187 71.096-18.858 70.59-17.609C70.084-16.36 69.328-15.194 68.308-14.175C67.291-13.157 66.123-12.401 64.875-11.895C63.626-11.389 62.296-11.134 60.965-11.134C59.944-11.134 58.924-11.284 57.94-11.582C56.886-11.901 55.754-11.432 55.235-10.461C54.361-8.827 53.058-7.448 51.481-6.483C49.903-5.518 48.061-4.964 46.069-4.963C44.076-4.964 42.235-5.518 40.656-6.483C39.08-7.448 37.777-8.827 36.903-10.461C36.383-11.432 35.251-11.901 34.197-11.582C33.213-11.284 32.192-11.133 31.172-11.134C29.841-11.133 28.511-11.387 27.262-11.894C26.014-12.401 24.847-13.157 23.829-14.175C22.81-15.194 22.054-16.361 21.547-17.609C21.041-18.858 20.787-20.187 20.787-21.519C20.787-22.54 20.936-23.56 21.235-24.544C21.554-25.598 21.085-26.73 20.115-27.25C18.48-28.123 17.102-29.426 16.136-31.003C15.172-32.581 14.617-34.424 14.616-36.415C14.617-38.407 15.172-40.25 16.136-41.827C17.102-43.405 18.479-44.708 20.115-45.581C21.085-46.101 21.554-47.233 21.235-48.286C20.936-49.27 20.787-50.291 20.787-51.311C20.787-52.642 21.041-53.972 21.547-55.221C22.054-56.47 22.81-57.637 23.829-58.655C24.848-59.674 26.014-60.431 27.263-60.937C28.511-61.443 29.841-61.697 31.173-61.697C32.193-61.697 33.214-61.547 34.197-61.249C35.251-60.93 36.384-61.399 36.903-62.37C37.777-64.004 39.08-65.382 40.656-66.347C42.235-67.312 44.076-67.867 46.068-67.867C48.061-67.867 49.903-67.312 51.481-66.347C53.057-65.382 54.361-64.004 55.234-62.37C55.753-61.398 56.886-60.93 57.94-61.249C58.923-61.547 59.944-61.697 60.964-61.697C62.296-61.697 63.626-61.442 64.874-60.936C66.123-60.43 67.289-59.674 68.308-58.655C69.326-57.637 70.083-56.47 70.59-55.222C71.095-53.972 71.349-52.642 71.349-51.31C71.349-50.291 71.2-49.27 70.902-48.286C70.582-47.232 71.051-46.101 72.022-45.581C73.658-44.708 75.035-43.404 76.001-41.827C76.966-40.249 77.52-38.407 77.521-36.415C77.52-34.424 76.966-32.581 76-31.003ZM60.121-46.514C54.131-44.206 53.671-44.206 53.671-44.206C53.671-44.206 52.059-44.206 46.069-44.206C40.079-44.206 38.467-44.206 38.467-44.206C38.467-44.206 38.007-44.206 32.017-46.514C26.027-48.823 25.567-38.434 36.164-35.55C36.164-35.55 37.776-18.236 46.069-18.236C54.362-18.236 55.974-35.55 55.974-35.55C66.571-38.434 66.111-48.823 60.121-46.514Z"/>
  </g>
  <g id="Ultralight-S" transform="matrix(1.00656 0 0 1.00656 513.34 696)">
   <path class="SFSymbolsPreviewWireframe" d="M79.938-44.239C78.857-46.004 77.421-47.523 75.73-48.706C75.881-49.568 75.967-50.439 75.967-51.31C75.967-53.228 75.601-55.147 74.869-56.955C74.137-58.763 73.034-60.459 71.574-61.92C70.113-63.381 68.417-64.483 66.609-65.215C64.801-65.948 62.882-66.314 60.964-66.314C60.093-66.314 59.221-66.229 58.359-66.077C57.175-67.767 55.658-69.204 53.893-70.285C51.617-71.679 48.927-72.486 46.069-72.484C43.21-72.486 40.521-71.679 38.245-70.285C36.48-69.204 34.963-67.767 33.779-66.077C32.917-66.229 32.045-66.314 31.174-66.314C29.256-66.314 27.337-65.949 25.529-65.216C23.721-64.483 22.024-63.381 20.564-61.919C19.103-60.46 18.001-58.763 17.269-56.955C16.536-55.148 16.17-53.229 16.17-51.312C16.17-50.44 16.256-49.568 16.407-48.706C14.717-47.523 13.28-46.004 12.199-44.239C10.805-41.963 9.998-39.274 10-36.415C9.998-33.557 10.805-30.868 12.199-28.593C13.28-26.828 14.717-25.309 16.407-24.125C16.255-23.263 16.17-22.392 16.17-21.519C16.17-19.601 16.536-17.683 17.269-15.875C18.001-14.068 19.103-12.371 20.564-10.911C22.024-9.45 23.721-8.347 25.528-7.615C26.369-7.275 27.235-7.016 28.113-6.834L28.113-1.894C28.113 0.443 30.008 2.338 32.345 2.338C34.683 2.338 36.578 0.443 36.578-1.894L36.578-3.732C37.105-3.301 37.662-2.903 38.245-2.545C40.521-1.151 43.21-0.346 46.069-0.346C48.927-0.346 51.617-1.151 53.892-2.545C54.476-2.903 55.033-3.3 55.56-3.732L55.56-1.894C55.56 0.443 57.455 2.338 59.792 2.338C62.13 2.338 64.025 0.443 64.025-1.894L64.025-6.835C64.903-7.016 65.768-7.275 66.609-7.616C68.417-8.347 70.113-9.45 71.574-10.91C73.034-12.371 74.137-14.067 74.869-15.875C75.602-17.684 75.968-19.602 75.968-21.519C75.968-22.393 75.882-23.263 75.731-24.125C77.421-25.309 78.858-26.827 79.938-28.593C81.333-30.867 82.138-33.557 82.138-36.415C82.139-39.273 81.333-41.963 79.938-44.239ZM76-31.003C75.036-29.426 73.658-28.123 72.023-27.25C71.051-26.73 70.584-25.598 70.902-24.544C71.201-23.561 71.35-22.541 71.35-21.519C71.35-20.187 71.096-18.858 70.59-17.609C70.084-16.36 69.328-15.194 68.308-14.175C67.291-13.157 66.123-12.401 64.875-11.895C63.626-11.389 62.296-11.134 60.965-11.134C59.944-11.134 58.924-11.284 57.94-11.582C56.886-11.901 55.754-11.432 55.235-10.461C54.361-8.827 53.058-7.448 51.481-6.483C49.903-5.518 48.061-4.964 46.069-4.963C44.076-4.964 42.235-5.518 40.656-6.483C39.08-7.448 37.777-8.827 36.903-10.461C36.383-11.432 35.251-11.901 34.197-11.582C33.213-11.284 32.192-11.133 31.172-11.134C29.841-11.133 28.511-11.387 27.262-11.894C26.014-12.401 24.847-13.157 23.829-14.175C22.81-15.194 22.054-16.361 21.547-17.609C21.041-18.858 20.787-20.187 20.787-21.519C20.787-22.54 20.936-23.56 21.235-24.544C21.554-25.598 21.085-26.73 20.115-27.25C18.48-28.123 17.102-29.426 16.136-31.003C15.172-32.581 14.617-34.424 14.616-36.415C14.617-38.407 15.172-40.25 16.136-41.827C17.102-43.405 18.479-44.708 20.115-45.581C21.085-46.101 21.554-47.233 21.235-48.286C20.936-49.27 20.787-50.291 20.787-51.311C20.787-52.642 21.041-53.972 21.547-55.221C22.054-56.47 22.81-57.637 23.829-58.655C24.848-59.674 26.014-60.431 27.263-60.937C28.511-61.443 29.841-61.697 31.173-61.697C32.193-61.697 33.214-61.547 34.197-61.249C35.251-60.93 36.384-61.399 36.903-62.37C37.777-64.004 39.08-65.382 40.656-66.347C42.235-67.312 44.076-67.867 46.068-67.867C48.061-67.867 49.903-67.312 51.481-66.347C53.057-65.382 54.361-64.004 55.234-62.37C55.753-61.398 56.886-60.93 57.94-61.249C58.923-61.547 59.944-61.697 60.964-61.697C62.296-61.697 63.626-61.442 64.874-60.936C66.123-60.43 67.289-59.674 68.308-58.655C69.326-57.637 70.083-56.47 70.59-55.222C71.095-53.972 71.349-52.642 71.349-51.31C71.349-50.291 71.2-49.27 70.902-48.286C70.582-47.232 71.051-46.101 72.022-45.581C73.658-44.708 75.035-43.404 76.001-41.827C76.966-40.249 77.52-38.407 77.521-36.415C77.52-34.424 76.966-32.581 76-31.003ZM60.121-46.514C54.131-44.206 53.671-44.206 53.671-44.206C53.671-44.206 52.059-44.206 46.069-44.206C40.079-44.206 38.467-44.206 38.467-44.206C38.467-44.206 38.007-44.206 32.017-46.514C26.027-48.823 25.567-38.434 36.164-35.55C36.164-35.55 37.776-18.236 46.069-18.236C54.362-18.236 55.974-35.55 55.974-35.55C66.571-38.434 66.111-48.823 60.121-46.514Z"/>
  </g>
 </g>
</svg>
