<?xml version="1.0" encoding="UTF-8"?>
<svg xmlns="http://www.w3.org/2000/svg" id="icon" viewBox="0 0 1000 1000">
  <defs>
    <style>.cls-1{fill:none;}</style>
  </defs>
  <path d="M423.7,529.43c-17.68,0-32.76,6.59-41.84,13.76l6.75-51.19h84.23v-32h-111.71l-16.54,114.95,28.23,1.57c14.88-13.64,30.52-17.36,40.86-17.36,26.41,0,37.76,18.74,37.76,37.29,0,27.04-15.1,43.98-39.77,43.98-21.46,0-34.33-10.68-37.97-28.08h-34.79c4.09,31.71,25.75,60.55,72.75,60.55,49.61,0,76.35-33.66,76.35-76.44,0-37.73-23.79-67.02-64.33-67.02Z"></path>
  <path d="M594.76,456.34c-27.61,0-78.02,11.61-78.02,107.8s48.89,109.46,78.02,109.46,78.02-13.27,78.02-109.46-50.4-107.8-78.02-107.8ZM594.76,641.14c-11.57,0-41.1-2.98-41.1-77s29.82-76.71,41.1-76.71,41.1,2.69,41.1,76.71-29.52,77-41.1,77Z"></path>
  <path d="M864.25,230l-19.16,102.94h-1.68c-4.78-4.8-10.32-13.07-15.39-19.54-15.43-19.68-38.26-52.91-81.35-52.91s-67.28,29.92-83.84,51.41c-16.28,21.12-23.9,32.09-39.49,32.09s-23.21-10.98-39.49-32.09c-16.56-21.48-39.24-51.41-83.84-51.41s-67.28,29.92-83.84,51.41c-16.28,21.12-23.9,32.09-39.49,32.09s-23.22-10.98-39.49-32.09c-16.56-21.48-39.24-51.41-83.84-51.41s-65.92,33.23-81.35,52.91c-5.07,6.47-10.62,14.74-15.39,19.54h-1.69l-19.16-102.94h-61.07l108.17,570h634.29l108.17-570h-61.07ZM768.96,742H231.04l-65.45-351.68c17.23-7.37,29.14-22.35,45.63-43.12,16.58-20.88,26.53-34.2,42.12-34.2s23.22,10.98,39.49,32.09c16.56,21.48,39.24,51.41,83.85,51.41s67.28-29.92,83.84-51.41c16.28-21.12,23.9-32.09,39.49-32.09s23.21,10.98,39.49,32.09c16.56,21.48,39.24,51.41,83.84,51.41s67.28-29.92,83.85-51.41c16.28-21.12,23.9-32.09,39.49-32.09s25.54,13.32,42.12,34.2c16.49,20.77,28.39,35.74,45.62,43.12l-65.45,351.69Z"></path>
  <rect class="cls-1" x="0" width="1000" height="1000"></rect>
</svg>
