<?xml version="1.0" encoding="UTF-8"?>
<svg xmlns="http://www.w3.org/2000/svg" id="icon" viewBox="0 0 1000 1000">
  <path d="M925.31,230h-61.07l-8.08,43.41-19.08-27.13-43.15,30.34c-12.4-9.29-27.75-16.12-47.27-16.12-44.6,0-67.28,29.92-83.84,51.41-16.28,21.12-23.9,32.09-39.49,32.09s-23.21-10.98-39.49-32.09c-16.56-21.48-39.24-51.41-83.84-51.41s-67.28,29.92-83.84,51.41c-16.28,21.12-23.9,32.09-39.49,32.09s-23.22-10.98-39.49-32.09c-16.56-21.48-39.24-51.41-83.84-51.41-19.52,0-34.87,6.83-47.27,16.12l-43.15-30.34-19.09,27.15-8.08-43.43h-61.07l92.48,487.3-35.3,24.82,31.06,44.17,15.29-10.75,4.64,24.46h634.29l4.64-24.47,15.3,10.76,31.06-44.17-35.31-24.82,92.48-487.29ZM780.41,680.43l-233.47-164.15,241.36-169.7c.16.2.32.4.48.61,16.49,20.77,28.39,35.74,45.62,43.12l-53.99,290.12ZM850.71,302.71l-5.63,30.23h-1.68c-3.97-3.98-8.46-10.36-12.78-16.12l20.08-14.12ZM741.56,313.44l-21.2,14.91c7.17-8.44,13.19-13.46,21.2-14.91ZM460.51,345.09c16.28-21.12,23.9-32.09,39.49-32.09s23.21,10.98,39.49,32.09c16.56,21.48,39.24,51.41,83.84,51.41.04,0,.07,0,.1,0l-123.44,86.79-123.44-86.79s.07,0,.1,0c44.6,0,67.28-29.92,83.84-51.41ZM279.64,328.35l-21.2-14.91c8.01,1.45,14.04,6.47,21.2,14.91ZM154.9,332.94l-5.63-30.24,20.09,14.13c-4.32,5.75-8.81,12.13-12.78,16.12h-1.69ZM165.58,390.32c17.23-7.37,29.14-22.35,45.63-43.12.16-.21.32-.41.48-.61l241.36,169.7-233.48,164.16-53.99-290.12ZM768.96,742H231.03l-.59-3.19,269.56-189.52,269.55,189.52-.59,3.19Z"></path>
</svg>
