<?xml version="1.0" encoding="UTF-8"?>
<svg xmlns="http://www.w3.org/2000/svg" id="icon" viewBox="0 0 1000 1000">
  <defs>
    <style>.cls-1{fill:none;}</style>
  </defs>
  <rect x="180" y="900" width="640" height="60"></rect>
  <polygon points="425.75 675.29 499.05 383.4 500.95 383.4 574.25 675.29 636.52 675.29 735.34 303.42 670.41 303.42 605.84 580.05 603.93 580.05 530.78 303.42 469.22 303.42 396.07 580.05 394.16 580.05 329.59 303.42 264.66 303.42 363.48 675.29 425.75 675.29"></polygon>
  <path d="M500,832.5c216.77,0,392.5-175.73,392.5-392.5S716.77,47.5,500,47.5,107.5,223.23,107.5,440s175.73,392.5,392.5,392.5ZM500,112.5c180.87,0,327.5,146.63,327.5,327.5s-146.63,327.5-327.5,327.5-327.5-146.63-327.5-327.5S319.13,112.5,500,112.5Z"></path>
  <rect class="cls-1" width="1000" height="1000"></rect>
</svg>
