<?xml version="1.0" encoding="UTF-8"?>
<svg xmlns="http://www.w3.org/2000/svg" id="icon" viewBox="0 0 1000 1000">
  <defs>
    <style>.cls-1{fill:none;}</style>
  </defs>
  <rect x="180" y="900" width="640" height="60"></rect>
  <polygon points="451.25 497.92 624.53 497.92 624.53 436.34 451.25 436.34 451.25 317.79 646.82 317.79 646.82 256.21 386.25 256.21 386.25 667.37 451.25 667.37 451.25 497.92"></polygon>
  <path d="M500,832.5c216.77,0,392.5-175.73,392.5-392.5S716.77,47.5,500,47.5,107.5,223.23,107.5,440s175.73,392.5,392.5,392.5ZM500,112.5c180.87,0,327.5,146.63,327.5,327.5s-146.63,327.5-327.5,327.5-327.5-146.63-327.5-327.5S319.13,112.5,500,112.5Z"></path>
  <rect class="cls-1" width="1000" height="1000"></rect>
</svg>
