<?xml version="1.0" encoding="UTF-8"?>
<!--Generator: Apple Native CoreSVG 341-->
<!DOCTYPE svg
PUBLIC "-//W3C//DTD SVG 1.1//EN"
       "http://www.w3.org/Graphics/SVG/1.1/DTD/svg11.dtd">
<svg version="1.1" xmlns="http://www.w3.org/2000/svg" xmlns:xlink="http://www.w3.org/1999/xlink" viewBox="0 0 3300 2200">
 <!--glyph: "", point size: 100.0, font version: "20.0d10e1", template writer version: "138.0.0"-->
 <style>.SFSymbolsPreviewWireframe {fill:none;opacity:1.0;stroke:black;stroke-width:0.5}
</style>
 <g id="Notes">
  <rect height="2200" id="artboard" style="fill:white;opacity:1" width="3300" x="0" y="0"/>
  <line style="fill:none;stroke:black;opacity:1;stroke-width:0.5;" x1="263" x2="3036" y1="292" y2="292"/>
  <text style="stroke:none;fill:black;font-family:sans-serif;font-size:13;font-weight:bold;" transform="matrix(1 0 0 1 263 322)">Weight/Scale Variations</text>
  <text style="stroke:none;fill:black;font-family:sans-serif;font-size:13;text-anchor:middle;" transform="matrix(1 0 0 1 559.711 322)">Ultralight</text>
  <text style="stroke:none;fill:black;font-family:sans-serif;font-size:13;text-anchor:middle;" transform="matrix(1 0 0 1 856.422 322)">Thin</text>
  <text style="stroke:none;fill:black;font-family:sans-serif;font-size:13;text-anchor:middle;" transform="matrix(1 0 0 1 1153.13 322)">Light</text>
  <text style="stroke:none;fill:black;font-family:sans-serif;font-size:13;text-anchor:middle;" transform="matrix(1 0 0 1 1449.84 322)">Regular</text>
  <text style="stroke:none;fill:black;font-family:sans-serif;font-size:13;text-anchor:middle;" transform="matrix(1 0 0 1 1746.56 322)">Medium</text>
  <text style="stroke:none;fill:black;font-family:sans-serif;font-size:13;text-anchor:middle;" transform="matrix(1 0 0 1 2043.27 322)">Semibold</text>
  <text style="stroke:none;fill:black;font-family:sans-serif;font-size:13;text-anchor:middle;" transform="matrix(1 0 0 1 2339.98 322)">Bold</text>
  <text style="stroke:none;fill:black;font-family:sans-serif;font-size:13;text-anchor:middle;" transform="matrix(1 0 0 1 2636.69 322)">Heavy</text>
  <text style="stroke:none;fill:black;font-family:sans-serif;font-size:13;text-anchor:middle;" transform="matrix(1 0 0 1 2933.4 322)">Black</text>
  <line style="fill:none;stroke:black;opacity:1;stroke-width:0.5;" x1="263" x2="3036" y1="1903" y2="1903"/>
  <g transform="matrix(0.2 0 0 0.2 263 1933)">
   <path d="m46.2402 4.15039c21.7773 0 39.4531-17.627 39.4531-39.4043s-17.6758-39.4043-39.4531-39.4043c-21.7285 0-39.4043 17.627-39.4043 39.4043s17.6758 39.4043 39.4043 39.4043Zm0-7.42188c-17.6758 0-31.9336-14.3066-31.9336-31.9824s14.2578-31.9824 31.9336-31.9824 31.9824 14.3066 31.9824 31.9824-14.3066 31.9824-31.9824 31.9824Zm-17.9688-31.9824c0 2.14844 1.51367 3.61328 3.75977 3.61328h10.498v10.5957c0 2.19727 1.46484 3.71094 3.61328 3.71094 2.24609 0 3.71094-1.51367 3.71094-3.71094v-10.5957h10.5957c2.19727 0 3.71094-1.46484 3.71094-3.61328 0-2.19727-1.51367-3.71094-3.71094-3.71094h-10.5957v-10.5469c0-2.24609-1.46484-3.75977-3.71094-3.75977-2.14844 0-3.61328 1.51367-3.61328 3.75977v10.5469h-10.498c-2.24609 0-3.75977 1.51367-3.75977 3.71094Z"/>
  </g>
  <g transform="matrix(0.2 0 0 0.2 281.506 1933)">
   <path d="m58.5449 14.5508c27.4902 0 49.8047-22.3145 49.8047-49.8047s-22.3145-49.8047-49.8047-49.8047-49.8047 22.3145-49.8047 49.8047 22.3145 49.8047 49.8047 49.8047Zm0-8.30078c-22.9492 0-41.5039-18.5547-41.5039-41.5039s18.5547-41.5039 41.5039-41.5039 41.5039 18.5547 41.5039 41.5039-18.5547 41.5039-41.5039 41.5039Zm-22.6562-41.5039c0 2.39258 1.66016 4.00391 4.15039 4.00391h14.3555v14.4043c0 2.44141 1.66016 4.15039 4.05273 4.15039 2.44141 0 4.15039-1.66016 4.15039-4.15039v-14.4043h14.4043c2.44141 0 4.15039-1.61133 4.15039-4.00391 0-2.44141-1.70898-4.15039-4.15039-4.15039h-14.4043v-14.3555c0-2.49023-1.70898-4.19922-4.15039-4.19922-2.39258 0-4.05273 1.70898-4.05273 4.19922v14.3555h-14.3555c-2.49023 0-4.15039 1.70898-4.15039 4.15039Z"/>
  </g>
  <g transform="matrix(0.2 0 0 0.2 304.924 1933)">
   <path d="m74.8535 28.3203c35.1074 0 63.623-28.4668 63.623-63.5742s-28.5156-63.623-63.623-63.623-63.5742 28.5156-63.5742 63.623 28.4668 63.5742 63.5742 63.5742Zm0-9.08203c-30.127 0-54.4922-24.3652-54.4922-54.4922s24.3652-54.4922 54.4922-54.4922 54.4922 24.3652 54.4922 54.4922-24.3652 54.4922-54.4922 54.4922Zm-28.8574-54.4922c0 2.58789 1.85547 4.39453 4.58984 4.39453h19.7266v19.7754c0 2.68555 1.85547 4.58984 4.44336 4.58984 2.68555 0 4.54102-1.85547 4.54102-4.58984v-19.7754h19.7754c2.68555 0 4.58984-1.80664 4.58984-4.39453 0-2.73438-1.85547-4.58984-4.58984-4.58984h-19.7754v-19.7266c0-2.73438-1.85547-4.63867-4.54102-4.63867-2.58789 0-4.44336 1.9043-4.44336 4.63867v19.7266h-19.7266c-2.73438 0-4.58984 1.85547-4.58984 4.58984Z"/>
  </g>
  <text style="stroke:none;fill:black;font-family:sans-serif;font-size:13;font-weight:bold;" transform="matrix(1 0 0 1 263 1953)">Design Variations</text>
  <text style="stroke:none;fill:black;font-family:sans-serif;font-size:13;" transform="matrix(1 0 0 1 263 1971)">Symbols are supported in up to nine weights and three scales.</text>
  <text style="stroke:none;fill:black;font-family:sans-serif;font-size:13;" transform="matrix(1 0 0 1 263 1989)">For optimal layout with text and other symbols, vertically align</text>
  <text style="stroke:none;fill:black;font-family:sans-serif;font-size:13;" transform="matrix(1 0 0 1 263 2007)">symbols with the adjacent text.</text>
  <line style="fill:none;stroke:#00AEEF;stroke-width:0.5;opacity:1.0;" x1="776" x2="776" y1="1919" y2="1933"/>
  <g transform="matrix(0.2 0 0 0.2 776 1933)">
   <path d="m16.5527 0.78125c2.58789 0 3.85742-0.976562 4.78516-3.71094l6.29883-17.2363h28.8086l6.29883 17.2363c0.927734 2.73438 2.19727 3.71094 4.73633 3.71094 2.58789 0 4.24805-1.5625 4.24805-4.00391 0-0.830078-0.146484-1.61133-0.537109-2.63672l-22.9004-60.9863c-1.12305-2.97852-3.125-4.49219-6.25-4.49219-3.02734 0-5.07812 1.46484-6.15234 4.44336l-22.9004 61.084c-0.390625 1.02539-0.537109 1.80664-0.537109 2.63672 0 2.44141 1.5625 3.95508 4.10156 3.95508Zm13.4766-28.3691 11.8652-32.8613h0.244141l11.8652 32.8613Z"/>
  </g>
  <line style="fill:none;stroke:#00AEEF;stroke-width:0.5;opacity:1.0;" x1="792.836" x2="792.836" y1="1919" y2="1933"/>
  <text style="stroke:none;fill:black;font-family:sans-serif;font-size:13;font-weight:bold;" transform="matrix(1 0 0 1 776 1953)">Margins</text>
  <text style="stroke:none;fill:black;font-family:sans-serif;font-size:13;" transform="matrix(1 0 0 1 776 1971)">Leading and trailing margins on the left and right side of each symbol</text>
  <text style="stroke:none;fill:black;font-family:sans-serif;font-size:13;" transform="matrix(1 0 0 1 776 1989)">can be adjusted by modifying the x-location of the margin guidelines.</text>
  <text style="stroke:none;fill:black;font-family:sans-serif;font-size:13;" transform="matrix(1 0 0 1 776 2007)">Modifications are automatically applied proportionally to all</text>
  <text style="stroke:none;fill:black;font-family:sans-serif;font-size:13;" transform="matrix(1 0 0 1 776 2025)">scales and weights.</text>
  <g transform="matrix(0.2 0 0 0.2 1289 1933)">
   <path d="m14.209 9.32617 8.49609 8.54492c4.29688 4.3457 9.22852 4.05273 13.8672-1.07422l53.4668-58.9355-4.83398-4.88281-53.0762 58.3984c-1.75781 2.00195-3.41797 2.49023-5.76172 0.146484l-5.85938-5.81055c-2.34375-2.29492-1.80664-4.00391 0.195312-5.81055l57.373-54.0039-4.88281-4.83398-57.959 54.4434c-4.93164 4.58984-5.32227 9.47266-1.02539 13.8184Zm32.0801-90.9668c-2.09961 2.05078-2.24609 4.93164-1.07422 6.88477 1.17188 1.80664 3.4668 2.97852 6.68945 2.14844 7.32422-1.70898 14.9414-2.00195 22.0703 2.68555l-2.92969 7.27539c-1.70898 4.15039-0.830078 7.08008 1.85547 9.81445l11.4746 11.5723c2.44141 2.44141 4.49219 2.53906 7.32422 2.05078l5.32227-0.976562 3.32031 3.36914-0.195312 2.7832c-0.195312 2.49023 0.439453 4.39453 2.88086 6.78711l3.80859 3.71094c2.39258 2.39258 5.46875 2.53906 7.8125 0.195312l14.5508-14.5996c2.34375-2.34375 2.24609-5.32227-0.146484-7.71484l-3.85742-3.80859c-2.39258-2.39258-4.24805-3.17383-6.64062-2.97852l-2.88086 0.244141-3.22266-3.17383 1.2207-5.61523c0.634766-2.83203-0.146484-5.0293-3.07617-7.95898l-10.9863-10.9375c-16.6992-16.6016-38.8672-16.2109-53.3203-1.75781Zm7.4707 1.85547c12.1582-8.88672 28.6133-7.37305 39.7461 3.75977l12.1582 12.0605c1.17188 1.17188 1.36719 2.09961 1.02539 3.80859l-1.61133 7.42188 7.51953 7.42188 4.93164-0.292969c1.26953-0.0488281 1.66016 0.0488281 2.63672 1.02539l2.88086 2.88086-12.207 12.207-2.88086-2.88086c-0.976562-0.976562-1.12305-1.36719-1.07422-2.68555l0.341797-4.88281-7.4707-7.42188-7.61719 1.26953c-1.61133 0.341797-2.34375 0.195312-3.56445-0.976562l-10.0098-10.0098c-1.26953-1.17188-1.41602-2.00195-0.634766-3.85742l4.39453-10.4492c-7.8125-7.27539-17.9688-10.4004-28.125-7.42188-0.78125 0.195312-1.07422-0.439453-0.439453-0.976562Z"/>
  </g>
  <text style="stroke:none;fill:black;font-family:sans-serif;font-size:13;font-weight:bold;" transform="matrix(1 0 0 1 1289 1953)">Exporting</text>
  <text style="stroke:none;fill:black;font-family:sans-serif;font-size:13;" transform="matrix(1 0 0 1 1289 1971)">Symbols should be outlined when exporting to ensure the</text>
  <text style="stroke:none;fill:black;font-family:sans-serif;font-size:13;" transform="matrix(1 0 0 1 1289 1989)">design is preserved when submitting to Xcode.</text>
  <text id="template-version" style="stroke:none;fill:black;font-family:sans-serif;font-size:13;text-anchor:end;" transform="matrix(1 0 0 1 3036 1933)">Template v.6.0</text>
  <text style="stroke:none;fill:black;font-family:sans-serif;font-size:13;text-anchor:end;" transform="matrix(1 0 0 1 3036 1951)">Requires Xcode 16 or greater</text>
  <text id="descriptive-name" style="stroke:none;fill:black;font-family:sans-serif;font-size:13;text-anchor:end;" transform="matrix(1 0 0 1 3036 1969)">Generated from flower1.symbols</text>
  <text style="stroke:none;fill:black;font-family:sans-serif;font-size:13;text-anchor:end;" transform="matrix(1 0 0 1 3036 1987)">Typeset at 100.0 points</text>
  <text style="stroke:none;fill:black;font-family:sans-serif;font-size:13;" transform="matrix(1 0 0 1 263 726)">Small</text>
  <text style="stroke:none;fill:black;font-family:sans-serif;font-size:13;" transform="matrix(1 0 0 1 263 1156)">Medium</text>
  <text style="stroke:none;fill:black;font-family:sans-serif;font-size:13;" transform="matrix(1 0 0 1 263 1586)">Large</text>
 </g>
 <g id="Guides">
  <g id="H-reference" style="fill:#27AAE1;stroke:none;" transform="matrix(1 0 0 1 339 696)">
   <path d="M0.993654 0L3.63775 0L29.3281-67.1323L30.0303-67.1323L30.0303-70.459L28.1226-70.459ZM11.6885-24.4799L46.9815-24.4799L46.2315-26.7285L12.4385-26.7285ZM55.1196 0L57.7637 0L30.6382-70.459L29.4326-70.459L29.4326-67.1323Z"/>
  </g>
  <line id="Baseline-S" style="fill:none;stroke:#27AAE1;opacity:1;stroke-width:0.5;" x1="263" x2="3036" y1="696" y2="696"/>
  <line id="Capline-S" style="fill:none;stroke:#27AAE1;opacity:1;stroke-width:0.5;" x1="263" x2="3036" y1="625.541" y2="625.541"/>
  <g id="H-reference" style="fill:#27AAE1;stroke:none;" transform="matrix(1 0 0 1 339 1126)">
   <path d="M0.993654 0L3.63775 0L29.3281-67.1323L30.0303-67.1323L30.0303-70.459L28.1226-70.459ZM11.6885-24.4799L46.9815-24.4799L46.2315-26.7285L12.4385-26.7285ZM55.1196 0L57.7637 0L30.6382-70.459L29.4326-70.459L29.4326-67.1323Z"/>
  </g>
  <line id="Baseline-M" style="fill:none;stroke:#27AAE1;opacity:1;stroke-width:0.5;" x1="263" x2="3036" y1="1126" y2="1126"/>
  <line id="Capline-M" style="fill:none;stroke:#27AAE1;opacity:1;stroke-width:0.5;" x1="263" x2="3036" y1="1055.54" y2="1055.54"/>
  <g id="H-reference" style="fill:#27AAE1;stroke:none;" transform="matrix(1 0 0 1 339 1556)">
   <path d="M0.993654 0L3.63775 0L29.3281-67.1323L30.0303-67.1323L30.0303-70.459L28.1226-70.459ZM11.6885-24.4799L46.9815-24.4799L46.2315-26.7285L12.4385-26.7285ZM55.1196 0L57.7637 0L30.6382-70.459L29.4326-70.459L29.4326-67.1323Z"/>
  </g>
  <line id="Baseline-L" style="fill:none;stroke:#27AAE1;opacity:1;stroke-width:0.5;" x1="263" x2="3036" y1="1556" y2="1556"/>
  <line id="Capline-L" style="fill:none;stroke:#27AAE1;opacity:1;stroke-width:0.5;" x1="263" x2="3036" y1="1485.54" y2="1485.54"/>
  <line id="right-margin-Black-S" style="fill:none;stroke:#00AEEF;stroke-width:0.5;opacity:1.0;" x1="2982.17" x2="2982.17" y1="600.785" y2="720.121"/>
  <line id="left-margin-Black-S" style="fill:none;stroke:#00AEEF;stroke-width:0.5;opacity:1.0;" x1="2884.63" x2="2884.63" y1="600.785" y2="720.121"/>
  <line id="right-margin-Regular-S" style="fill:none;stroke:#00AEEF;stroke-width:0.5;opacity:1.0;" x1="1498.62" x2="1498.62" y1="600.785" y2="720.121"/>
  <line id="left-margin-Regular-S" style="fill:none;stroke:#00AEEF;stroke-width:0.5;opacity:1.0;" x1="1401.07" x2="1401.07" y1="600.785" y2="720.121"/>
  <line id="right-margin-Ultralight-S" style="fill:none;stroke:#00AEEF;stroke-width:0.5;opacity:1.0;" x1="608.484" x2="608.484" y1="600.785" y2="720.121"/>
  <line id="left-margin-Ultralight-S" style="fill:none;stroke:#00AEEF;stroke-width:0.5;opacity:1.0;" x1="510.938" x2="510.938" y1="600.785" y2="720.121"/>
 </g>
 <g id="Symbols">
  <g id="Black-S" transform="matrix(1.00656 0 0 1.00656 2884.63 696)">
   <path class="SFSymbolsPreviewWireframe" d="M84.362-44.165C83.194-45.945 81.67-47.463 79.893-48.631C80.107-49.664 80.224-50.712 80.224-51.761C80.228-55.742 78.69-59.75 75.646-62.795C72.605-65.836 68.599-67.373 64.619-67.371C63.568-67.371 62.518-67.252 61.484-67.039C60.317-68.815 58.797-70.339 57.017-71.508C54.563-73.118 51.607-74.057 48.457-74.056C45.305-74.057 42.348-73.118 39.893-71.508C38.114-70.339 36.594-68.816 35.426-67.039C34.392-67.252 33.343-67.371 32.292-67.371C28.312-67.373 24.306-65.837 21.265-62.795C18.221-59.751 16.682-55.743 16.686-51.763C16.686-50.712 16.804-49.664 17.018-48.63C15.24-47.463 13.717-45.943 12.549-44.164C10.939-41.709 9.999-38.753 10-35.603C9.999-32.451 10.939-29.495 12.548-27.041C13.717-25.26 15.24-23.739 17.018-22.572C16.804-21.538 16.686-20.49 16.686-19.439C16.682-15.459 18.221-11.452 21.262-8.411L21.264-8.411C24.306-5.367 28.314-3.83 32.295-3.832C33.344-3.832 34.393-3.951 35.426-4.163C36.592-2.386 38.111-0.863 39.891 0.305C42.346 1.917 45.301 2.855 48.454 2.854C51.607 2.855 54.563 1.917 57.018 0.305C58.797-0.863 60.318-2.386 61.486-4.163C62.518-3.951 63.566-3.832 64.617-3.832C68.598-3.83 72.605-5.367 75.646-8.411C78.69-11.452 80.229-15.461 80.224-19.442C80.224-20.491 80.107-21.538 79.893-22.572C81.67-23.739 83.194-25.257 84.363-27.037C85.973-29.493 86.912-32.45 86.91-35.603C86.912-38.755 85.972-41.712 84.362-44.165ZM79.715-30.084C78.678-28.504 77.207-27.238 75.487-26.464L73.103-25.391L74.03-22.946C74.453-21.825 74.667-20.635 74.667-19.442C74.665-16.874 73.689-14.315 71.716-12.34C69.742-10.368 67.183-9.392 64.616-9.389C63.422-9.389 62.233-9.604 61.11-10.029L58.666-10.954L57.592-8.57C56.818-6.85 55.553-5.378 53.971-4.342C52.389-3.307 50.504-2.705 48.454-2.704C46.404-2.705 44.522-3.306 42.939-4.342C41.358-5.378 40.093-6.85 39.318-8.57L38.244-10.954L35.799-10.029C34.678-9.604 33.487-9.389 32.294-9.389C29.727-9.392 27.166-10.368 25.192-12.34L25.193-12.34C23.221-14.315 22.246-16.873 22.243-19.439C22.243-20.633 22.457-21.824 22.882-22.946L23.809-25.391L21.425-26.464C19.705-27.239 18.233-28.506 17.196-30.088C16.161-31.67 15.559-33.554 15.557-35.603C15.559-37.651 16.161-39.533 17.196-41.115C18.233-42.697 19.704-43.963 21.425-44.738L23.809-45.811L22.882-48.255C22.457-49.378 22.243-50.568 22.243-51.763C22.246-54.33 23.222-56.888 25.195-58.865C27.168-60.836 29.725-61.811 32.292-61.814C33.486-61.814 34.677-61.599 35.799-61.173L38.242-60.248L39.317-62.63C40.093-64.352 41.359-65.824 42.94-66.86C44.524-67.896 46.406-68.497 48.456-68.498C50.505-68.497 52.387-67.896 53.97-66.86C55.55-65.824 56.818-64.352 57.593-62.63L58.667-60.248L61.11-61.173C62.232-61.599 63.423-61.814 64.619-61.814C67.185-61.811 69.743-60.836 71.716-58.865C73.688-56.888 74.665-54.329 74.667-51.761C74.667-50.568 74.453-49.376 74.029-48.255L73.103-45.811L75.486-44.738C77.207-43.964 78.679-42.698 79.715-41.117C80.749-39.535 81.351-37.653 81.353-35.603C81.351-33.55 80.75-31.667 79.715-30.084ZM48.278-47.074C48.496-47.57 48.666-47.982 48.788-48.295C50.34-52.24 50.857-54.037 48.893-55.842C48.615-56.077 48.341-56.316 48.077-56.558C47.824-56.3 47.564-56.052 47.298-55.808C45.408-53.922 46.005-52.15 47.719-48.28C47.854-47.967 48.045-47.561 48.278-47.074ZM38.884-43.954C39.195-43.834 39.618-43.679 40.127-43.504C39.932-44 39.757-44.419 39.624-44.726C37.933-48.606 37.033-50.247 34.367-50.134C34.006-50.101 33.646-50.078 33.287-50.067C33.286-49.706 33.276-49.346 33.261-48.982C33.26-46.311 34.936-45.481 38.884-43.954ZM36.977-35.423C36.487-35.637 36.071-35.808 35.759-35.93C31.817-37.485 30.02-38.005 28.214-36.041C27.98-35.762 27.743-35.488 27.498-35.222C27.756-34.972 28.005-34.709 28.248-34.442C30.13-32.558 31.907-33.151 35.779-34.864C36.085-35.002 36.496-35.19 36.977-35.423ZM33.923-21.51C33.957-21.152 33.979-20.792 33.989-20.432C34.349-20.432 34.712-20.42 35.074-20.407C37.744-20.406 38.575-22.081 40.105-26.03C40.228-26.343 40.385-26.77 40.559-27.279C40.06-27.078 39.642-26.904 39.331-26.769C35.451-25.083 33.81-24.179 33.923-21.51ZM48.634-24.13C48.418-23.638 48.244-23.218 48.122-22.906C46.572-18.963 46.053-17.166 48.018-15.36C48.296-15.125 48.57-14.886 48.834-14.644C49.086-14.902 49.348-15.151 49.614-15.394C51.502-17.279 50.905-19.052 49.192-22.923C49.056-23.234 48.866-23.645 48.634-24.13ZM48.457-40.766C45.603-40.766 43.291-38.454 43.291-35.601C43.291-32.749 45.603-30.437 48.457-30.437C51.308-30.437 53.62-32.749 53.62-35.601C53.62-38.454 51.308-40.766 48.457-40.766ZM62.988-49.689C62.955-50.051 62.932-50.409 62.922-50.769C62.562-50.769 62.199-50.781 61.836-50.796C59.167-50.797 58.337-49.122 56.804-45.17C56.682-44.857 56.528-44.437 56.353-43.927C56.852-44.127 57.268-44.296 57.58-44.435C61.461-46.122 63.1-47.024 62.988-49.689ZM58.026-27.252C57.711-27.374 57.288-27.53 56.779-27.705C56.979-27.207 57.15-26.789 57.288-26.477C58.978-22.596 59.878-20.956 62.545-21.068C62.905-21.101 63.265-21.125 63.624-21.135C63.626-21.497 63.635-21.857 63.652-22.222C63.65-24.891 61.977-25.723 58.026-27.252ZM61.135-36.339C60.823-36.207 60.414-36.014 59.932-35.782C60.424-35.565 60.84-35.393 61.153-35.272C65.093-33.717 66.891-33.2 68.697-35.164C68.932-35.441 69.169-35.716 69.413-35.981C69.155-36.232 68.906-36.493 68.663-36.759C66.781-38.646 65.004-38.052 61.135-36.339Z"/>
  </g>
  <g id="Regular-S" transform="matrix(1.00656 0 0 1.00656 1401.07 696)">
   <path class="SFSymbolsPreviewWireframe" d="M84.362-44.165C83.194-45.945 81.67-47.463 79.893-48.631C80.107-49.664 80.224-50.712 80.224-51.761C80.228-55.742 78.69-59.75 75.646-62.795C72.605-65.836 68.599-67.373 64.619-67.371C63.568-67.371 62.518-67.252 61.484-67.039C60.317-68.815 58.797-70.339 57.017-71.508C54.563-73.118 51.607-74.057 48.457-74.056C45.305-74.057 42.348-73.118 39.893-71.508C38.114-70.339 36.594-68.816 35.426-67.039C34.392-67.252 33.343-67.371 32.292-67.371C28.312-67.373 24.306-65.837 21.265-62.795C18.221-59.751 16.682-55.743 16.686-51.763C16.686-50.712 16.804-49.664 17.018-48.63C15.24-47.463 13.717-45.943 12.549-44.164C10.939-41.709 9.999-38.753 10-35.603C9.999-32.451 10.939-29.495 12.548-27.041C13.717-25.26 15.24-23.739 17.018-22.572C16.804-21.538 16.686-20.49 16.686-19.439C16.682-15.459 18.221-11.452 21.262-8.411L21.264-8.411C24.306-5.367 28.314-3.83 32.295-3.832C33.344-3.832 34.393-3.951 35.426-4.163C36.592-2.386 38.111-0.863 39.891 0.305C42.346 1.917 45.301 2.855 48.454 2.854C51.607 2.855 54.563 1.917 57.018 0.305C58.797-0.863 60.318-2.386 61.486-4.163C62.518-3.951 63.566-3.832 64.617-3.832C68.598-3.83 72.605-5.367 75.646-8.411C78.69-11.452 80.229-15.461 80.224-19.442C80.224-20.491 80.107-21.538 79.893-22.572C81.67-23.739 83.194-25.257 84.363-27.037C85.973-29.493 86.912-32.45 86.91-35.603C86.912-38.755 85.972-41.712 84.362-44.165ZM79.715-30.084C78.678-28.504 77.207-27.238 75.487-26.464L73.103-25.391L74.03-22.946C74.453-21.825 74.667-20.635 74.667-19.442C74.665-16.874 73.689-14.315 71.716-12.34C69.742-10.368 67.183-9.392 64.616-9.389C63.422-9.389 62.233-9.604 61.11-10.029L58.666-10.954L57.592-8.57C56.818-6.85 55.553-5.378 53.971-4.342C52.389-3.307 50.504-2.705 48.454-2.704C46.404-2.705 44.522-3.306 42.939-4.342C41.358-5.378 40.093-6.85 39.318-8.57L38.244-10.954L35.799-10.029C34.678-9.604 33.487-9.389 32.294-9.389C29.727-9.392 27.167-10.368 25.192-12.34L25.193-12.34C23.221-14.315 22.246-16.873 22.243-19.439C22.243-20.633 22.457-21.824 22.882-22.946L23.809-25.391L21.425-26.464C19.705-27.239 18.233-28.506 17.196-30.088C16.161-31.67 15.559-33.554 15.557-35.603C15.559-37.651 16.161-39.533 17.196-41.115C18.233-42.697 19.704-43.963 21.425-44.738L23.809-45.811L22.882-48.255C22.457-49.378 22.243-50.568 22.243-51.763C22.246-54.33 23.222-56.888 25.195-58.865C27.168-60.836 29.725-61.811 32.292-61.814C33.486-61.814 34.677-61.599 35.799-61.173L38.242-60.248L39.317-62.63C40.093-64.352 41.359-65.824 42.94-66.86C44.524-67.896 46.406-68.497 48.456-68.498C50.505-68.497 52.387-67.896 53.97-66.86C55.55-65.824 56.818-64.352 57.593-62.63L58.667-60.248L61.11-61.173C62.232-61.599 63.423-61.814 64.619-61.814C67.185-61.811 69.743-60.836 71.716-58.865C73.688-56.888 74.665-54.329 74.667-51.761C74.667-50.568 74.453-49.376 74.029-48.255L73.103-45.811L75.486-44.738C77.207-43.964 78.679-42.698 79.715-41.117C80.749-39.535 81.351-37.653 81.353-35.603C81.351-33.55 80.75-31.667 79.715-30.084ZM48.278-47.074C48.496-47.57 48.666-47.982 48.788-48.295C50.34-52.24 50.857-54.037 48.893-55.842C48.615-56.077 48.341-56.316 48.077-56.558C47.824-56.3 47.564-56.052 47.298-55.808C45.408-53.922 46.005-52.15 47.719-48.28C47.854-47.967 48.045-47.561 48.278-47.074ZM38.884-43.954C39.195-43.834 39.618-43.679 40.127-43.504C39.933-44 39.757-44.419 39.624-44.726C37.933-48.606 37.033-50.247 34.367-50.134C34.006-50.101 33.646-50.078 33.287-50.067C33.286-49.706 33.276-49.346 33.261-48.982C33.26-46.311 34.936-45.481 38.884-43.954ZM36.977-35.423C36.487-35.637 36.071-35.808 35.759-35.93C31.817-37.485 30.02-38.005 28.214-36.041C27.98-35.762 27.743-35.488 27.498-35.222C27.756-34.972 28.005-34.709 28.248-34.442C30.13-32.558 31.907-33.151 35.779-34.864C36.085-35.002 36.496-35.19 36.977-35.423ZM33.923-21.51C33.957-21.152 33.979-20.792 33.989-20.432C34.349-20.432 34.712-20.42 35.074-20.407C37.744-20.406 38.575-22.081 40.105-26.03C40.228-26.343 40.385-26.77 40.559-27.279C40.06-27.078 39.642-26.904 39.331-26.769C35.451-25.083 33.81-24.179 33.923-21.51ZM48.634-24.13C48.418-23.638 48.244-23.218 48.122-22.906C46.572-18.963 46.053-17.166 48.018-15.36C48.296-15.125 48.57-14.886 48.834-14.644C49.086-14.902 49.348-15.151 49.614-15.394C51.502-17.279 50.905-19.052 49.192-22.923C49.056-23.234 48.866-23.645 48.634-24.13ZM48.457-40.766C45.603-40.766 43.291-38.454 43.291-35.601C43.291-32.749 45.603-30.437 48.457-30.437C51.308-30.437 53.62-32.749 53.62-35.601C53.62-38.454 51.308-40.766 48.457-40.766ZM62.988-49.689C62.955-50.051 62.932-50.409 62.922-50.769C62.562-50.769 62.199-50.781 61.836-50.796C59.167-50.797 58.337-49.122 56.804-45.17C56.682-44.857 56.528-44.437 56.353-43.927C56.852-44.127 57.268-44.296 57.58-44.435C61.461-46.122 63.1-47.024 62.988-49.689ZM58.026-27.252C57.711-27.374 57.288-27.53 56.779-27.705C56.979-27.207 57.15-26.789 57.288-26.477C58.978-22.596 59.878-20.956 62.545-21.068C62.905-21.101 63.265-21.125 63.624-21.135C63.626-21.497 63.635-21.857 63.652-22.222C63.65-24.891 61.977-25.723 58.026-27.252ZM61.135-36.339C60.823-36.207 60.414-36.014 59.932-35.782C60.424-35.565 60.84-35.393 61.153-35.272C65.093-33.717 66.891-33.2 68.697-35.164C68.932-35.441 69.169-35.716 69.413-35.981C69.155-36.232 68.906-36.493 68.663-36.759C66.781-38.646 65.004-38.052 61.135-36.339Z"/>
  </g>
  <g id="Ultralight-S" transform="matrix(1.00656 0 0 1.00656 510.938 696)">
   <path class="SFSymbolsPreviewWireframe" d="M84.362-44.165C83.194-45.945 81.67-47.463 79.893-48.631C80.107-49.664 80.224-50.712 80.224-51.761C80.228-55.742 78.69-59.75 75.646-62.795C72.605-65.836 68.599-67.373 64.619-67.371C63.568-67.371 62.518-67.252 61.484-67.039C60.317-68.815 58.797-70.339 57.017-71.508C54.563-73.118 51.607-74.057 48.457-74.056C45.305-74.057 42.348-73.118 39.893-71.508C38.114-70.339 36.594-68.816 35.426-67.039C34.392-67.252 33.343-67.371 32.292-67.371C28.312-67.373 24.306-65.837 21.265-62.795C18.221-59.751 16.682-55.743 16.686-51.763C16.686-50.712 16.804-49.664 17.018-48.63C15.24-47.463 13.717-45.943 12.549-44.164C10.939-41.709 9.999-38.753 10-35.603C9.999-32.451 10.939-29.495 12.548-27.041C13.717-25.26 15.24-23.739 17.018-22.572C16.804-21.538 16.686-20.49 16.686-19.439C16.682-15.459 18.221-11.452 21.262-8.411L21.264-8.411C24.306-5.367 28.314-3.83 32.295-3.832C33.344-3.832 34.393-3.951 35.426-4.163C36.592-2.386 38.111-0.863 39.891 0.305C42.346 1.917 45.301 2.855 48.454 2.854C51.607 2.855 54.563 1.917 57.018 0.305C58.797-0.863 60.318-2.386 61.486-4.163C62.518-3.951 63.566-3.832 64.617-3.832C68.598-3.83 72.605-5.367 75.646-8.411C78.69-11.452 80.229-15.461 80.224-19.442C80.224-20.491 80.107-21.538 79.893-22.572C81.67-23.739 83.194-25.257 84.363-27.037C85.973-29.493 86.912-32.45 86.91-35.603C86.912-38.755 85.972-41.712 84.362-44.165ZM79.715-30.084C78.678-28.504 77.207-27.238 75.487-26.464L73.103-25.391L74.03-22.946C74.453-21.825 74.667-20.635 74.667-19.442C74.665-16.874 73.689-14.315 71.716-12.34C69.742-10.368 67.183-9.392 64.616-9.389C63.422-9.389 62.233-9.604 61.11-10.029L58.666-10.954L57.592-8.57C56.818-6.85 55.553-5.378 53.971-4.342C52.389-3.307 50.504-2.705 48.454-2.704C46.404-2.705 44.522-3.306 42.939-4.342C41.358-5.378 40.093-6.85 39.318-8.57L38.244-10.954L35.799-10.029C34.678-9.604 33.487-9.389 32.294-9.389C29.727-9.392 27.167-10.368 25.192-12.34L25.193-12.34C23.221-14.315 22.246-16.873 22.243-19.439C22.243-20.633 22.457-21.824 22.882-22.946L23.809-25.391L21.425-26.464C19.705-27.239 18.233-28.506 17.196-30.088C16.161-31.67 15.559-33.554 15.557-35.603C15.559-37.651 16.161-39.533 17.196-41.115C18.233-42.697 19.704-43.963 21.425-44.738L23.809-45.811L22.882-48.255C22.457-49.378 22.243-50.568 22.243-51.763C22.246-54.33 23.222-56.888 25.195-58.865C27.168-60.836 29.725-61.811 32.292-61.814C33.486-61.814 34.677-61.599 35.799-61.173L38.242-60.248L39.317-62.63C40.093-64.352 41.359-65.824 42.94-66.86C44.524-67.896 46.406-68.497 48.456-68.498C50.505-68.497 52.387-67.896 53.97-66.86C55.55-65.824 56.818-64.352 57.593-62.63L58.667-60.248L61.11-61.173C62.232-61.599 63.423-61.814 64.619-61.814C67.185-61.811 69.743-60.836 71.716-58.865C73.688-56.888 74.665-54.329 74.667-51.761C74.667-50.568 74.453-49.376 74.029-48.255L73.103-45.811L75.486-44.738C77.207-43.964 78.679-42.698 79.715-41.117C80.749-39.535 81.351-37.653 81.353-35.603C81.351-33.55 80.75-31.667 79.715-30.084ZM48.278-47.074C48.496-47.57 48.666-47.982 48.788-48.295C50.34-52.24 50.857-54.037 48.893-55.842C48.615-56.077 48.341-56.316 48.077-56.558C47.824-56.3 47.564-56.052 47.298-55.808C45.408-53.922 46.005-52.15 47.719-48.28C47.854-47.967 48.045-47.561 48.278-47.074ZM38.884-43.954C39.195-43.834 39.618-43.679 40.127-43.504C39.933-44 39.757-44.419 39.624-44.726C37.933-48.606 37.033-50.247 34.367-50.134C34.006-50.101 33.646-50.078 33.287-50.067C33.286-49.706 33.276-49.346 33.261-48.982C33.26-46.311 34.936-45.481 38.884-43.954ZM36.977-35.423C36.487-35.637 36.071-35.808 35.759-35.93C31.817-37.485 30.02-38.005 28.214-36.041C27.98-35.762 27.743-35.488 27.498-35.222C27.756-34.972 28.005-34.709 28.248-34.442C30.13-32.558 31.907-33.151 35.779-34.864C36.085-35.002 36.496-35.19 36.977-35.423ZM33.923-21.51C33.957-21.152 33.979-20.792 33.989-20.432C34.349-20.432 34.712-20.42 35.074-20.407C37.744-20.406 38.575-22.081 40.105-26.03C40.228-26.343 40.385-26.77 40.559-27.279C40.06-27.078 39.642-26.904 39.331-26.769C35.451-25.083 33.81-24.179 33.923-21.51ZM48.634-24.13C48.418-23.638 48.244-23.218 48.122-22.906C46.572-18.963 46.053-17.166 48.018-15.36C48.296-15.125 48.57-14.886 48.834-14.644C49.086-14.902 49.348-15.151 49.614-15.394C51.502-17.279 50.905-19.052 49.192-22.923C49.056-23.234 48.866-23.645 48.634-24.13ZM48.457-40.766C45.603-40.766 43.291-38.454 43.291-35.601C43.291-32.749 45.603-30.437 48.457-30.437C51.308-30.437 53.62-32.749 53.62-35.601C53.62-38.454 51.308-40.766 48.457-40.766ZM62.988-49.689C62.955-50.051 62.932-50.409 62.922-50.769C62.562-50.769 62.199-50.781 61.836-50.796C59.167-50.797 58.337-49.122 56.804-45.17C56.682-44.857 56.528-44.437 56.353-43.927C56.852-44.127 57.268-44.296 57.58-44.435C61.461-46.122 63.1-47.024 62.988-49.689ZM58.026-27.252C57.711-27.374 57.288-27.53 56.779-27.705C56.979-27.207 57.15-26.789 57.288-26.477C58.978-22.596 59.878-20.956 62.545-21.068C62.905-21.101 63.265-21.125 63.624-21.135C63.626-21.497 63.635-21.857 63.652-22.222C63.65-24.891 61.977-25.723 58.026-27.252ZM61.135-36.339C60.823-36.207 60.414-36.014 59.932-35.782C60.424-35.565 60.84-35.393 61.153-35.272C65.093-33.717 66.891-33.2 68.697-35.164C68.932-35.441 69.169-35.716 69.413-35.981C69.155-36.232 68.906-36.493 68.663-36.759C66.781-38.646 65.004-38.052 61.135-36.339Z"/>
  </g>
 </g>
</svg>
