<?xml version="1.0" encoding="UTF-8"?>
<svg xmlns="http://www.w3.org/2000/svg" id="icon" viewBox="0 0 1000 1000">
  <defs>
    <style>.cls-1{fill:none;}</style>
  </defs>
  <polygon points="678.72 340 611 630.12 609 630.12 532.29 340 467.72 340 391 630.12 389 630.12 321.29 340 252.24 340 355.87 730 422.13 730 499 423.88 501 423.88 577.87 730 644.13 730 747.76 340 678.72 340"></polygon>
  <path d="M500,85c-229.2,0-415,185.8-415,415s185.8,415,415,415,415-185.8,415-415S729.2,85,500,85ZM500,845c-190.54,0-345-154.46-345-345S309.46,155,500,155s345,154.46,345,345-154.46,345-345,345Z"></path>
  <rect class="cls-1" width="1000" height="1000"></rect>
</svg>
